<?xml version="1.0" encoding="utf-8"?>
<!-- Generator: Adobe Illustrator 24.3.0, SVG Export Plug-In . SVG Version: 6.00 Build 0)  -->
<svg version="1.1" xmlns="http://www.w3.org/2000/svg" xmlns:xlink="http://www.w3.org/1999/xlink" x="0px" y="0px"
	 viewBox="0 0 27.12 31.25" style="enable-background:new 0 0 27.12 31.25;" xml:space="preserve">
<style type="text/css">
	.st0{fill:#FFFFFF;}
	.st1{fill:#171714;}
	.st2{fill:none;stroke:#37373F;stroke-width:1.5;stroke-miterlimit:10;}
	.st3{fill:none;stroke:#37373F;stroke-width:1.5;stroke-linecap:round;stroke-miterlimit:10;}
	.st4{fill:none;stroke:#37373F;stroke-width:1.5;stroke-linecap:round;stroke-linejoin:round;stroke-miterlimit:10;}
	.st5{fill:none;stroke:#37373F;stroke-width:1.3;stroke-linecap:round;stroke-linejoin:round;stroke-miterlimit:10;}
	.st6{fill:none;stroke:#37373F;stroke-linecap:round;stroke-linejoin:round;stroke-miterlimit:10;}
	.st7{fill:none;stroke:#37373F;stroke-width:1.4761;stroke-linecap:round;stroke-linejoin:round;stroke-miterlimit:10;}
	.st8{fill:none;stroke:#37373F;stroke-width:1.2;stroke-linecap:round;stroke-linejoin:round;stroke-miterlimit:10;}
	.st9{fill:none;stroke:#37373F;stroke-width:1.3067;stroke-linecap:round;stroke-linejoin:round;stroke-miterlimit:10;}
	.st10{fill:#37373F;}
	.st11{fill:none;stroke:#37373F;stroke-width:2.1163;stroke-linecap:round;stroke-linejoin:round;stroke-miterlimit:10;}
	.st12{fill:none;stroke:#FC5A2A;stroke-width:1.2617;stroke-linecap:round;stroke-miterlimit:10;}
	.st13{fill:#FC5A2A;}
	.st14{fill:#FC5A2A;stroke:#FC5A2A;stroke-width:1.5;stroke-miterlimit:10;}
</style>
<g id="TEXTO">
</g>
<g id="ICONOS">
	<g>
		<g>
			<g>
				<path class="st4" d="M25.91,30.17l-0.05,0.04c-0.53,0.44-1.32,0.36-1.76-0.17l-6.25-7.61c-0.44-0.53-0.36-1.32,0.17-1.76
					l0.05-0.04c0.53-0.44,1.32-0.36,1.76,0.17l6.25,7.61C26.52,28.95,26.44,29.74,25.91,30.17z"/>
				<path class="st4" d="M9.4,16.65c0,0,5.93,2.72,8.16,5.43"/>
				<path class="st4" d="M15.8,11.39c0,0,1.51,6.35,3.74,9.06"/>
			</g>
			<g>
				<g>
					
						<ellipse transform="matrix(0.7728 -0.6346 0.6346 0.7728 -3.6269 7.1614)" class="st6" cx="8.19" cy="8.65" rx="6.64" ry="9.02"/>
					<line class="st6" x1="0.62" y1="7.27" x2="8.06" y2="16.34"/>
					<line class="st6" x1="0.9" y1="4.49" x2="10.85" y2="16.6"/>
					<line class="st6" x1="1.82" y1="2.46" x2="13.02" y2="16.1"/>
					<line class="st6" x1="3.42" y1="1.27" x2="14.5" y2="14.76"/>
					<line class="st6" x1="5.48" y1="0.63" x2="15.52" y2="12.87"/>
					<line class="st6" x1="8.32" y1="0.95" x2="15.76" y2="10.02"/>
				</g>
				<line class="st6" x1="0.62" y1="6.19" x2="7.25" y2="0.75"/>
				<line class="st6" x1="1.14" y1="9.24" x2="10.14" y2="1.85"/>
				<line class="st6" x1="2.39" y1="11.68" x2="12.29" y2="3.55"/>
				<line class="st6" x1="4.09" y1="13.75" x2="13.99" y2="5.62"/>
				<line class="st6" x1="6.24" y1="15.45" x2="15.24" y2="8.06"/>
				<line class="st6" x1="9.05" y1="16.61" x2="15.83" y2="11.04"/>
			</g>
		</g>
		<g>
			<circle class="st6" cx="8.99" cy="25.43" r="3.37"/>
			<path class="st6" d="M8.84,22.06c0.31,1-0.43,1.77-0.85,2.11c-0.36,0.3-0.63,0.72-0.65,1.19c-0.02,0.49,0.19,0.99,0.6,1.33
				c0.41,0.34,0.93,0.45,1.42,0.34c0.46-0.1,0.83-0.44,1.05-0.86c0.26-0.48,0.89-1.34,1.92-1.23"/>
		</g>
	</g>
</g>
</svg>
