<?xml version="1.0" encoding="utf-8"?>
<!-- Generator: Adobe Illustrator 24.3.0, SVG Export Plug-In . SVG Version: 6.00 Build 0)  -->
<svg version="1.1" xmlns="http://www.w3.org/2000/svg" xmlns:xlink="http://www.w3.org/1999/xlink" x="0px" y="0px"
	 viewBox="0 0 36.5 20.06" style="enable-background:new 0 0 36.5 20.06;" xml:space="preserve">
<style type="text/css">
	.st0{fill:#FFFFFF;}
	.st1{fill:#171714;}
	.st2{fill:none;stroke:#37373F;stroke-width:1.5;stroke-miterlimit:10;}
	.st3{fill:none;stroke:#37373F;stroke-width:1.5;stroke-linecap:round;stroke-miterlimit:10;}
	.st4{fill:none;stroke:#37373F;stroke-width:1.5;stroke-linecap:round;stroke-linejoin:round;stroke-miterlimit:10;}
	.st5{fill:none;stroke:#37373F;stroke-width:1.3;stroke-linecap:round;stroke-linejoin:round;stroke-miterlimit:10;}
	.st6{fill:none;stroke:#37373F;stroke-linecap:round;stroke-linejoin:round;stroke-miterlimit:10;}
	.st7{fill:none;stroke:#37373F;stroke-width:1.4761;stroke-linecap:round;stroke-linejoin:round;stroke-miterlimit:10;}
	.st8{fill:none;stroke:#37373F;stroke-width:1.2;stroke-linecap:round;stroke-linejoin:round;stroke-miterlimit:10;}
	.st9{fill:none;stroke:#37373F;stroke-width:1.3067;stroke-linecap:round;stroke-linejoin:round;stroke-miterlimit:10;}
	.st10{fill:#37373F;}
	.st11{fill:none;stroke:#37373F;stroke-width:2.1163;stroke-linecap:round;stroke-linejoin:round;stroke-miterlimit:10;}
	.st12{fill:none;stroke:#FC5A2A;stroke-width:1.2617;stroke-linecap:round;stroke-miterlimit:10;}
	.st13{fill:#FC5A2A;}
	.st14{fill:#FC5A2A;stroke:#FC5A2A;stroke-width:1.5;stroke-miterlimit:10;}
</style>
<g id="TEXTO">
</g>
<g id="ICONOS">
	<g>
		<path class="st4" d="M34.97,8.28c1.04,0.94,1.04,2.56,0,3.5c-2.97,2.69-9.34,7.53-16.72,7.53S4.5,14.47,1.53,11.78
			c-1.04-0.94-1.04-2.56,0-3.5c2.97-2.69,9.34-7.53,16.72-7.53S32,5.59,34.97,8.28z"/>
		<path class="st4" d="M27.05,17.07c1.81-2,2.47-4.13,2.47-7.04c0-2.73-0.97-5.24-2.59-7.19"/>
		<path class="st4" d="M9.57,2.84C7.95,4.79,6.98,7.3,6.98,10.03c0,2.73,0.97,5.24,2.59,7.19"/>
		<line class="st4" x1="0.77" y1="10.03" x2="6.98" y2="10.03"/>
		<line class="st4" x1="35.75" y1="10.03" x2="29.52" y2="10.03"/>
		<line class="st4" x1="11.02" y1="9.95" x2="25.31" y2="9.95"/>
		<g>
			<line class="st4" x1="13.63" y1="7.94" x2="13.63" y2="11.71"/>
			<line class="st4" x1="15.9" y1="7.94" x2="15.9" y2="11.71"/>
			<line class="st4" x1="18.16" y1="7.94" x2="18.16" y2="11.71"/>
			<line class="st4" x1="20.43" y1="7.94" x2="20.43" y2="11.71"/>
			<line class="st4" x1="22.7" y1="7.94" x2="22.7" y2="11.71"/>
		</g>
	</g>
</g>
</svg>
