<svg version="1.0" xmlns="http://www.w3.org/2000/svg" width="128.000000pt" height="128.000000pt" viewBox="0 0 128.000000 128.000000" preserveAspectRatio="xMidYMid meet"><g transform="translate(0.000000,128.000000) scale(0.100000,-0.100000)" fill="#bfbfbf" stroke="none"><path d="M510 1173 c-8 -3 -126 -116 -262 -252 -230 -228 -248 -248 -248 -281 0 -33 18 -53 249 -284 219 -219 253 -249 281 -249 38 0 79 29 104 75 17 31 18 39 6 67 -7 18 -74 90 -148 161 l-135 130 445 0 c516 0 478 -8 478 102 0 105 35 98 -475 98 l-439 0 136 138 c81 81 139 148 143 164 15 61 -78 151 -135 131z"/></g></svg>
