<svg xmlns="http://www.w3.org/2000/svg" viewBox="0 0 58.03 58.03"><defs><style>.cls-1{fill:#3a3a41;}</style></defs><title>pictoatencionpicto</title><g id="Capa_2" data-name="Capa 2"><g id="Capa_1-2" data-name="Capa 1"><g id="_8" data-name="8"><path class="cls-1" d="M29,58A29,29,0,1,0,0,29,29,29,0,0,0,29,58Zm0-54.4A25.39,25.39,0,1,1,3.63,29,25.38,25.38,0,0,1,29,3.63Z"/></g><path class="cls-1" d="M29,14.3A2.5,2.5,0,0,0,26.39,17c0,5.3.49,12.93.49,18.23a1.86,1.86,0,0,0,2.08,2,2,2,0,0,0,2-2c0-5.3.5-12.93.5-18.23A2.51,2.51,0,0,0,29,14.3Z"/><path class="cls-1" d="M29.07,38.53a2.6,2.6,0,0,0,0,5.2,2.64,2.64,0,0,0,2.57-2.6A2.61,2.61,0,0,0,29.07,38.53Z"/></g></g></svg>