<svg version="1.1" id="Capa_1" xmlns="http://www.w3.org/2000/svg" xmlns:xlink="http://www.w3.org/1999/xlink" x="0px" y="0px" width="37.205px" height="28.782px" viewBox="0 0 37.205 28.782" enable-background="new 0 0 37.205 28.782" xml:space="preserve"> <g> <defs> <rect id="SVGID_1_" width="37.205" height="28.782"/> </defs> <clipPath id="SVGID_2_"> <use xlink:href="#SVGID_1_"  overflow="visible"/> </clipPath><ellipse clip-path="url(#SVGID_2_)" fill="none" stroke="#3A3A41" stroke-width="1.5" stroke-linecap="round" stroke-linejoin="round" stroke-miterlimit="10" cx="24.176" cy="20.539" rx="6.136" ry="3.883"/><rect x="13.013" y="9.411" clip-path="url(#SVGID_2_)" fill="none" stroke="#3A3A41" stroke-width="1.5" stroke-linecap="round" stroke-linejoin="round" stroke-miterlimit="10" width="22.043" height="3.904"/><path clip-path="url(#SVGID_2_)" fill="none" stroke="#3A3A41" stroke-width="1.5" stroke-linecap="round" stroke-linejoin="round" stroke-miterlimit="10" d=" M33.497,27.87H14.856c-1.632,0-2.957-1.323-2.957-2.958V13.314h24.556v11.598C36.455,26.547,35.13,27.87,33.497,27.87z"/><path clip-path="url(#SVGID_2_)" fill="none" stroke="#3A3A41" stroke-width="1.5" stroke-linecap="round" stroke-linejoin="round" stroke-miterlimit="10" d=" M24.037,4.746c-2.469-2.469-5.879-3.996-9.646-3.996C6.857,0.75,0.75,6.858,0.75,14.392c0,7.533,6.107,13.64,13.641,13.64"/><path clip-path="url(#SVGID_2_)" fill="none" stroke="#3A3A41" stroke-width="1.5" stroke-linecap="round" stroke-linejoin="round" stroke-miterlimit="10" d=" M15.189,9.411c0,0,1.783,0.681,6.219-2.967c3.278-2.696,8.301-3.182,8.301-3.182s-2.192,2.199-0.657,3.182 c1.921,1.231,4.252-0.529,4.835,2.416"/> </g> </svg>