<svg xmlns="http://www.w3.org/2000/svg" viewBox="0 0 58.03 58.03"><defs><style>.cls-1,.cls-2{fill:#3a3a41;}.cls-2{stroke:#3a3a41;stroke-miterlimit:10;stroke-width:0.43px;}</style></defs><title>pictocampanapicto</title><g id="Capa_2" data-name="Capa 2"><g id="Capa_1-2" data-name="Capa 1"><g id="_8" data-name="8"><path class="cls-1" d="M29,58A29,29,0,1,0,0,29,29,29,0,0,0,29,58Zm0-54.4A25.39,25.39,0,1,1,3.63,29,25.38,25.38,0,0,1,29,3.63Z"/></g><path class="cls-2" d="M29.3,45.82a5.51,5.51,0,0,1-5.51-5.51,1.1,1.1,0,1,1,2.2,0,3.31,3.31,0,0,0,6.62,0,1.1,1.1,0,1,1,2.2,0A5.51,5.51,0,0,1,29.3,45.82Z"/><path class="cls-2" d="M41.42,41.41H17.17a2.57,2.57,0,0,1-1.67-4.53A9.86,9.86,0,0,0,19,29.34v-4.1a10.29,10.29,0,0,1,20.58,0v4.1a9.84,9.84,0,0,0,3.49,7.53,2.57,2.57,0,0,1-1.66,4.54ZM29.3,17.16a8.09,8.09,0,0,0-8.09,8.08v4.1a12,12,0,0,1-4.27,9.21.36.36,0,0,0,.23.65H41.42a.37.37,0,0,0,.37-.36.35.35,0,0,0-.13-.28,12.05,12.05,0,0,1-4.28-9.22v-4.1A8.08,8.08,0,0,0,29.3,17.16Z"/><path class="cls-2" d="M29.3,17.16a1.11,1.11,0,0,1-1.1-1.11V11.64a1.1,1.1,0,1,1,2.2,0v4.41A1.11,1.11,0,0,1,29.3,17.16Z"/></g></g></svg>