<svg xmlns="http://www.w3.org/2000/svg" viewBox="0 0 53.55 40.16"><defs><style>.cls-1{fill:#3a3a41;}</style></defs><title>pictocardpicto</title><g id="Capa_2" data-name="Capa 2"><g id="Capa_1-2" data-name="Capa 1"><path class="cls-1" d="M47.41,40.16H6.14A6.14,6.14,0,0,1,0,34V6.14A6.14,6.14,0,0,1,6.14,0H34.37a1.68,1.68,0,0,1,0,3.35H6.14A2.79,2.79,0,0,0,3.35,6.14V34a2.8,2.8,0,0,0,2.79,2.79H47.41A2.8,2.8,0,0,0,50.2,34V6.14a2.79,2.79,0,0,0-2.79-2.79H34A1.68,1.68,0,1,1,34,0H47.41a6.14,6.14,0,0,1,6.14,6.14V34A6.14,6.14,0,0,1,47.41,40.16Z"/><path class="cls-1" d="M16.73,20.46a5.58,5.58,0,1,1,5.58-5.58A5.59,5.59,0,0,1,16.73,20.46Zm0-7.81A2.23,2.23,0,1,0,19,14.88,2.24,2.24,0,0,0,16.73,12.65Z"/><path class="cls-1" d="M25.1,31.61a1.67,1.67,0,0,1-1.67-1.67V28.82A2.79,2.79,0,0,0,20.64,26H12.83A2.79,2.79,0,0,0,10,28.82v1.12a1.68,1.68,0,0,1-3.35,0V28.82a6.15,6.15,0,0,1,6.14-6.13h7.81a6.15,6.15,0,0,1,6.14,6.13v1.12A1.68,1.68,0,0,1,25.1,31.61Z"/><path class="cls-1" d="M45.18,13.76H32.91a1.67,1.67,0,1,1,0-3.34H45.18a1.67,1.67,0,1,1,0,3.34Z"/><path class="cls-1" d="M45.18,22.69H32.91a1.68,1.68,0,0,1,0-3.35H45.18a1.68,1.68,0,1,1,0,3.35Z"/><path class="cls-1" d="M45.18,31.61H32.91a1.67,1.67,0,0,1,0-3.34H45.18a1.67,1.67,0,1,1,0,3.34Z"/></g></g></svg>