<svg xmlns="http://www.w3.org/2000/svg" viewBox="0 0 60.08 52.81"><title>pictoRecurso 142picto</title><g id="Capa_2" data-name="Capa 2"><g id="Capa_1-2" data-name="Capa 1"><style>.cls-1{fill: #fff; stroke: #fff;}</style><path class="cls-1" d="M19.36,35.2H51.28A1.75,1.75,0,0,0,53,33.93L60,9.28a1.73,1.73,0,0,0-.28-1.54A1.79,1.79,0,0,0,58.32,7h-43L14,1.38A1.76,1.76,0,0,0,12.32,0H1.76a1.76,1.76,0,0,0,0,3.52h9.15c.22,1,6,27.1,6.35,28.6a5.28,5.28,0,0,0,2.1,10.13H51.28a1.77,1.77,0,0,0,0-3.53H19.36a1.76,1.76,0,0,1,0-3.52ZM56,10.56,50,31.68H20.77L16.08,10.56Z"/><path class="cls-1" d="M17.6,47.53a5.28,5.28,0,1,0,5.28-5.28A5.29,5.29,0,0,0,17.6,47.53Zm5.28-1.76a1.76,1.76,0,1,1-1.76,1.76A1.76,1.76,0,0,1,22.88,45.77Z"/><path class="cls-1" d="M42.48,47.53a5.28,5.28,0,1,0,5.28-5.28A5.29,5.29,0,0,0,42.48,47.53Zm5.28-1.76A1.76,1.76,0,1,1,46,47.53,1.76,1.76,0,0,1,47.76,45.77Z"/></g></g></svg>