<svg xmlns="http://www.w3.org/2000/svg" viewBox="0 0 60.77 53.06"><defs><style>.cls-1{fill:#3a3a41;}</style></defs><title>pictoRecurso 114picto</title><g id="Capa_2" data-name="Capa 2"><g id="Capa_1-2" data-name="Capa 1"><path class="cls-1" d="M43.18,28.9H34.92A4.1,4.1,0,0,0,30.82,33v6.34a4.1,4.1,0,0,0,4.1,4.09h8.26a4.09,4.09,0,0,0,4.09-4.09V33A4.09,4.09,0,0,0,43.18,28.9Zm1.11,10.43a1.11,1.11,0,0,1-1.11,1.11H34.92a1.12,1.12,0,0,1-1.12-1.11V33a1.12,1.12,0,0,1,1.12-1.11h8.26A1.11,1.11,0,0,1,44.29,33Z"/><path class="cls-1" d="M60.77,17.38a1.36,1.36,0,0,0-.2-.73L51.53.76A1.49,1.49,0,0,0,50.24,0H10.52A1.47,1.47,0,0,0,9.23.76L.2,16.65a1.46,1.46,0,0,0-.2.73,8.73,8.73,0,0,0,5.22,8V51.57a1.49,1.49,0,0,0,1.49,1.49H54.05a1.49,1.49,0,0,0,1.49-1.49v-26a.81.81,0,0,0,0-.16A8.74,8.74,0,0,0,60.77,17.38ZM11.39,3h38l7.07,12.43H4.33Zm31.86,15.4a5.72,5.72,0,0,1-11.27,0Zm-14.44,0a5.74,5.74,0,0,1-11.29,0Zm-25.73,0H14.37a5.74,5.74,0,0,1-11.29,0ZM25,50.08H16.47V34a2.11,2.11,0,0,1,2.12-2.12h4.33A2.12,2.12,0,0,1,25.05,34V50.08Zm27.53,0H28V34a5.1,5.1,0,0,0-5.1-5.1H18.58A5.11,5.11,0,0,0,13.47,34V50.09H8.2v-24h.52a8.7,8.7,0,0,0,7.22-3.85,8.71,8.71,0,0,0,14.46,0,8.69,8.69,0,0,0,14.43,0,8.7,8.7,0,0,0,7.23,3.85h.5v24Zm-.5-27a5.72,5.72,0,0,1-5.64-4.72H57.71A5.77,5.77,0,0,1,52.06,23.12Z"/></g></g></svg>