<svg version="1.1" id="Capa_1" xmlns="http://www.w3.org/2000/svg" xmlns:xlink="http://www.w3.org/1999/xlink" x="0px" y="0px" width="28.886px" height="32.408px" viewBox="0 0 28.886 32.408" enable-background="new 0 0 28.886 32.408" xml:space="preserve"> <rect x="9.864" y="14.795" fill="#3A3A41" width="1.408" height="10.568"/> <rect x="13.386" y="14.795" fill="#3A3A41" width="1.408" height="10.568"/> <rect x="16.909" y="14.795" fill="#3A3A41" width="1.408" height="10.568"/> <g> <defs> <rect id="SVGID_1_" width="28.885" height="32.408"/> </defs> <clipPath id="SVGID_2_"> <use xlink:href="#SVGID_1_"  overflow="visible"/> </clipPath> <path clip-path="url(#SVGID_2_)" fill="#3A3A41" d="M17.64,5.081l-1.37-0.324c0.199-0.848,0.503-1.562,1.328-2.296l0.937,1.053 C17.974,4.012,17.793,4.433,17.64,5.081"/> <path clip-path="url(#SVGID_2_)" fill="#3A3A41" d="M5.919,6.905C5.428,6.535,4.842,6.34,4.227,6.34V4.931 c0.924,0,1.803,0.293,2.54,0.847L5.919,6.905z"/> <path clip-path="url(#SVGID_2_)" fill="#3A3A41" d="M22.133,32.408H4.64l-0.898-0.897c-0.644-0.645-0.803-1.624-0.396-2.439 l0.881-1.761v-4.15c-1.214-0.313-2.114-1.418-2.114-2.729V13.93C0.765,13.066,0,11.607,0,9.863c0-2.268,1.435-4.186,3.492-4.785 C3.471,3.646,3.869,2.473,4.68,1.586C6.056,0.079,8.057,0,8.457,0h0.005c1.364,0.001,2.656,0.57,3.579,1.55 c0.812-0.55,1.767-0.846,2.754-0.846c1.319,0,2.563,0.52,3.484,1.444c2.719-1.022,4.887,0.359,5.599,1.759 c0.599,1.178,0.652,2.747,0.146,4.196c-0.333,0.956-0.859,1.718-1.479,2.16v1.714h3.522c1.554,0,2.818,1.264,2.818,2.818v4.931 c0,1.506-0.586,2.921-1.651,3.985l-2.405,2.406c-0.417,0.416-0.991,0.653-1.58,0.653h-0.704v0.539l0.881,1.761 c0.406,0.815,0.248,1.797-0.397,2.44L22.133,32.408z M5.224,31h16.325l0.482-0.485c0.216-0.215,0.27-0.541,0.133-0.813 l-1.027-2.059v-2.279h2.112c0.219,0,0.432-0.089,0.586-0.242l2.403-2.405c0.798-0.799,1.239-1.86,1.239-2.989v-4.931 c0-0.777-0.633-1.409-1.41-1.409h-4.931v-2.819H10.567c-1.553,0-2.818,1.265-2.818,2.819v7.045c0,1.311-0.899,2.415-2.114,2.729 v4.482l-1.029,2.06c-0.136,0.271-0.083,0.598,0.132,0.813L5.224,31z M8.457,1.408c-0.187,0-1.738,0.034-2.736,1.127 C5.074,3.244,4.808,4.264,4.929,5.57l0.061,0.663L4.332,6.332C2.639,6.588,1.41,8.072,1.41,9.863c0,1.378,0.615,2.456,1.733,3.036 l0.379,0.197v7.335c0,0.776,0.633,1.409,1.41,1.409c0.776,0,1.409-0.633,1.409-1.409v-7.045c0-2.332,1.896-4.227,4.227-4.227 h11.098c0.396-0.248,0.783-0.814,1.029-1.52c0.382-1.094,0.355-2.252-0.073-3.093c-0.391-0.768-1.938-2-4.228-0.916l-0.503,0.238 l-0.35-0.434c-0.674-0.839-1.675-1.322-2.746-1.322c-0.883,0-1.73,0.333-2.385,0.938l-0.596,0.549l-0.461-0.667 c-0.659-0.953-1.74-1.522-2.893-1.524H8.457z"/> <rect x="6.34" y="28.183" clip-path="url(#SVGID_2_)" fill="#3A3A41" width="14.091" height="1.407"/> <path clip-path="url(#SVGID_2_)" fill="#3A3A41" d="M22.836,23.954h-1.699v-9.158h3.521c0.777,0,1.408,0.632,1.408,1.408v3.644 c0,0.564-0.218,1.096-0.618,1.494L22.836,23.954z M22.544,16.204v6.049l1.908-1.907c0.131-0.131,0.206-0.313,0.206-0.498v-3.644 H22.544z"/> </g> </svg>