<svg xmlns="http://www.w3.org/2000/svg" viewBox="0 0 44.68 53.98"><defs><style>.cls-1{fill:#3a3a41;}</style></defs><title>pictobagpicto</title><g id="Capa_2" data-name="Capa 2"><g id="Capa_1-2" data-name="Capa 1"><path class="cls-1" d="M44.65,51.72,41.36,15.14a1.93,1.93,0,0,0-1.92-1.76H32.66V10.33a10.33,10.33,0,1,0-20.65,0v3.05H5.23a1.93,1.93,0,0,0-1.92,1.76L0,51.87A1.94,1.94,0,0,0,1.94,54h40.8A1.94,1.94,0,0,0,44.68,52,1.73,1.73,0,0,0,44.65,51.72ZM15.89,10.33a6.45,6.45,0,1,1,12.9,0v3.05H15.89ZM4.06,50.1,7,17.26h5v3.46a1.94,1.94,0,0,0,3.88,0V17.26h12.9v3.46a1.94,1.94,0,1,0,3.87,0V17.26h5l3,32.84Z"/></g></g></svg>