<svg xmlns="http://www.w3.org/2000/svg" viewBox="0 0 60.29 48.34"><title>pictoRecurso 120picto</title><g id="Capa_2" data-name="Capa 2"><g id="Capa_1-2" data-name="Capa 1"><path d="M43.84,0H3.4A3.4,3.4,0,0,0,0,3.4V27.66a3.4,3.4,0,0,0,3.4,3.4H6v9A1.41,1.41,0,0,0,6.9,41.4a1.27,1.27,0,0,0,.54.11,1.42,1.42,0,0,0,1-.42l10-10h2a1.43,1.43,0,0,0,0-2.85H17.8a1.37,1.37,0,0,0-.91.41l-8,8V29.51a1.43,1.43,0,0,0-1.42-1.3h-4a.56.56,0,0,1-.56-.55V3.4a.56.56,0,0,1,.56-.56H43.84a.56.56,0,0,1,.55.56v9.3a1.43,1.43,0,1,0,2.85,0V3.4A3.4,3.4,0,0,0,43.84,0Z"/><path d="M56.9,17.4H28.59a3.4,3.4,0,0,0-3.4,3.39V37.35a3.4,3.4,0,0,0,3.4,3.39H46.31l7.18,7.18a1.42,1.42,0,0,0,2.43-1V40.74h1a3.39,3.39,0,0,0,3.39-3.39V20.79A3.39,3.39,0,0,0,56.9,17.4Zm.55,20a.55.55,0,0,1-.55.55H54.5a1.42,1.42,0,0,0-1.42,1.31v4.27l-5.17-5.16,0,0,0,0a1.42,1.42,0,0,0-.94-.35H28.59a.55.55,0,0,1-.55-.55V20.79a.55.55,0,0,1,.55-.55H56.9a.55.55,0,0,1,.55.55Z"/></g></g></svg>