<svg xmlns="http://www.w3.org/2000/svg" viewBox="0 0 58.03 58.03"><defs><style>.cls-1,.cls-2{fill:#3a3a41;}.cls-2{stroke:#3a3a41;stroke-miterlimit:10;stroke-width:1.81px;}</style></defs><title>pictocheckpicto</title><g id="Capa_2" data-name="Capa 2"><g id="Capa_1-2" data-name="Capa 1"><g id="_8" data-name="8"><path class="cls-1" d="M29,58A29,29,0,1,0,0,29,29,29,0,0,0,29,58Zm0-54.4A25.39,25.39,0,1,1,3.63,29,25.38,25.38,0,0,1,29,3.63Z"/></g><path class="cls-2" d="M42.89,18.37,25.35,38.1,14.79,29.65a1.14,1.14,0,0,0-1.42,1.78l11.4,9.13a1.21,1.21,0,0,0,.72.25,1.12,1.12,0,0,0,.85-.39L44.59,19.89a1.14,1.14,0,0,0-1.7-1.52Z"/></g></g></svg>