<svg xmlns="http://www.w3.org/2000/svg" viewBox="0 0 53.95 53.95"><defs><style>.cls-1{fill:#3a3a41;stroke:#3a3a41;stroke-miterlimit:10;stroke-width:0.46px;}</style></defs><title>pictoRecurso 111picto</title><g id="Capa_2" data-name="Capa 2"><g id="Capa_1-2" data-name="Capa 1"><path class="cls-1" d="M14.82,25.76a1.22,1.22,0,0,0-2.43,0c0,3.19,3.52,7.58,3.92,8.07a1.22,1.22,0,1,0,1.88-1.55C16.89,30.69,14.82,27.52,14.82,25.76Z"/><path class="cls-1" d="M40.35,24.55a1.22,1.22,0,0,0-1.22,1.21c0,1.75-2.06,4.93-3.37,6.52A1.23,1.23,0,0,0,35.93,34a1.25,1.25,0,0,0,.77.27,1.22,1.22,0,0,0,.94-.44c.4-.49,3.92-4.88,3.92-8.07A1.21,1.21,0,0,0,40.35,24.55Z"/><path class="cls-1" d="M27,24.55a1.21,1.21,0,0,0-1.22,1.21v7.29a1.22,1.22,0,1,0,2.43,0V25.76A1.21,1.21,0,0,0,27,24.55Z"/><path class="cls-1" d="M40.35,5.09A12.63,12.63,0,0,0,38,5.34a14.53,14.53,0,0,0-22.13,0,12.63,12.63,0,0,0-2.31-.25,13.37,13.37,0,0,0-6,25.29l0,18.38a5,5,0,0,0,5,5h29a5,5,0,0,0,5-5V30.37A13.37,13.37,0,0,0,40.35,5.09ZM44,48.76a2.53,2.53,0,0,1-2.53,2.53h-29A2.53,2.53,0,0,1,10,48.76V44H44Zm.75-20.29a.77.77,0,0,0-.18.1,1.19,1.19,0,0,0-.38.36,1.37,1.37,0,0,0-.18.49.74.74,0,0,0,0,.21V41.56H10l0-11.92c0-.06,0-.13,0-.2a1.28,1.28,0,0,0-.2-.5,1.1,1.1,0,0,0-.36-.35l-.19-.1a10.93,10.93,0,0,1,4.37-21c.24,0,.49,0,.73,0a14.49,14.49,0,0,0-1.94,7.25,1.22,1.22,0,1,0,2.43,0,12.16,12.16,0,1,1,24.31,0,1.22,1.22,0,1,0,2.43,0,14.49,14.49,0,0,0-1.94-7.25c.24,0,.49,0,.73,0a10.93,10.93,0,0,1,4.4,20.94Z"/></g></g></svg>