<svg xmlns="http://www.w3.org/2000/svg" viewBox="0 0 56.08 56.08"><defs><style>.cls-1{fill:#3a3a41;}</style></defs><title>pictoRecurso 106picto</title><g id="Capa_2" data-name="Capa 2"><g id="Capa_1-2" data-name="Capa 1"><g id="_2" data-name="2"><path class="cls-1" d="M28,0C12.56,0,0,11,0,24.54c0,7.74,4.11,14.63,10.52,19.13V56.08L22.8,48.63a32.22,32.22,0,0,0,5.24.44c15.49,0,28-11,28-24.53S43.53,0,28,0Zm0,45.57a28,28,0,0,1-5.92-.65l-8.25,5L14,41.75C7.65,38,3.51,31.66,3.51,24.54c0-11.62,11-21,24.53-21s24.54,9.41,24.54,21S41.59,45.57,28,45.57Z"/></g></g></g></svg>