<svg xmlns="http://www.w3.org/2000/svg" viewBox="0 0 47.04 47.04"><defs><style>.cls-1{fill:#3a3a41;}</style></defs><title>pictoRecurso 124picto</title><g id="Capa_2" data-name="Capa 2"><g id="Capa_1-2" data-name="Capa 1"><path class="cls-1" d="M23.52,0A23.52,23.52,0,1,0,47,23.52,23.55,23.55,0,0,0,23.52,0Zm0,44A20.46,20.46,0,1,1,44,23.52,20.48,20.48,0,0,1,23.52,44Z"/><path class="cls-1" d="M33.12,27.36a1.54,1.54,0,0,0-2.12.46,8,8,0,1,1-.11-8.76,1.53,1.53,0,1,0,2.54-1.72,11.05,11.05,0,1,0,.15,12.13A1.52,1.52,0,0,0,33.12,27.36Z"/></g></g></svg>