<svg xmlns="http://www.w3.org/2000/svg" viewBox="0 0 55.65 49.51"><defs><style>.cls-1{fill:#3a3a41;}</style></defs><title>pictoRecurso 107picto</title><g id="Capa_2" data-name="Capa 2"><g id="Capa_1-2" data-name="Capa 1"><path class="cls-1" d="M27.83,49.51a3.25,3.25,0,0,1-2.15-.8c-2.25-2-4.42-3.82-6.33-5.45h0c-5.61-4.77-10.45-8.9-13.82-13C1.75,25.74,0,21.43,0,16.73A17.36,17.36,0,0,1,4.42,4.85,14.94,14.94,0,0,1,15.55,0a14,14,0,0,1,8.74,3,18,18,0,0,1,3.54,3.69A18,18,0,0,1,31.36,3a14,14,0,0,1,8.75-3A14.94,14.94,0,0,1,51.24,4.85a17.35,17.35,0,0,1,4.41,11.88c0,4.7-1.75,9-5.51,13.56-3.37,4.06-8.22,8.19-13.82,13-1.92,1.64-4.09,3.49-6.34,5.46A3.27,3.27,0,0,1,27.83,49.51ZM15.55,3.26a11.75,11.75,0,0,0-8.74,3.8,14.13,14.13,0,0,0-3.55,9.67c0,3.95,1.47,7.49,4.77,11.48,3.19,3.84,7.93,7.88,13.42,12.56h0c1.92,1.64,4.1,3.49,6.36,5.47,2.28-2,4.46-3.84,6.38-5.48,5.49-4.68,10.24-8.72,13.43-12.56,3.29-4,4.77-7.53,4.77-11.48a14.13,14.13,0,0,0-3.56-9.67,11.72,11.72,0,0,0-8.73-3.8A10.79,10.79,0,0,0,33.36,5.6,15.59,15.59,0,0,0,29.6,10a2.07,2.07,0,0,1-3.54,0A15.76,15.76,0,0,0,22.3,5.6,10.84,10.84,0,0,0,15.55,3.26Z"/></g></g></svg>