<svg xmlns="http://www.w3.org/2000/svg" viewBox="0 0 54.64 40.98"><title>pictoRecurso 117picto</title><g id="Capa_2" data-name="Capa 2"><g id="Capa_1-2" data-name="Capa 1"><path d="M49.52,0H5.12A5.13,5.13,0,0,0,0,5.12V35.86A5.13,5.13,0,0,0,5.12,41h44.4a5.13,5.13,0,0,0,5.12-5.12V5.12A5.13,5.13,0,0,0,49.52,0Zm0,3.41a1.58,1.58,0,0,1,.65.14L27.32,23.35,4.47,3.55a1.58,1.58,0,0,1,.65-.14Zm0,34.16H5.12a1.72,1.72,0,0,1-1.71-1.71V7.16L26.2,26.9a1.7,1.7,0,0,0,2.24,0L51.23,7.16v28.7A1.72,1.72,0,0,1,49.52,37.57Z"/></g></g></svg>