<svg xmlns="http://www.w3.org/2000/svg" viewBox="0 0 38.73 51.64"><defs><style>.cls-1{fill:#3a3a41;}</style></defs><title>pictodocpicto</title><g id="Capa_2" data-name="Capa 2"><g id="Capa_1-2" data-name="Capa 1"><path class="cls-1" d="M38.71,11.2a1.43,1.43,0,0,0-.09-.42.88.88,0,0,0,0-.15,1.75,1.75,0,0,0-.32-.48L28.57.47a1.75,1.75,0,0,0-.48-.32L28,.1A1.57,1.57,0,0,0,27.52,0s-.06,0-.09,0H4.84A4.84,4.84,0,0,0,0,4.84v42a4.85,4.85,0,0,0,4.84,4.85H33.89a4.85,4.85,0,0,0,4.84-4.85V11.3S38.71,11.23,38.71,11.2ZM33.22,9.68H29V5.51Zm.67,38.73h-29a1.61,1.61,0,0,1-1.61-1.62V4.84A1.61,1.61,0,0,1,4.84,3.23h21V9.68A3.23,3.23,0,0,0,29,12.91H35.5V46.79A1.61,1.61,0,0,1,33.89,48.41Z"/><path class="cls-1" d="M30.66,18H8.07a1.5,1.5,0,0,0-1.62,1.32,1.5,1.5,0,0,0,1.62,1.32H30.66a1.49,1.49,0,0,0,1.61-1.32A1.49,1.49,0,0,0,30.66,18Z"/><path class="cls-1" d="M30.66,27.31H8.07a1.5,1.5,0,0,0-1.62,1.32A1.5,1.5,0,0,0,8.07,30H30.66a1.49,1.49,0,0,0,1.61-1.32A1.49,1.49,0,0,0,30.66,27.31Z"/><path class="cls-1" d="M30.66,36.62H8.07a1.35,1.35,0,1,0,0,2.64H30.66a1.35,1.35,0,1,0,0-2.64Z"/></g></g></svg>