<svg xmlns="http://www.w3.org/2000/svg" viewBox="0 0 47.81 47.65"><defs><style>.cls-1{fill:#3a3a41;}</style></defs><title>pictoRecurso 116picto</title><g id="Capa_2" data-name="Capa 2"><g id="Capa_1-2" data-name="Capa 1"><path class="cls-1" d="M23.83,43.68H6a2,2,0,0,1-2-2V6A2,2,0,0,1,6,4H23.83a2,2,0,0,0,0-4H6A6,6,0,0,0,0,6V41.7a6,6,0,0,0,6,5.95H23.83a2,2,0,0,0,0-4Z"/><path class="cls-1" d="M47.22,22.41,35.15,10.5a2,2,0,1,0-2.79,2.83L41,21.84H17.87a2,2,0,1,0,0,4H41l-8.63,8.52a2,2,0,0,0,0,2.8,2,2,0,0,0,1.41.59,2,2,0,0,0,1.4-.57L47.22,25.24a2,2,0,0,0,.59-1.41A2,2,0,0,0,47.22,22.41Z"/></g></g></svg>