<svg xmlns="http://www.w3.org/2000/svg" viewBox="0 0 37.98 57.41"><defs><style>.cls-1{fill:#3a3a41;stroke:#3a3a41;stroke-miterlimit:10;stroke-width:0.46px;}</style></defs><title>pictofavpicto</title><g id="Capa_2" data-name="Capa 2"><g id="Capa_1-2" data-name="Capa 1"><path class="cls-1" d="M36.6.23H1.38A1.16,1.16,0,0,0,.23,1.38V56a1.16,1.16,0,0,0,.69,1.06,1.22,1.22,0,0,0,.46.09,1.16,1.16,0,0,0,.77-.3L19,41.55,35.83,56.88A1.14,1.14,0,0,0,37.74,56V1.38A1.15,1.15,0,0,0,36.6.23ZM19.76,39.16a1.13,1.13,0,0,0-1.55,0L2.53,53.44V2.53H35.45V53.44Z"/><path class="cls-1" d="M31.31,17.09a1.17,1.17,0,0,0-.66-.34L23.3,15.68,20,9.08a1.14,1.14,0,0,0-1.54-.51,1.12,1.12,0,0,0-.52.51l-3.28,6.66L7.29,16.81a1.14,1.14,0,0,0-1,1.3,1.2,1.2,0,0,0,.34.66L12,23.89l-1.22,7.37a1.15,1.15,0,0,0,1,1.32,1.13,1.13,0,0,0,.72-.12L19,29l6.57,3.44A1.15,1.15,0,0,0,27.14,32a1.2,1.2,0,0,0,.11-.72L26,23.89l5.31-5.18A1.14,1.14,0,0,0,31.31,17.09Zm-7.37,5.65a1.15,1.15,0,0,0-.34,1l1,5.6L19.52,26.7a1.19,1.19,0,0,0-1.07,0l-5,2.65,1-5.61a1.15,1.15,0,0,0-.33-1l-4.07-4,5.63-.89a1.11,1.11,0,0,0,.86-.63L19,12.14l2.52,5.1a1.14,1.14,0,0,0,.86.63l5.64.82Z"/></g></g></svg>