<svg xmlns="http://www.w3.org/2000/svg" viewBox="0 0 55.18 55.18"><defs><style>.cls-1{fill:#3a3a41;}</style></defs><title>pictogearpicto</title><g id="Capa_2" data-name="Capa 2"><g id="Capa_1-2" data-name="Capa 1"><path class="cls-1" d="M52.35,21.8l-3.87-.66a21.29,21.29,0,0,0-1.56-3.76l2.29-3.19a3.41,3.41,0,0,0-.37-4.39L45.4,6.36A3.4,3.4,0,0,0,41,6l-3.2,2.29a22.09,22.09,0,0,0-3.9-1.61l-.64-3.82A3.41,3.41,0,0,0,29.91,0H25.06a3.41,3.41,0,0,0-3.37,2.85L21,6.77a20.76,20.76,0,0,0-3.74,1.58L14.11,6.06a3.43,3.43,0,0,0-2-.63,3.38,3.38,0,0,0-2.41,1L6.27,9.87a3.4,3.4,0,0,0-.37,4.39L8.21,17.5a21.31,21.31,0,0,0-1.54,3.77l-3.82.64A3.41,3.41,0,0,0,0,25.28v4.85A3.41,3.41,0,0,0,2.85,33.5l3.92.66a20.85,20.85,0,0,0,1.58,3.75L6.07,41.07a3.42,3.42,0,0,0,.37,4.39l3.44,3.43a3.37,3.37,0,0,0,4.38.37L17.5,47a22.29,22.29,0,0,0,3.64,1.5l.64,3.87a3.41,3.41,0,0,0,3.37,2.85H30a3.41,3.41,0,0,0,3.37-2.85L34,48.46a22.46,22.46,0,0,0,3.75-1.56L41,49.18a3.34,3.34,0,0,0,2,.64h0a3.38,3.38,0,0,0,2.41-1l3.43-3.43A3.4,3.4,0,0,0,49.18,41L46.9,37.78A22.67,22.67,0,0,0,48.46,34l3.87-.65A3.41,3.41,0,0,0,55.18,30V25.16A3.36,3.36,0,0,0,52.35,21.8ZM52.09,30a.3.3,0,0,1-.26.3L47,31.12a1.53,1.53,0,0,0-1.24,1.14,18.42,18.42,0,0,1-2,4.83,1.57,1.57,0,0,0,.07,1.7l2.85,4a.31.31,0,0,1,0,.39l-3.43,3.43a.31.31,0,0,1-.22.1.29.29,0,0,1-.17-.06l-4-2.85a1.56,1.56,0,0,0-1.7-.07,18.42,18.42,0,0,1-4.83,2A1.52,1.52,0,0,0,31.13,47l-.82,4.84a.3.3,0,0,1-.3.26H25.16a.31.31,0,0,1-.3-.26L24.06,47a1.56,1.56,0,0,0-1.15-1.24,19.57,19.57,0,0,1-4.72-1.94,1.58,1.58,0,0,0-.79-.21,1.53,1.53,0,0,0-.89.29l-4,2.87a.29.29,0,0,1-.17.06.3.3,0,0,1-.22-.09L8.64,43.29a.31.31,0,0,1,0-.39l2.84-4a1.56,1.56,0,0,0,.06-1.7,18.39,18.39,0,0,1-2-4.82,1.59,1.59,0,0,0-1.25-1.14l-4.87-.83a.3.3,0,0,1-.26-.3V25.28a.3.3,0,0,1,.26-.3l4.8-.81A1.56,1.56,0,0,0,9.43,23a18,18,0,0,1,2-4.84,1.55,1.55,0,0,0-.08-1.69l-2.87-4a.32.32,0,0,1,0-.39l3.44-3.44a.29.29,0,0,1,.22-.09.25.25,0,0,1,.17.06l4,2.83a1.56,1.56,0,0,0,1.7.07,18.41,18.41,0,0,1,4.82-2A1.56,1.56,0,0,0,24,8.23l.83-4.88a.29.29,0,0,1,.3-.25h4.85a.29.29,0,0,1,.3.25L31,8.16a1.56,1.56,0,0,0,1.15,1.26,18.58,18.58,0,0,1,5,2,1.57,1.57,0,0,0,1.69-.07l4-2.86A.29.29,0,0,1,43,8.46a.3.3,0,0,1,.22.09L46.64,12a.31.31,0,0,1,0,.39l-2.85,4a1.57,1.57,0,0,0-.07,1.69,18.57,18.57,0,0,1,2,4.83A1.52,1.52,0,0,0,47,24l4.85.82a.31.31,0,0,1,.25.3V30Z"/><path class="cls-1" d="M27.59,15.68A11.91,11.91,0,1,0,39.5,27.58,11.9,11.9,0,0,0,27.59,15.68Zm0,20.7a8.8,8.8,0,1,1,8.8-8.8A8.8,8.8,0,0,1,27.59,36.38Z"/></g></g></svg>