<svg version="1.1" id="Capa_1" xmlns="http://www.w3.org/2000/svg" xmlns:xlink="http://www.w3.org/1999/xlink" x="0px" y="0px" width="32.485px" height="30.196px" viewBox="0 0 32.485 30.196" enable-background="new 0 0 32.485 30.196" xml:space="preserve"> <g> <defs> <rect id="SVGID_1_" y="0" width="32.486" height="30.196"/> </defs> <clipPath id="SVGID_2_"> <use xlink:href="#SVGID_1_"  overflow="visible"/> </clipPath> <path clip-path="url(#SVGID_2_)" fill="#3A3A41" d="M0.898,20.047c0.647,2.171,2.092,5.204,5.307,7.336 c2.573,1.705,5.851,2.563,9.772,2.563c1.024,0,2.092-0.058,3.205-0.176c2.471-0.261,4.755-1.319,6.429-2.98 c1.739-1.724,2.696-3.997,2.696-6.398c0-2.199-0.791-4.325-2.228-5.987c-0.867-1.003-0.986-2.425-0.299-3.537 c0.105-0.17,0.201-0.345,0.29-0.522c2.157-0.192,3.848-0.909,5.025-2.136c0.461-0.48,1.484-1.677,1.023-2.417 c-0.32-0.515-0.992-0.387-1.844-0.226c-0.861,0.164-2.042,0.389-3.255,0.058c-0.14-0.038-0.278-0.083-0.418-0.136 c-0.315-1.245-0.972-2.38-1.926-3.297c-1.379-1.324-3.193-2.013-5.109-1.935c-3.587,0.143-6.519,3.066-6.67,6.654 c-0.077,1.803,0.535,3.541,1.72,4.893c0.005,0.006,0.014,0.016,0.007,0.037c-0.004,0.012-0.014,0.029-0.037,0.034 c-1.574,0.376-3.201,0.888-4.704,1.48c-2.196,0.865-4.76,0.355-6.53-1.299c-0.46-0.431-1.165-0.956-1.952-0.553 C0.236,12.1-0.234,16.242,0.898,20.047 M26.434,9.488c0.021-0.061,0.042-0.123,0.062-0.185c0.013-0.041,0.025-0.082,0.037-0.122 c0.012-0.041,0.024-0.083,0.034-0.124c0.015-0.049,0.027-0.098,0.039-0.147c0.009-0.031,0.016-0.062,0.023-0.094 c0.045-0.188,0.081-0.379,0.109-0.57c0.005-0.03,0.01-0.059,0.014-0.088c0.007-0.05,0.013-0.101,0.019-0.152 c0.003-0.041,0.008-0.082,0.013-0.124l0.012-0.133c0.004-0.053,0.007-0.107,0.01-0.16l0.006-0.105 c0.002-0.09,0.005-0.18,0.005-0.271c0-0.101-0.003-0.202-0.007-0.303c-0.001-0.033-0.003-0.065-0.005-0.098 c-0.005-0.083-0.011-0.166-0.019-0.249c-0.007-0.066-0.014-0.133-0.021-0.199c-0.001-0.006-0.001-0.011-0.002-0.016 c0.02,0.005,0.039,0.011,0.057,0.016c1.386,0.376,2.665,0.133,3.601-0.044c0.387-0.074,0.912-0.174,1.053-0.115 c0.041,0.165-0.291,0.809-0.929,1.474c-0.973,1.012-2.357,1.636-4.126,1.859C26.423,9.522,26.428,9.505,26.434,9.488 M1.751,12.184 c0.197-0.101,0.479-0.129,1.079,0.431c1.984,1.855,4.863,2.425,7.334,1.452c1.47-0.579,3.062-1.08,4.601-1.447 c0.282-0.067,0.502-0.272,0.59-0.548c0.086-0.271,0.026-0.561-0.162-0.775c-1.055-1.203-1.598-2.749-1.531-4.355 c0.136-3.192,2.744-5.793,5.937-5.921c0.086-0.003,0.172-0.004,0.256-0.004c1.611,0,3.125,0.607,4.291,1.727 c0.841,0.809,1.424,1.81,1.707,2.907l0.044,0.201c0.076,0.335,0.123,0.674,0.143,1.012c0.001,0.004,0.001,0.007,0.001,0.01 c0.006,0.113,0.01,0.226,0.01,0.339c0,0.099-0.004,0.198-0.008,0.297c-0.002,0.026-0.003,0.053-0.005,0.079 c-0.005,0.093-0.014,0.185-0.021,0.277c-0.004,0.028-0.008,0.057-0.011,0.086c-0.008,0.067-0.019,0.133-0.027,0.199 c-0.006,0.037-0.011,0.074-0.018,0.11c-0.015,0.083-0.029,0.166-0.047,0.248c-0.008,0.036-0.017,0.072-0.024,0.108 c-0.016,0.066-0.033,0.131-0.05,0.197c-0.007,0.027-0.014,0.054-0.022,0.081c-0.024,0.09-0.053,0.181-0.083,0.27 c-0.006,0.02-0.013,0.04-0.02,0.061c-0.069,0.199-0.148,0.395-0.237,0.588c-0.008,0.017-0.015,0.034-0.023,0.051l-0.018,0.039 c-0.093,0.191-0.194,0.378-0.307,0.559c-0.865,1.4-0.717,3.185,0.37,4.442c1.315,1.523,2.041,3.471,2.041,5.486 c0,4.476-3.549,8.1-8.439,8.616c-1.108,0.117-2.151,0.173-3.128,0.173c-9.969,0.001-13.257-5.717-14.34-9.353 C0.465,15.906,1.233,12.45,1.751,12.184"/> <path clip-path="url(#SVGID_2_)" fill="none" stroke="#3A3A41" stroke-width="0.5" stroke-miterlimit="10" d="M0.898,20.047 c0.647,2.171,2.092,5.204,5.307,7.336c2.573,1.705,5.851,2.563,9.772,2.563c1.024,0,2.092-0.058,3.205-0.176 c2.471-0.261,4.755-1.319,6.429-2.98c1.739-1.724,2.696-3.997,2.696-6.398c0-2.199-0.791-4.325-2.228-5.987 c-0.867-1.003-0.986-2.425-0.299-3.537c0.105-0.17,0.201-0.345,0.29-0.522c2.157-0.192,3.848-0.909,5.025-2.136 c0.461-0.48,1.484-1.677,1.023-2.417c-0.32-0.515-0.992-0.387-1.844-0.226c-0.861,0.164-2.042,0.389-3.255,0.058 c-0.14-0.038-0.278-0.083-0.418-0.136c-0.315-1.245-0.972-2.38-1.926-3.297c-1.379-1.324-3.193-2.013-5.109-1.935 c-3.587,0.143-6.519,3.066-6.67,6.654c-0.077,1.803,0.535,3.541,1.72,4.893c0.005,0.006,0.014,0.016,0.007,0.037 c-0.004,0.012-0.014,0.029-0.037,0.034c-1.574,0.376-3.201,0.888-4.704,1.48c-2.196,0.865-4.76,0.355-6.53-1.299 c-0.46-0.431-1.165-0.956-1.952-0.553C0.236,12.1-0.234,16.242,0.898,20.047z M26.434,9.488c0.021-0.061,0.042-0.123,0.062-0.185 c0.013-0.041,0.025-0.082,0.037-0.122c0.012-0.041,0.024-0.083,0.034-0.124c0.015-0.049,0.027-0.098,0.039-0.147 c0.009-0.031,0.016-0.062,0.023-0.094c0.045-0.188,0.081-0.379,0.109-0.57c0.005-0.03,0.01-0.059,0.014-0.088 c0.007-0.05,0.013-0.101,0.019-0.152c0.003-0.041,0.008-0.082,0.013-0.124l0.012-0.133c0.004-0.053,0.007-0.107,0.01-0.16 l0.006-0.105c0.002-0.09,0.005-0.18,0.005-0.271c0-0.101-0.003-0.202-0.007-0.303c-0.001-0.033-0.003-0.065-0.005-0.098 c-0.005-0.083-0.011-0.166-0.019-0.249c-0.007-0.066-0.014-0.133-0.021-0.199c-0.001-0.006-0.001-0.011-0.002-0.016 c0.02,0.005,0.039,0.011,0.057,0.016c1.386,0.376,2.665,0.133,3.601-0.044c0.387-0.074,0.912-0.174,1.053-0.115 c0.041,0.165-0.291,0.809-0.929,1.474c-0.973,1.012-2.357,1.636-4.126,1.859C26.423,9.522,26.428,9.505,26.434,9.488z M1.751,12.184c0.197-0.101,0.479-0.129,1.079,0.431c1.984,1.855,4.863,2.425,7.334,1.452c1.47-0.579,3.062-1.08,4.601-1.447 c0.282-0.067,0.502-0.272,0.59-0.548c0.086-0.271,0.026-0.561-0.162-0.775c-1.055-1.203-1.598-2.749-1.531-4.355 c0.136-3.192,2.744-5.793,5.937-5.921c0.086-0.003,0.172-0.004,0.256-0.004c1.611,0,3.125,0.607,4.291,1.727 c0.841,0.809,1.424,1.81,1.707,2.907l0.044,0.201c0.076,0.335,0.123,0.674,0.143,1.012c0.001,0.004,0.001,0.007,0.001,0.01 c0.006,0.113,0.01,0.226,0.01,0.339c0,0.099-0.004,0.198-0.008,0.297c-0.002,0.026-0.003,0.053-0.005,0.079 c-0.005,0.093-0.014,0.185-0.021,0.277c-0.004,0.028-0.008,0.057-0.011,0.086c-0.008,0.067-0.019,0.133-0.027,0.199 c-0.006,0.037-0.011,0.074-0.018,0.11c-0.015,0.083-0.029,0.166-0.047,0.248c-0.008,0.036-0.017,0.072-0.024,0.108 c-0.016,0.066-0.033,0.131-0.05,0.197c-0.007,0.027-0.014,0.054-0.022,0.081c-0.024,0.09-0.053,0.181-0.083,0.27 c-0.006,0.02-0.013,0.04-0.02,0.061c-0.069,0.199-0.148,0.395-0.237,0.588c-0.008,0.017-0.015,0.034-0.023,0.051l-0.018,0.039 c-0.093,0.191-0.194,0.378-0.307,0.559c-0.865,1.4-0.717,3.185,0.37,4.442c1.315,1.523,2.041,3.471,2.041,5.486 c0,4.476-3.549,8.1-8.439,8.616c-1.108,0.117-2.151,0.173-3.128,0.173c-9.969,0.001-13.257-5.717-14.34-9.353 C0.465,15.906,1.233,12.45,1.751,12.184z"/> <path clip-path="url(#SVGID_2_)" fill="#3A3A41" d="M8.588,16.702c-1.029,2.315-0.654,4.564,1.055,6.332 c1.205,1.247,2.987,2.17,5.017,2.596c0.792,0.167,1.581,0.25,2.345,0.25c1.195,0,2.33-0.202,3.317-0.602 c2.334-0.944,3.62-2.896,3.62-5.496c0-1.807-1.433-3.721-3.194-4.265c-1.515-0.468-2.787,0.176-4.135,0.858 c-1.375,0.697-2.798,1.417-4.684,1.08c-0.89-0.159-1.54-0.513-2.016-0.771c-0.427-0.233-0.709-0.387-1.001-0.288 C8.813,16.432,8.672,16.513,8.588,16.702 M9.217,17.184c0.096,0.045,0.223,0.113,0.332,0.174c0.491,0.267,1.234,0.672,2.247,0.853 c2.138,0.383,3.746-0.433,5.166-1.15c0.973-0.492,1.843-0.933,2.751-0.933c0.266,0,0.535,0.038,0.812,0.123 c1.587,0.491,2.653,2.224,2.653,3.533c0,2.905-1.707,4.206-3.141,4.785c-3.057,1.236-7.564,0.29-9.841-2.066 C9.171,21.444,8.188,19.671,9.217,17.184"/> <path clip-path="url(#SVGID_2_)" fill="none" stroke="#3A3A41" stroke-width="0.5" stroke-miterlimit="10" d="M8.588,16.702 c-1.029,2.315-0.654,4.564,1.055,6.332c1.205,1.247,2.987,2.17,5.017,2.596c0.792,0.167,1.581,0.25,2.345,0.25 c1.195,0,2.33-0.202,3.317-0.602c2.334-0.944,3.62-2.896,3.62-5.496c0-1.807-1.433-3.721-3.194-4.265 c-1.515-0.468-2.787,0.176-4.135,0.858c-1.375,0.697-2.798,1.417-4.684,1.08c-0.89-0.159-1.54-0.513-2.016-0.771 c-0.427-0.233-0.709-0.387-1.001-0.288C8.813,16.432,8.672,16.513,8.588,16.702z M9.217,17.184 c0.096,0.045,0.223,0.113,0.332,0.174c0.491,0.267,1.234,0.672,2.247,0.853c2.138,0.383,3.746-0.433,5.166-1.15 c0.973-0.492,1.843-0.933,2.751-0.933c0.266,0,0.535,0.038,0.812,0.123c1.587,0.491,2.653,2.224,2.653,3.533 c0,2.905-1.707,4.206-3.141,4.785c-3.057,1.236-7.564,0.29-9.841-2.066C9.171,21.444,8.188,19.671,9.217,17.184z"/> <path clip-path="url(#SVGID_2_)" fill="#3A3A41" d="M20.486,5.986c0,0.884,0.716,1.6,1.6,1.6c0.883,0,1.601-0.716,1.601-1.6 c0-0.884-0.718-1.6-1.601-1.6C21.202,4.387,20.486,5.103,20.486,5.986"/> </g> </svg>