<?xml version="1.0" encoding="utf-8"?>
<!-- Svg Vector Icons : http://www.onlinewebfonts.com/icon -->
<!DOCTYPE svg PUBLIC "-//W3C//DTD SVG 1.1//EN" "http://www.w3.org/Graphics/SVG/1.1/DTD/svg11.dtd">
<svg version="1.1" xmlns="http://www.w3.org/2000/svg" xmlns:xlink="http://www.w3.org/1999/xlink" x="0px" y="0px" viewBox="0 0 1000 1000" enable-background="new 0 0 1000 1000" xml:space="preserve">
<metadata> Svg Vector Icons : http://www.onlinewebfonts.com/icon </metadata>
<g><path d="M500,10C229.4,10,10,229.3,10,500c0,270.7,219.4,490,490,490s490-219.4,490-490C990,229.3,770.6,10,500,10z M500,945.5C254,945.5,54.5,746,54.5,500C54.5,253.9,254,54.5,500,54.5C746,54.5,945.5,254,945.5,500C945.5,746,746,945.5,500,945.5z"/><path d="M442.4,262.4c0,32.4,26.2,58.6,58.6,58.6c32.4,0,58.6-26.2,58.6-58.6c0-32.4-26.2-58.6-58.6-58.6C468.7,203.8,442.4,230,442.4,262.4z"/><path d="M540.8,399.2v-20.5v-18.6H423.6v39.1h39.1v332.3h-39.1v39.1h156.3v-39.1h-39.1V399.2z"/></g>
</svg>