<svg xmlns="http://www.w3.org/2000/svg" viewBox="0 0 45.21 45.21"><title>pictoRecurso 132picto</title><g id="Capa_2" data-name="Capa 2"><g id="Capa_1-2" data-name="Capa 1"><path d="M21.91,30.3a2.37,2.37,0,1,0,2.37,2.37A2.39,2.39,0,0,0,21.91,30.3Z"/><path d="M22.31,12.36c-4.15,0-6.06,2.46-6.06,4.13a1.76,1.76,0,0,0,1.84,1.75c1.67,0,1-2.37,4.13-2.37,1.54,0,2.77.68,2.77,2.09,0,1.66-1.72,2.62-2.74,3.48a5.64,5.64,0,0,0-2.06,4.68c0,1.6.43,2.06,1.69,2.06,1.51,0,1.82-.68,1.82-1.26,0-1.6,0-2.52,1.72-3.85.83-.64,3.45-2.74,3.45-5.63S26.25,12.36,22.31,12.36Z"/><path d="M22.6,0A22.59,22.59,0,0,0,0,22.6V43.44a1.77,1.77,0,0,0,1.77,1.77H22.6A22.61,22.61,0,1,0,22.6,0Zm0,41.67H3.53V22.6A19.07,19.07,0,1,1,22.6,41.67Z"/></g></g></svg>