<svg xmlns="http://www.w3.org/2000/svg" viewBox="0 0 58.03 58.03"><defs><style>.cls-1,.cls-2{fill:#3a3a41;}.cls-1{stroke:#3a3a41;stroke-miterlimit:10;stroke-width:1.75px;}</style></defs><title>pictoRecurso 130picto</title><g id="Capa_2" data-name="Capa 2"><g id="Capa_1-2" data-name="Capa 1"><path class="cls-1" d="M20.73,28.31,35.48,13.56a.93.93,0,1,0-1.31-1.31L18.77,27.66a.9.9,0,0,0,0,1.3l15.4,15.4a.92.92,0,0,0,.65.27.88.88,0,0,0,.65-.27.93.93,0,0,0,0-1.31Z"/><g id="_8" data-name="8"><path class="cls-2" d="M29,58A29,29,0,1,0,0,29,29,29,0,0,0,29,58Zm0-54.4A25.39,25.39,0,1,1,3.63,29,25.38,25.38,0,0,1,29,3.63Z"/></g></g></g></svg>