<?xml version="1.0" encoding="utf-8"?>
<!-- Generator: Adobe Illustrator 16.0.3, SVG Export Plug-In . SVG Version: 6.00 Build 0)  -->
<!DOCTYPE svg PUBLIC "-//W3C//DTD SVG 1.1//EN" "http://www.w3.org/Graphics/SVG/1.1/DTD/svg11.dtd">
<svg version="1.1" id="Capa_1" xmlns="http://www.w3.org/2000/svg" xmlns:xlink="http://www.w3.org/1999/xlink" x="0px" y="0px"
	 width="30px" height="26.69px" viewBox="0 0 30 26.69" enable-background="new 0 0 30 26.69" xml:space="preserve">
<g>
	<defs>
		<rect id="SVGID_1_" y="0" width="30" height="26.69"/>
	</defs>
	<clipPath id="SVGID_2_">
		<use xlink:href="#SVGID_1_"  overflow="visible"/>
	</clipPath>
	<path clip-path="url(#SVGID_2_)" fill="#DD5A31" d="M15,26.69c-0.428,0-0.839-0.154-1.16-0.437c-1.212-1.06-2.38-2.056-3.411-2.934
		l-0.005-0.005c-3.023-2.574-5.633-4.8-7.448-6.989C0.945,13.875,0,11.553,0,9.016c0-2.465,0.845-4.739,2.38-6.404
		C3.933,0.928,6.063,0,8.381,0c1.731,0,3.317,0.546,4.713,1.627c0.705,0.544,1.344,1.211,1.906,1.99
		c0.563-0.779,1.201-1.446,1.905-1.99C18.303,0.547,19.889,0,21.619,0c2.317,0,4.448,0.927,6.001,2.611
		C29.154,4.277,30,6.551,30,9.016c0,2.537-0.944,4.86-2.976,7.31c-1.816,2.19-4.425,4.416-7.447,6.99
		c-1.033,0.88-2.203,1.877-3.418,2.939C15.839,26.536,15.428,26.69,15,26.69"/>
</g>
</svg>
