<svg xmlns="http://www.w3.org/2000/svg" viewBox="0 0 47.11 47.11"><defs><style>.cls-1,.cls-2{fill:#3a3a41;}.cls-2{stroke:#3a3a41;stroke-miterlimit:10;stroke-width:0.93px;}</style></defs><title>pictolinkpicto</title><g id="Capa_2" data-name="Capa 2"><g id="Capa_1-2" data-name="Capa 1"><path class="cls-1" d="M23.55,0A23.54,23.54,0,0,0,0,23.55V45.27a1.84,1.84,0,0,0,1.84,1.84H23.55A23.56,23.56,0,1,0,23.55,0Zm0,43.43H3.68V23.55A19.88,19.88,0,1,1,23.55,43.43Z"/><path class="cls-2" d="M17.64,31.94l-1.91,1.65a3,3,0,0,1-4.2-.3L11.25,33a3,3,0,0,1,.3-4.2l8.54-7.39a3,3,0,0,1,4.2.31l.28.33a3,3,0,0,1-.3,4.19l-.76.66a.89.89,0,0,0-.09,1.25.9.9,0,0,0,1.26.09l.75-.65a4.77,4.77,0,0,0,.49-6.71l-.29-.32a4.75,4.75,0,0,0-6.7-.49l-8.54,7.38a4.77,4.77,0,0,0-.49,6.71l.29.33a4.7,4.7,0,0,0,3.25,1.63A5.11,5.11,0,0,0,14.68,36a4.73,4.73,0,0,0,2.21-1.08l1.91-1.65a.89.89,0,1,0-1.16-1.34Z"/><path class="cls-2" d="M36.14,17.4l-.28-.33a4.77,4.77,0,0,0-6.71-.49l-1.9,1.65a.9.9,0,0,0-.09,1.26.89.89,0,0,0,1.25.09l1.91-1.65a3,3,0,0,1,2.16-.72,3,3,0,0,1,2,1l.28.33a3,3,0,0,1-.31,4.2L26,30.14a3,3,0,0,1-4.19-.3l-.29-.33a3,3,0,0,1-.72-2.16,3,3,0,0,1,1-2l.75-.65a.89.89,0,0,0,.09-1.25.88.88,0,0,0-1.25-.09l-.76.65a4.75,4.75,0,0,0-.48,6.7l.28.33a4.76,4.76,0,0,0,6.71.49l8.54-7.39a4.74,4.74,0,0,0,.48-6.7Z"/></g></g></svg>