<svg xmlns="http://www.w3.org/2000/svg" viewBox="0 0 49.19 62.61"><title>pictoRecurso 119picto</title><g id="Capa_2" data-name="Capa 2"><g id="Capa_1-2" data-name="Capa 1"><path d="M42.93,8.2H37.27V5.67c0-.82-.9-1.19-1.72-1.19h-4.4A6.67,6.67,0,0,0,24.52,0a6.78,6.78,0,0,0-6.63,4.48H13.57c-.82,0-1.64.37-1.64,1.19V8.2H6.26a6.34,6.34,0,0,0-6.26,6V57c0,3.28,3,5.66,6.26,5.66H42.93c3.28,0,6.26-2.38,6.26-5.66V14.24A6.34,6.34,0,0,0,42.93,8.2Zm-28-.74H19a1.63,1.63,0,0,0,1.41-1.34,4.32,4.32,0,0,1,4.1-3.36,4.26,4.26,0,0,1,4,3.36A1.64,1.64,0,0,0,30,7.46h4.25v6H14.91ZM46.21,57c0,1.64-1.64,2.68-3.28,2.68H6.26C4.62,59.63,3,58.59,3,57V14.24a3.36,3.36,0,0,1,3.28-3.06h5.67V15a1.55,1.55,0,0,0,1.63,1.41h22A1.65,1.65,0,0,0,37.27,15V11.18h5.66a3.36,3.36,0,0,1,3.28,3.06V57Z"/><path d="M18.86,33.32a1.49,1.49,0,0,0-2.09-.07L12,37.79l-2-2.08a1.49,1.49,0,0,0-2.09-.08,1.56,1.56,0,0,0,0,2.16L11,40.92a1.32,1.32,0,0,0,1,.45,1.5,1.5,0,0,0,1-.45l5.82-5.51a1.42,1.42,0,0,0,.08-2Z"/><path d="M40.25,36.53H23.11a1.49,1.49,0,1,0,0,3H40.25a1.49,1.49,0,1,0,0-3Z"/><path d="M18.86,21.4a1.49,1.49,0,0,0-2.09-.08L12,25.87l-2-2.09a1.49,1.49,0,0,0-2.09-.07,1.56,1.56,0,0,0,0,2.16L11,29a1.36,1.36,0,0,0,1,.45A1.5,1.5,0,0,0,13,29l5.82-5.52a1.42,1.42,0,0,0,.08-2A.3.3,0,0,0,18.86,21.4Z"/><path d="M40.25,24.6H23.11a1.49,1.49,0,1,0,0,3H40.25a1.49,1.49,0,1,0,0-3Z"/><path d="M18.86,45.25a1.49,1.49,0,0,0-2.09-.08L12,49.72l-2-2.09a1.49,1.49,0,0,0-2.09-.07,1.56,1.56,0,0,0,0,2.16L11,52.85a1.36,1.36,0,0,0,1,.45,1.5,1.5,0,0,0,1-.45l5.82-5.52a1.42,1.42,0,0,0,.08-2A.3.3,0,0,0,18.86,45.25Z"/><path d="M40.25,48.45H23.11a1.49,1.49,0,1,0,0,3H40.25a1.49,1.49,0,1,0,0-3Z"/></g></g></svg>