<svg xmlns="http://www.w3.org/2000/svg" viewBox="0 0 37.1 52.77"><title>pictoRecurso 144picto</title><g id="Capa_2" data-name="Capa 2"><g id="Capa_1-2" data-name="Capa 1"><path d="M18.55,0A18.56,18.56,0,0,0,2.77,28.31L17.5,52a1.54,1.54,0,0,0,1.31.73h0A1.58,1.58,0,0,0,20.14,52l14.35-24A18.57,18.57,0,0,0,18.55,0ZM31.83,26.47l-13,21.78L5.4,26.68a15.47,15.47,0,1,1,26.43-.21Z"/><path d="M18.55,9.28a9.28,9.28,0,1,0,9.28,9.27A9.28,9.28,0,0,0,18.55,9.28Zm0,15.48a6.21,6.21,0,1,1,6.2-6.21A6.21,6.21,0,0,1,18.55,24.76Z"/></g></g></svg>