<svg version="1.1" id="Capa_1" xmlns="http://www.w3.org/2000/svg" xmlns:xlink="http://www.w3.org/1999/xlink" x="0px" y="0px" width="39.777px" height="39.776px" viewBox="0 0 39.777 39.776" enable-background="new 0 0 39.777 39.776" xml:space="preserve"> <g> <path fill="#EBE9B3" d="M19.888,5.479c1.514,0,2.739-1.228,2.739-2.739c0-1.514-1.225-2.74-2.739-2.74 c-1.513,0-2.738,1.226-2.738,2.74C17.15,4.251,18.375,5.479,19.888,5.479"/> <path fill="#4D4D4D" d="M19.888,22.628c1.514,0,2.739-1.228,2.739-2.739c0-1.514-1.225-2.74-2.739-2.74 c-1.513,0-2.738,1.226-2.738,2.74C17.15,21.4,18.375,22.628,19.888,22.628"/> <path fill="#EBE9B3" d="M19.888,39.776c1.514,0,2.739-1.227,2.739-2.738c0-1.514-1.225-2.741-2.739-2.741 c-1.513,0-2.738,1.227-2.738,2.741C17.15,38.549,18.375,39.776,19.888,39.776"/> <path fill="#4D4D4D" d="M19.888,5.479c1.514,0,2.739-1.228,2.739-2.739c0-1.514-1.225-2.74-2.739-2.74 c-1.513,0-2.738,1.226-2.738,2.74C17.15,4.251,18.375,5.479,19.888,5.479"/> <path fill="#4D4D4D" d="M5.479,19.888c0-1.513-1.227-2.739-2.739-2.739c-1.513,0-2.74,1.226-2.74,2.739s1.227,2.739,2.74,2.739 C4.252,22.627,5.479,21.401,5.479,19.888"/><path fill="#4D4D4D" d="M19.888,39.776c1.514,0,2.739-1.227,2.739-2.738c0-1.514-1.225-2.741-2.739-2.741 c-1.513,0-2.738,1.227-2.738,2.741C17.15,38.549,18.375,39.776,19.888,39.776"/> <path fill="#4D4D4D" d="M39.777,19.888c0-1.513-1.227-2.739-2.739-2.739s-2.739,1.226-2.739,2.739s1.227,2.739,2.739,2.739 S39.777,21.401,39.777,19.888"/></g></svg>