<svg xmlns="http://www.w3.org/2000/svg" viewBox="0 0 54.35 48.47"><defs><style>.cls-1{fill:#3a3a41;stroke:#3a3a41;stroke-miterlimit:10;stroke-width:0.46px;}</style></defs><title>pictopcpicto</title><g id="Capa_2" data-name="Capa 2"><g id="Capa_1-2" data-name="Capa 1"><path class="cls-1" d="M50.86.23H3.48A3.26,3.26,0,0,0,.23,3.48V36.2a3.26,3.26,0,0,0,3.25,3.25H19.72v2.36a4,4,0,0,1-3.94,3.94H12.21a1.24,1.24,0,1,0,0,2.48H42.14a1.24,1.24,0,1,0,0-2.48H38.56a3.94,3.94,0,0,1-3.93-3.94V39.45H50.86a3.26,3.26,0,0,0,3.25-3.25V3.48A3.25,3.25,0,0,0,50.86.23Zm-30,45.52a6.36,6.36,0,0,0,1.35-3.93V39.45h9.94v2.37a6.37,6.37,0,0,0,1.36,3.93ZM51.63,36.2a.76.76,0,0,1-.77.76H3.48a.76.76,0,0,1-.76-.76V29.67H51.63Zm0-9H2.72V3.48a.76.76,0,0,1,.76-.76H50.86a.76.76,0,0,1,.77.76v23.7Z"/><circle class="cls-1" cx="27.17" cy="33.32" r="1.34"/></g></g></svg>