<svg version="1.0" xmlns="http://www.w3.org/2000/svg" width="36.000000pt" height="27.000000pt" viewBox="0 0 36.000000 27.000000" preserveAspectRatio="xMidYMid meet"><g transform="translate(0.000000,27.000000) scale(0.100000,-0.100000)" fill="#000000" stroke="none"> <path d="M0 135 l0 -135 175 0 175 0 0 58 c0 31 3 81 6 110 l7 52 -36 0 c-40 0 -56 -25 -38 -59 6 -11 11 -48 11 -83 l0 -63 -140 3 c-137 3 -140 4 -140 25 1 20 2 20 11 5 13 -22 62 -24 80 -2 11 14 13 14 21 0 6 -10 23 -16 44 -16 28 0 37 5 42 22 l5 22 8 -22 c6 -15 17 -22 34 -22 30 0 33 15 5 23 -12 3 -20 14 -20 25 0 12 9 23 20 27 27 9 25 27 -2 23 -13 -2 -27 -13 -33 -25 l-9 -21 -11 21 c-14 30 -59 34 -77 8 -14 -19 -14 -19 -26 0 -15 23 -55 25 -76 3 -15 -14 -16 -9 -16 60 l0 76 155 0 c97 0 155 -4 155 -10 0 -5 5 -10 10 -10 6 0 10 9 10 20 0 19 -7 20 -175 20 l-175 0 0 -135z"/></g></svg>
