<svg xmlns="http://www.w3.org/2000/svg" viewBox="0 0 61.07 61.07"><defs><style>.cls-1{fill:none;stroke:#000;stroke-linecap:round;stroke-linejoin:round;stroke-width:2.32px;}</style></defs><title>pictoRecurso 125picto</title><g id="Capa_2" data-name="Capa 2"><g id="Capa_1-2" data-name="Capa 1"><rect class="cls-1" x="1.16" y="1.16" width="58.75" height="58.75" rx="5.26"/><path d="M42,45.42V14.87a2.8,2.8,0,0,0-2.8-2.81H23.07a2.81,2.81,0,0,0-2.81,2.81V45.43a2.8,2.8,0,0,0,2.81,2.8H39.24A2.81,2.81,0,0,0,42,45.42Zm-20-26.85H40.23V39.13H22.07Zm1-4.7H39.24a1,1,0,0,1,1,1v1.89H22.07V14.87A1,1,0,0,1,23.07,13.87Zm-1,31.55V40.93H40.23v4.49a1,1,0,0,1-1,1H23.07A1,1,0,0,1,22.07,45.42Z"/><path d="M33,42.85H29.31a.91.91,0,1,0,0,1.81H33a.91.91,0,1,0,0-1.81Z"/></g></g></svg>