<svg version="1.1" id="Capa_1" xmlns="http://www.w3.org/2000/svg" xmlns:xlink="http://www.w3.org/1999/xlink" x="0px" y="0px" width="36.583px" height="28.365px" viewBox="0 0 36.583 28.365" enable-background="new 0 0 36.583 28.365" xml:space="preserve"> <g> <defs> <rect id="SVGID_1_" y="0" width="36.583" height="28.365"/> </defs> <clipPath id="SVGID_2_"> <use xlink:href="#SVGID_1_"  overflow="visible"/> </clipPath> <path clip-path="url(#SVGID_2_)" fill="#3A3A41" d="M27.631,18.761l-0.108-1.279c0.679-0.057,1.258-0.177,1.654-0.276 c-0.477-1.229-1.834-2.829-2.392-3.414c-0.206-0.217-0.234-0.548-0.068-0.798c0.166-0.249,0.481-0.35,0.763-0.244 c1.13,0.432,2.797-0.695,3.344-1.166l3.779-2.991C33.26,7.97,30.79,6.839,29.264,6.214c-1.819-0.744-2.876-0.048-2.92-0.018 c-0.272,0.184-0.642,0.137-0.854-0.113c-0.212-0.249-0.206-0.616,0.02-0.853c1.079-1.141,1.605-2.805,1.836-3.772 c-3.892-0.3-5.692,2.163-6.785,2.614c-0.119,0.048-0.681-0.364-0.79-0.308l0.727-1.059c0.14-0.071,2.041-1.491,2.717-1.742 c1.816-0.676,4.752-0.833,4.896-0.838c0.188-0.008,0.371,0.069,0.499,0.209c0.127,0.14,0.187,0.328,0.162,0.516 c-0.014,0.102-0.272,1.978-1.242,3.743c0.616-0.02,1.364,0.083,2.221,0.434c2.199,0.899,6.299,2.822,6.34,2.841 c0.201,0.094,0.34,0.287,0.365,0.507c0.025,0.221-0.064,0.44-0.239,0.577l-4.573,3.62c-0.061,0.052-1.399,1.196-2.929,1.488 c0.765,0.961,1.709,2.342,1.884,3.485c0.046,0.303-0.128,0.597-0.416,0.701C30.137,18.262,29.082,18.639,27.631,18.761"/> <path clip-path="url(#SVGID_2_)" fill="none" stroke="#3A3A41" stroke-width="0.25" stroke-miterlimit="10" d="M27.631,18.761 l-0.108-1.279c0.679-0.057,1.258-0.177,1.654-0.276c-0.477-1.229-1.834-2.829-2.392-3.414c-0.206-0.217-0.234-0.548-0.068-0.798 c0.166-0.249,0.481-0.35,0.763-0.244c1.13,0.432,2.797-0.695,3.344-1.166l3.779-2.991C33.26,7.97,30.79,6.839,29.264,6.214 c-1.819-0.744-2.876-0.048-2.92-0.018c-0.272,0.184-0.642,0.137-0.854-0.113c-0.212-0.249-0.206-0.616,0.02-0.853 c1.079-1.141,1.605-2.805,1.836-3.772c-3.892-0.3-5.692,2.163-6.785,2.614c-0.119,0.048-0.681-0.364-0.79-0.308l0.727-1.059 c0.14-0.071,2.041-1.491,2.717-1.742c1.816-0.676,4.752-0.833,4.896-0.838c0.188-0.008,0.371,0.069,0.499,0.209 c0.127,0.14,0.187,0.328,0.162,0.516c-0.014,0.102-0.272,1.978-1.242,3.743c0.616-0.02,1.364,0.083,2.221,0.434 c2.199,0.899,6.299,2.822,6.34,2.841c0.201,0.094,0.34,0.287,0.365,0.507c0.025,0.221-0.064,0.44-0.239,0.577l-4.573,3.62 c-0.061,0.052-1.399,1.196-2.929,1.488c0.765,0.961,1.709,2.342,1.884,3.485c0.046,0.303-0.128,0.597-0.416,0.701 C30.137,18.262,29.082,18.639,27.631,18.761z"/> <path clip-path="url(#SVGID_2_)" fill="#3A3A41" d="M18.484,10.1c-0.1-0.089-2.439-2.206-1.762-4.479 c0.608-2.036,1.844-3.324,1.896-3.377C18.797,2.06,19.067,2,19.307,2.091c0.027,0.011,0.667,0.256,1.189,0.614L19.77,3.764 c-0.164-0.112-0.349-0.213-0.511-0.292c-0.354,0.453-0.957,1.345-1.306,2.516c-0.44,1.475,1.367,3.137,1.386,3.153L18.484,10.1z"/> <path clip-path="url(#SVGID_2_)" fill="none" stroke="#3A3A41" stroke-width="0.25" stroke-miterlimit="10" d="M18.484,10.1 c-0.1-0.089-2.439-2.206-1.762-4.479c0.608-2.036,1.844-3.324,1.896-3.377C18.797,2.06,19.067,2,19.307,2.091 c0.027,0.011,0.667,0.256,1.189,0.614L19.77,3.764c-0.164-0.112-0.349-0.213-0.511-0.292c-0.354,0.453-0.957,1.345-1.306,2.516 c-0.44,1.475,1.367,3.137,1.386,3.153L18.484,10.1z"/> <path clip-path="url(#SVGID_2_)" fill="#3A3A41" d="M8.027,10.308c-0.81-0.178-1.549-0.582-2.138-1.171 c-1.692-1.692-1.692-4.445,0-6.138c0.82-0.819,1.909-1.27,3.068-1.27c1.16,0,2.25,0.451,3.069,1.27 c0.518,0.518,0.898,1.162,1.101,1.861l-1.234,0.356c-0.142-0.491-0.41-0.944-0.775-1.308C10.541,3.33,9.774,3.012,8.957,3.012 c-0.816,0-1.584,0.318-2.161,0.896c-1.191,1.191-1.191,3.13,0,4.322c0.415,0.414,0.936,0.699,1.505,0.824L8.027,10.308z"/> <path clip-path="url(#SVGID_2_)" fill="none" stroke="#3A3A41" stroke-width="0.25" stroke-miterlimit="10" d="M8.027,10.308 c-0.81-0.178-1.549-0.582-2.138-1.171c-1.692-1.692-1.692-4.445,0-6.138c0.82-0.819,1.909-1.27,3.068-1.27 c1.16,0,2.25,0.451,3.069,1.27c0.518,0.518,0.898,1.162,1.101,1.861l-1.234,0.356c-0.142-0.491-0.41-0.944-0.775-1.308 C10.541,3.33,9.774,3.012,8.957,3.012c-0.816,0-1.584,0.318-2.161,0.896c-1.191,1.191-1.191,3.13,0,4.322 c0.415,0.414,0.936,0.699,1.505,0.824L8.027,10.308z"/> <path clip-path="url(#SVGID_2_)" fill="#3A3A41" d="M22.529,23.98c-1.159,0-2.249-0.451-3.068-1.271 c-0.569-0.569-0.968-1.281-1.153-2.06l1.248-0.298c0.131,0.548,0.411,1.049,0.813,1.449c1.191,1.191,3.131,1.191,4.322,0 c0.576-0.577,0.896-1.344,0.896-2.161c0-0.816-0.319-1.584-0.896-2.161c-0.391-0.39-0.876-0.667-1.408-0.802l0.314-1.244 c0.755,0.192,1.447,0.585,2.001,1.139c0.82,0.819,1.271,1.909,1.271,3.068s-0.451,2.249-1.271,3.069 C24.778,23.529,23.688,23.98,22.529,23.98"/> <path clip-path="url(#SVGID_2_)" fill="none" stroke="#3A3A41" stroke-width="0.25" stroke-miterlimit="10" d="M22.529,23.98 c-1.159,0-2.249-0.451-3.068-1.271c-0.569-0.569-0.968-1.281-1.153-2.06l1.248-0.298c0.131,0.548,0.411,1.049,0.813,1.449 c1.191,1.191,3.131,1.191,4.322,0c0.576-0.577,0.896-1.344,0.896-2.161c0-0.816-0.319-1.584-0.896-2.161 c-0.391-0.39-0.876-0.667-1.408-0.802l0.314-1.244c0.755,0.192,1.447,0.585,2.001,1.139c0.82,0.819,1.271,1.909,1.271,3.068 s-0.451,2.249-1.271,3.069C24.778,23.529,23.688,23.98,22.529,23.98z"/> <path clip-path="url(#SVGID_2_)" fill="#3A3A41" d="M13.128,14.58c-1.159,0-2.249-0.453-3.068-1.272 c-1.692-1.692-1.692-4.445,0-6.138c1.692-1.691,4.445-1.691,6.137,0c0.82,0.821,1.271,1.911,1.271,3.07 c0,1.159-0.451,2.249-1.271,3.068C15.377,14.127,14.287,14.58,13.128,14.58 M13.128,7.185c-0.783,0-1.565,0.297-2.161,0.894 c-1.191,1.191-1.191,3.129,0,4.322c1.192,1.191,3.131,1.191,4.323,0c0.577-0.577,0.895-1.345,0.895-2.161 c0-0.817-0.318-1.584-0.895-2.161C14.694,7.483,13.911,7.185,13.128,7.185"/> <path clip-path="url(#SVGID_2_)" fill="none" stroke="#3A3A41" stroke-width="0.25" stroke-miterlimit="10" d="M13.128,14.58 c-1.159,0-2.249-0.453-3.068-1.272c-1.692-1.692-1.692-4.445,0-6.138c1.692-1.691,4.445-1.691,6.137,0 c0.82,0.821,1.271,1.911,1.271,3.07c0,1.159-0.451,2.249-1.271,3.068C15.377,14.127,14.287,14.58,13.128,14.58z M13.128,7.185 c-0.783,0-1.565,0.297-2.161,0.894c-1.191,1.191-1.191,3.129,0,4.322c1.192,1.191,3.131,1.191,4.323,0 c0.577-0.577,0.895-1.345,0.895-2.161c0-0.817-0.318-1.584-0.895-2.161C14.694,7.483,13.911,7.185,13.128,7.185z"/> <path clip-path="url(#SVGID_2_)" fill="#3A3A41" d="M6.623,16.388c-1.01-0.091-1.96-0.536-2.678-1.253 c-0.82-0.82-1.271-1.91-1.271-3.069s0.451-2.249,1.271-3.069C4.152,8.791,4.38,8.604,4.623,8.443l0.708,1.071 C5.16,9.627,4.999,9.758,4.853,9.905c-0.578,0.578-0.896,1.344-0.896,2.161c0,0.816,0.318,1.584,0.895,2.161 c0.506,0.506,1.175,0.819,1.886,0.883L6.623,16.388z"/> <path clip-path="url(#SVGID_2_)" fill="none" stroke="#3A3A41" stroke-width="0.25" stroke-miterlimit="10" d="M6.623,16.388 c-1.01-0.091-1.96-0.536-2.678-1.253c-0.82-0.82-1.271-1.91-1.271-3.069s0.451-2.249,1.271-3.069 C4.152,8.791,4.38,8.604,4.623,8.443l0.708,1.071C5.16,9.627,4.999,9.758,4.853,9.905c-0.578,0.578-0.896,1.344-0.896,2.161 c0,0.816,0.318,1.584,0.895,2.161c0.506,0.506,1.175,0.819,1.886,0.883L6.623,16.388z"/> <path clip-path="url(#SVGID_2_)" fill="#3A3A41" d="M11.772,21.163c-1.111,0-2.222-0.423-3.068-1.269 c-0.82-0.82-1.272-1.91-1.272-3.069s0.452-2.249,1.272-3.068c0.206-0.207,0.435-0.394,0.677-0.555l0.708,1.071 c-0.171,0.114-0.331,0.244-0.478,0.391c-0.577,0.578-0.895,1.345-0.895,2.161c0,0.817,0.318,1.584,0.895,2.161 c1.192,1.193,3.131,1.193,4.322,0c0.147-0.146,0.279-0.308,0.392-0.479l1.072,0.707c-0.161,0.243-0.348,0.472-0.556,0.68 C13.996,20.74,12.884,21.163,11.772,21.163"/> <path clip-path="url(#SVGID_2_)" fill="none" stroke="#3A3A41" stroke-width="0.25" stroke-miterlimit="10" d="M11.772,21.163 c-1.111,0-2.222-0.423-3.068-1.269c-0.82-0.82-1.272-1.91-1.272-3.069s0.452-2.249,1.272-3.068 c0.206-0.207,0.435-0.394,0.677-0.555l0.708,1.071c-0.171,0.114-0.331,0.244-0.478,0.391c-0.577,0.578-0.895,1.345-0.895,2.161 c0,0.817,0.318,1.584,0.895,2.161c1.192,1.193,3.131,1.193,4.322,0c0.147-0.146,0.279-0.308,0.392-0.479l1.072,0.707 c-0.161,0.243-0.348,0.472-0.556,0.68C13.996,20.74,12.884,21.163,11.772,21.163z"/> <path clip-path="url(#SVGID_2_)" fill="#3A3A41" d="M5.922,22.073c-1.111,0-2.223-0.423-3.069-1.27 c-0.82-0.819-1.271-1.909-1.271-3.068s0.451-2.249,1.271-3.068l0.908,0.907c-0.577,0.577-0.896,1.345-0.896,2.161 c0,0.817,0.319,1.584,0.896,2.161c1.191,1.191,3.13,1.191,4.322,0l0.907,0.907C8.145,21.65,7.033,22.073,5.922,22.073"/> <path clip-path="url(#SVGID_2_)" fill="none" stroke="#3A3A41" stroke-width="0.25" stroke-miterlimit="10" d="M5.922,22.073 c-1.111,0-2.223-0.423-3.069-1.27c-0.82-0.819-1.271-1.909-1.271-3.068s0.451-2.249,1.271-3.068l0.908,0.907 c-0.577,0.577-0.896,1.345-0.896,2.161c0,0.817,0.319,1.584,0.896,2.161c1.191,1.191,3.13,1.191,4.322,0l0.907,0.907 C8.145,21.65,7.033,22.073,5.922,22.073z"/> <path clip-path="url(#SVGID_2_)" fill="#3A3A41" d="M10.697,26.849c-1.16,0-2.25-0.451-3.069-1.271 c-0.772-0.772-1.222-1.798-1.267-2.888l1.282-0.054c0.032,0.768,0.349,1.49,0.893,2.033c0.577,0.577,1.344,0.896,2.161,0.896 c0.816,0,1.584-0.318,2.161-0.896l0.907,0.908C12.946,26.398,11.856,26.849,10.697,26.849"/> <path clip-path="url(#SVGID_2_)" fill="none" stroke="#3A3A41" stroke-width="0.25" stroke-miterlimit="10" d="M10.697,26.849 c-1.16,0-2.25-0.451-3.069-1.271c-0.772-0.772-1.222-1.798-1.267-2.888l1.282-0.054c0.032,0.768,0.349,1.49,0.893,2.033 c0.577,0.577,1.344,0.896,2.161,0.896c0.816,0,1.584-0.318,2.161-0.896l0.907,0.908C12.946,26.398,11.856,26.849,10.697,26.849z"/> <path clip-path="url(#SVGID_2_)" fill="#3A3A41" d="M4.465,28.24c-1.112,0-2.223-0.423-3.069-1.27 c-0.82-0.819-1.271-1.909-1.271-3.068s0.451-2.249,1.271-3.068l0.908,0.907c-0.577,0.577-0.896,1.345-0.896,2.161 c0,0.817,0.319,1.584,0.896,2.161c1.192,1.191,3.13,1.191,4.322,0l0.907,0.907C6.688,27.817,5.576,28.24,4.465,28.24"/> <path clip-path="url(#SVGID_2_)" fill="none" stroke="#3A3A41" stroke-width="0.25" stroke-miterlimit="10" d="M4.465,28.24 c-1.112,0-2.223-0.423-3.069-1.27c-0.82-0.819-1.271-1.909-1.271-3.068s0.451-2.249,1.271-3.068l0.908,0.907 c-0.577,0.577-0.896,1.345-0.896,2.161c0,0.817,0.319,1.584,0.896,2.161c1.192,1.191,3.13,1.191,4.322,0l0.907,0.907 C6.688,27.817,5.576,28.24,4.465,28.24z"/> <path clip-path="url(#SVGID_2_)" fill="#3A3A41" d="M16.531,25.921c-1.111,0-2.222-0.423-3.068-1.269 c-0.74-0.739-1.187-1.721-1.261-2.763l1.28-0.09c0.052,0.733,0.367,1.424,0.888,1.944c1.192,1.193,3.13,1.192,4.322,0 c0.147-0.146,0.279-0.308,0.392-0.479l1.072,0.707c-0.161,0.243-0.348,0.472-0.556,0.681 C18.755,25.499,17.643,25.921,16.531,25.921"/> <path clip-path="url(#SVGID_2_)" fill="none" stroke="#3A3A41" stroke-width="0.25" stroke-miterlimit="10" d="M16.531,25.921 c-1.111,0-2.222-0.423-3.068-1.269c-0.74-0.739-1.187-1.721-1.261-2.763l1.28-0.09c0.052,0.733,0.367,1.424,0.888,1.944 c1.192,1.193,3.13,1.192,4.322,0c0.147-0.146,0.279-0.308,0.392-0.479l1.072,0.707c-0.161,0.243-0.348,0.472-0.556,0.681 C18.755,25.499,17.643,25.921,16.531,25.921z"/> <path clip-path="url(#SVGID_2_)" fill="#3A3A41" d="M18.358,19.81c-1.159,0-2.25-0.452-3.068-1.272 c-0.82-0.819-1.272-1.909-1.272-3.068c0-1.159,0.452-2.249,1.272-3.068c1.692-1.692,4.444-1.692,6.137,0 c0.819,0.82,1.271,1.91,1.271,3.068c0,1.159-0.452,2.249-1.271,3.068C20.607,19.358,19.518,19.81,18.358,19.81 M18.358,12.415 c-0.783,0-1.565,0.298-2.161,0.894c-0.577,0.577-0.895,1.344-0.895,2.161s0.318,1.584,0.895,2.161c1.192,1.191,3.13,1.191,4.322,0 c0.576-0.577,0.896-1.345,0.896-2.161s-0.319-1.583-0.896-2.161C19.923,12.712,19.141,12.415,18.358,12.415"/> <path clip-path="url(#SVGID_2_)" fill="none" stroke="#3A3A41" stroke-width="0.25" stroke-miterlimit="10" d="M18.358,19.81 c-1.159,0-2.25-0.452-3.068-1.272c-0.82-0.819-1.272-1.909-1.272-3.068c0-1.159,0.452-2.249,1.272-3.068 c1.692-1.692,4.444-1.692,6.137,0c0.819,0.82,1.271,1.91,1.271,3.068c0,1.159-0.452,2.249-1.271,3.068 C20.607,19.358,19.518,19.81,18.358,19.81z M18.358,12.415c-0.783,0-1.565,0.298-2.161,0.894c-0.577,0.577-0.895,1.344-0.895,2.161 s0.318,1.584,0.895,2.161c1.192,1.191,3.13,1.191,4.322,0c0.576-0.577,0.896-1.345,0.896-2.161s-0.319-1.583-0.896-2.161 C19.923,12.712,19.141,12.415,18.358,12.415z"/></g></svg>