<svg version="1.1" id="Capa_1" xmlns="http://www.w3.org/2000/svg" xmlns:xlink="http://www.w3.org/1999/xlink" x="0px" y="0px" width="34.25px" height="38.426px" viewBox="0 0 34.25 38.426" enable-background="new 0 0 34.25 38.426" xml:space="preserve"> <g> <defs> <rect id="SVGID_1_" width="34.25" height="38.426"/> </defs> <clipPath id="SVGID_2_"> <use xlink:href="#SVGID_1_"  overflow="visible"/> </clipPath> <path clip-path="url(#SVGID_2_)" fill="none" stroke="#3A3A41" stroke-width="1.5" stroke-miterlimit="10" d="M30.277,37.676H3.972 c-1.772,0-3.222-1.45-3.222-3.223V12.65V8.121c0-1.772,1.45-3.222,3.222-3.222h26.305c1.771,0,3.223,1.45,3.223,3.222v26.333 C33.5,36.226,32.049,37.676,30.277,37.676z"/><path clip-path="url(#SVGID_2_)" fill="none" stroke="#3A3A41" stroke-width="1.5" stroke-linecap="round" stroke-linejoin="round" stroke-miterlimit="10" d=" M10.035,23.102H5.131c-0.331,0-0.602-0.271-0.602-0.601v-4.066v-0.844c0-0.331,0.271-0.601,0.602-0.601h4.904 c0.331,0,0.602,0.27,0.602,0.601v4.91C10.637,22.831,10.366,23.102,10.035,23.102z"/> <path clip-path="url(#SVGID_2_)" fill="none" stroke="#3A3A41" stroke-width="1.5" stroke-miterlimit="10" d="M19.491,23.102 h-4.904c-0.331,0-0.602-0.271-0.602-0.601v-4.066v-0.844c0-0.331,0.271-0.601,0.602-0.601h4.904c0.331,0,0.602,0.27,0.602,0.601 v4.91C20.093,22.831,19.822,23.102,19.491,23.102z"/> <path clip-path="url(#SVGID_2_)" fill="none" stroke="#3A3A41" stroke-width="1.5" stroke-miterlimit="10" d="M28.947,23.102 h-4.904c-0.331,0-0.602-0.271-0.602-0.601v-4.066v-0.844c0-0.331,0.271-0.601,0.602-0.601h4.904c0.331,0,0.601,0.27,0.601,0.601 v4.91C29.548,22.831,29.278,23.102,28.947,23.102z"/> <path clip-path="url(#SVGID_2_)" fill="none" stroke="#3A3A41" stroke-width="1.5" stroke-miterlimit="10" d="M10.035,32.419H5.131 c-0.331,0-0.602-0.271-0.602-0.602v-4.065v-0.844c0-0.331,0.271-0.602,0.602-0.602h4.904c0.331,0,0.602,0.271,0.602,0.602v4.909 C10.637,32.148,10.366,32.419,10.035,32.419z"/> <path clip-path="url(#SVGID_2_)" fill="none" stroke="#3A3A41" stroke-width="1.5" stroke-miterlimit="10" d="M19.491,32.419 h-4.904c-0.331,0-0.602-0.271-0.602-0.602v-4.065v-0.844c0-0.331,0.271-0.602,0.602-0.602h4.904c0.331,0,0.602,0.271,0.602,0.602 v4.909C20.093,32.148,19.822,32.419,19.491,32.419z"/> <path clip-path="url(#SVGID_2_)" fill="none" stroke="#3A3A41" stroke-width="1.5" stroke-miterlimit="10" d="M28.947,32.419 h-4.904c-0.331,0-0.602-0.271-0.602-0.602v-4.065v-0.844c0-0.331,0.271-0.602,0.602-0.602h4.904c0.331,0,0.601,0.271,0.601,0.602 v4.909C29.548,32.148,29.278,32.419,28.947,32.419z"/><line clip-path="url(#SVGID_2_)" fill="none" stroke="#3A3A41" stroke-width="1.5" stroke-linecap="round" stroke-miterlimit="10" x1="8.573" y1="0.75" x2="8.573" y2="8.557"/><line clip-path="url(#SVGID_2_)" fill="none" stroke="#3A3A41" stroke-width="1.5" stroke-linecap="round" stroke-miterlimit="10" x1="25.146" y1="0.75" x2="25.146" y2="8.557"/><line clip-path="url(#SVGID_2_)" fill="none" stroke="#3A3A41" stroke-width="1.5" stroke-miterlimit="10" x1="33.467" y1="12.791" x2="0.75" y2="12.791"/></g></svg>