<svg version="1.1" id="Capa_1" xmlns="http://www.w3.org/2000/svg" xmlns:xlink="http://www.w3.org/1999/xlink" x="0px" y="0px" width="37.771px" height="30.951px" viewBox="0 0 37.771 30.951" enable-background="new 0 0 37.771 30.951" xml:space="preserve"> <g> <defs> <rect id="SVGID_1_" width="37.771" height="30.951"/> </defs> <clipPath id="SVGID_2_"> <use xlink:href="#SVGID_1_"  overflow="visible"/> </clipPath><path clip-path="url(#SVGID_2_)" fill="none" stroke="#3A3A41" stroke-width="1.5" stroke-linecap="round" stroke-linejoin="round" stroke-miterlimit="10" d=" M24.011,0.75c-2.774,0-5.137,1.735-6.079,4.178c1.434,1.195,2.348,2.994,2.348,5.008c0,0.826-0.16,1.613-0.44,2.341 c1.131,0.943,2.584,1.511,4.172,1.511c3.6,0,6.519-2.919,6.519-6.519C30.529,3.668,27.61,0.75,24.011,0.75z"/><circle clip-path="url(#SVGID_2_)" fill="none" stroke="#3A3A41" stroke-width="1.5" stroke-linecap="round" stroke-linejoin="round" stroke-miterlimit="10" cx="13.683" cy="9.92" r="6.52"/><path clip-path="url(#SVGID_2_)" fill="none" stroke="#3A3A41" stroke-width="1.5" stroke-linecap="round" stroke-linejoin="round" stroke-miterlimit="10" d=" M26.407,27.472H37.02c0-6.365-5.823-11.525-13.009-11.525c-3.237,0-6.193,1.053-8.469,2.787 C20.882,19.383,25.18,22.895,26.407,27.472z"/><path clip-path="url(#SVGID_2_)" fill="none" stroke="#3A3A41" stroke-width="1.5" stroke-linecap="round" stroke-linejoin="round" stroke-miterlimit="10" d=" M26.771,30.201c0-6.365-5.824-11.524-13.01-11.524c-7.185,0-13.011,5.159-13.011,11.524H26.771z"/></g></svg>