<svg xmlns="http://www.w3.org/2000/svg" viewBox="0 0 53.65 53.86"><title>pictoRecurso 141picto</title><g id="Capa_2" data-name="Capa 2"><g id="Capa_1-2" data-name="Capa 1"><path d="M10.87,35.8a57.16,57.16,0,0,0,19,14.89,29.54,29.54,0,0,0,10.63,3.14l.76,0a8.8,8.8,0,0,0,6.83-2.94s0,0,0-.05a26.47,26.47,0,0,1,2.15-2.24c.52-.5,1.06-1,1.57-1.56a5.38,5.38,0,0,0,0-8l-6.71-6.71a5.43,5.43,0,0,0-3.92-1.81,5.63,5.63,0,0,0-4,1.8l-4,4c-.37-.21-.75-.4-1.11-.58a13.68,13.68,0,0,1-1.22-.66,42.17,42.17,0,0,1-10.1-9.2,24.33,24.33,0,0,1-3.42-5.45c1.05-.95,2-1.94,3-2.91l1-1a5.73,5.73,0,0,0,1.85-4,5.69,5.69,0,0,0-1.85-4L18.08,5.12,16.94,4c-.73-.76-1.5-1.54-2.26-2.24A5.56,5.56,0,0,0,10.75,0a5.7,5.7,0,0,0-4,1.73L2.6,5.9A8.62,8.62,0,0,0,.05,11.39,20.7,20.7,0,0,0,1.6,20.32,52,52,0,0,0,10.87,35.8ZM2.77,11.63a5.87,5.87,0,0,1,1.78-3.8L8.7,3.68a3,3,0,0,1,2.05-1,2.86,2.86,0,0,1,2,1c.75.69,1.45,1.41,2.21,2.18l1.16,1.19,3.32,3.32a3,3,0,0,1,1.05,2.09,3,3,0,0,1-1.05,2.08l-1,1c-1,1.05-2,2.05-3.08,3l-.06.06a2.19,2.19,0,0,0-.56,2.48.79.79,0,0,1,0,.09,26.36,26.36,0,0,0,3.91,6.37,44.81,44.81,0,0,0,10.76,9.8,15.19,15.19,0,0,0,1.47.8,13.89,13.89,0,0,1,1.23.67l.12.07A2.22,2.22,0,0,0,35,38.47l4.17-4.18a3,3,0,0,1,2-1,2.83,2.83,0,0,1,2,1L49.92,41c1.34,1.34,1.33,2.79,0,4.21-.47.5-1,1-1.49,1.48a31.8,31.8,0,0,0-2.33,2.43,6.13,6.13,0,0,1-4.79,2,5.63,5.63,0,0,1-.58,0,26.75,26.75,0,0,1-9.62-2.88A54.2,54.2,0,0,1,13,34.08,49.65,49.65,0,0,1,4.18,19.41,18,18,0,0,1,2.77,11.63Z"/></g></g></svg>