<?xml version="1.0" encoding="utf-8"?>
<!-- Generator: Adobe Illustrator 16.0.3, SVG Export Plug-In . SVG Version: 6.00 Build 0)  -->
<!DOCTYPE svg PUBLIC "-//W3C//DTD SVG 1.1//EN" "http://www.w3.org/Graphics/SVG/1.1/DTD/svg11.dtd">
<svg version="1.1" id="Capa_1" xmlns="http://www.w3.org/2000/svg" xmlns:xlink="http://www.w3.org/1999/xlink" x="0px" y="0px"
	 width="84.794px" height="84.794px" viewBox="0 0 84.794 84.794" enable-background="new 0 0 84.794 84.794" xml:space="preserve">
<g>
	<defs>
		<rect id="SVGID_1_" width="84.794" height="84.794"/>
	</defs>
	<clipPath id="SVGID_2_">
		<use xlink:href="#SVGID_1_"  overflow="visible"/>
	</clipPath>
	<path clip-path="url(#SVGID_2_)" d="M42.396,79.141c-20.26,0-36.744-16.482-36.744-36.744S22.137,5.653,42.396,5.653
		c20.261,0,36.744,16.483,36.744,36.744S62.657,79.141,42.396,79.141 M42.396,9.422c-18.182,0-32.975,14.793-32.975,32.975
		c0,18.183,14.793,32.976,32.975,32.976c18.184,0,32.977-14.793,32.977-32.976C75.373,24.215,60.58,9.422,42.396,9.422"/>
	<rect x="40.512" clip-path="url(#SVGID_2_)" width="3.769" height="26.38"/>
	<rect x="40.512" y="58.414" clip-path="url(#SVGID_2_)" width="3.769" height="26.38"/>
	<rect y="40.512" clip-path="url(#SVGID_2_)" width="26.38" height="3.77"/>
	<rect x="58.414" y="40.512" clip-path="url(#SVGID_2_)" width="26.38" height="3.77"/>
</g>
</svg>
