<svg xmlns="http://www.w3.org/2000/svg" viewBox="0 0 64.96 57.66"><defs><style>.cls-1{fill:#3a3a41;stroke:#3a3a41;stroke-miterlimit:10;stroke-width:0.93px;}</style></defs><title>pictoRecurso 105picto</title><g id="Capa_2" data-name="Capa 2"><g id="Capa_1-2" data-name="Capa 1"><path class="cls-1" d="M34.86,20.43a.92.92,0,0,1-.49-.14L21.28,11.72a.9.9,0,0,1,1-1.5l13.1,8.56a.9.9,0,0,1-.5,1.65Z"/><path class="cls-1" d="M8.36,57.19a8.73,8.73,0,0,1-4.49-1.41A6.6,6.6,0,0,1,.61,51.63a7.67,7.67,0,0,1,1-5.34L22,11.75a.9.9,0,1,1,1.55.91L3.16,47.23a5.9,5.9,0,0,0-.79,4,4.85,4.85,0,0,0,2.43,3,6,6,0,0,0,4.69,1,5.17,5.17,0,0,0,2.89-2.18L32.59,18.63a.91.91,0,0,1,1.23-.32.9.9,0,0,1,.32,1.23L13.94,54a7,7,0,0,1-4,3A6.39,6.39,0,0,1,8.36,57.19Z"/><path class="cls-1" d="M26.93,31.06h0L12.34,31a.91.91,0,0,1-.9-.91.9.9,0,0,1,.9-.89h0l14.6.08a.9.9,0,1,1,0,1.79Z"/><path class="cls-1" d="M33.44,11.23A4.57,4.57,0,1,1,38,6.66,4.57,4.57,0,0,1,33.44,11.23Zm0-7.33a2.77,2.77,0,1,0,2.77,2.76A2.77,2.77,0,0,0,33.44,3.9Z"/><path class="cls-1" d="M49.31,12.42a6,6,0,1,1,6-6A6,6,0,0,1,49.31,12.42Zm0-10.16a4.18,4.18,0,1,0,4.18,4.18A4.18,4.18,0,0,0,49.31,2.26Z"/><path class="cls-1" d="M43.55,30.45a5.08,5.08,0,1,1,5.08-5.08A5.07,5.07,0,0,1,43.55,30.45Zm0-8.36a3.29,3.29,0,1,0,3.28,3.28A3.29,3.29,0,0,0,43.55,22.09Z"/><path class="cls-1" d="M59.41,26.34a5.08,5.08,0,1,1,5.08-5.08A5.09,5.09,0,0,1,59.41,26.34Zm0-8.37a3.29,3.29,0,1,0,3.29,3.29A3.29,3.29,0,0,0,59.41,18Z"/><path class="cls-1" d="M56.87,43.19A6.14,6.14,0,1,1,63,37.05,6.15,6.15,0,0,1,56.87,43.19Zm0-10.48a4.34,4.34,0,1,0,4.34,4.34A4.35,4.35,0,0,0,56.87,32.71Z"/></g></g></svg>