<svg xmlns="http://www.w3.org/2000/svg" viewBox="0 0 58.03 58.03"><defs><style>.cls-1,.cls-2{fill:#3a3a41;}.cls-1{stroke:#3a3a41;stroke-miterlimit:10;stroke-width:1.75px;}</style></defs><title>pictoRecurso 129picto</title><g id="Capa_2" data-name="Capa 2"><g id="Capa_1-2" data-name="Capa 1"><path class="cls-1" d="M37.3,29.72,22.56,44.47a.92.92,0,0,0,1.3,1.31L39.27,30.37a.92.92,0,0,0,0-1.3L23.86,13.67a.91.91,0,0,0-.65-.27A.93.93,0,0,0,22.56,15Z"/><g id="_8" data-name="8"><path class="cls-2" d="M29,0A29,29,0,1,0,58,29,29,29,0,0,0,29,0Zm0,54.4A25.39,25.39,0,1,1,54.4,29,25.38,25.38,0,0,1,29,54.4Z"/></g></g></g></svg>