<svg version="1.1" id="Capa_1" xmlns="http://www.w3.org/2000/svg" xmlns:xlink="http://www.w3.org/1999/xlink" x="0px" y="0px" width="37.992px" height="27.632px" viewBox="0 0 37.992 27.632" enable-background="new 0 0 37.992 27.632" xml:space="preserve"> <g> <defs> <rect id="SVGID_1_" y="0" width="37.993" height="27.632"/> </defs> <clipPath id="SVGID_2_"> <use xlink:href="#SVGID_1_"  overflow="visible"/> </clipPath><path clip-path="url(#SVGID_2_)" fill="none" stroke="#3A3A41" stroke-width="1.5" stroke-linecap="round" stroke-linejoin="round" stroke-miterlimit="10" d=" M18.996,12.108L1.453,24.042c-1.355,0.921-0.619,2.84,1.091,2.84h32.905c1.71,0,2.445-1.919,1.091-2.84L18.996,12.108L1.453,24.042 c-1.355,0.921-0.619,2.84,1.091,2.84h32.905c1.71,0,2.445-1.919,1.091-2.84L18.996,12.108z"/><path clip-path="url(#SVGID_2_)" fill="none" stroke="#3A3A41" stroke-width="1.5" stroke-linecap="round" stroke-linejoin="round" stroke-miterlimit="10" d=" M15.033,4.713c0-2.188,1.774-3.964,3.963-3.964c2.188,0,3.964,1.776,3.964,3.964c0,2.189-1.775,3.964-3.964,3.964v3.431"/></g></svg>