<svg xmlns="http://www.w3.org/2000/svg" viewBox="0 0 27.64 62.76"><defs><style>.cls-1{fill:none;stroke:#3a3a41;stroke-linecap:round;stroke-linejoin:round;stroke-width:2.78px;}</style></defs><title>pictoRecurso 112picto</title><g id="Capa_2" data-name="Capa 2"><g id="Capa_1-2" data-name="Capa 1"><path class="cls-1" d="M4.24,54a10.18,10.18,0,0,1-2.36-10.2,10.18,10.18,0,0,1,10.2,2.36,10,10,0,0,1,2.35,10.19A10,10,0,0,1,4.24,54Z"/><path class="cls-1" d="M13.83,56.52A9.9,9.9,0,0,0,23.41,54a10.19,10.19,0,0,0,2.35-10.2,10.18,10.18,0,0,0-10.2,2.36,9.77,9.77,0,0,0-1.74,2.32"/><path class="cls-1" d="M4.91,43.29c-.23-.19-.45-.39-.67-.61a10.18,10.18,0,0,1-2.36-10.2s5.76-2.09,10.2,2.35A10,10,0,0,1,14.43,45a9.89,9.89,0,0,1-3,.52"/><path class="cls-1" d="M22.72,43.31l.69-.63a10.19,10.19,0,0,0,2.35-10.2,10.19,10.19,0,0,0-10.2,2.35,10,10,0,0,0-1.74,2.33"/><path class="cls-1" d="M4.91,32c-.23-.19-.45-.39-.67-.61a10.18,10.18,0,0,1-2.36-10.2s5.76-2.09,10.2,2.35a10,10,0,0,1,2.35,10.2,9.89,9.89,0,0,1-3,.52"/><path class="cls-1" d="M22.72,32q.34-.3.69-.63a10.19,10.19,0,0,0,2.35-10.2,10.19,10.19,0,0,0-10.2,2.35,10,10,0,0,0-1.74,2.33"/><path class="cls-1" d="M19.35,21.18a10.45,10.45,0,0,0,.12-1.62,10.36,10.36,0,0,0-5.65-9,10.36,10.36,0,0,0-5.65,9,11.85,11.85,0,0,0,.12,1.62"/><line class="cls-1" x1="17.21" y1="1.39" x2="17.21" y2="7.13"/><line class="cls-1" x1="23.99" y1="1.39" x2="23.99" y2="16.17"/><line class="cls-1" x1="3.65" y1="1.39" x2="3.65" y2="16.17"/><line class="cls-1" x1="10.43" y1="1.39" x2="10.43" y2="7.13"/><line class="cls-1" x1="13.82" y1="61.37" x2="13.83" y2="56.52"/></g></g></svg>