<?xml version="1.0" encoding="utf-8"?>
<!-- Generator: Adobe Illustrator 16.0.3, SVG Export Plug-In . SVG Version: 6.00 Build 0)  -->
<!DOCTYPE svg PUBLIC "-//W3C//DTD SVG 1.1//EN" "http://www.w3.org/Graphics/SVG/1.1/DTD/svg11.dtd">
<svg version="1.1" id="Capa_1" xmlns="http://www.w3.org/2000/svg" xmlns:xlink="http://www.w3.org/1999/xlink" x="0px" y="0px"
	 width="240px" height="256px" viewBox="0 0 240 256" enable-background="new 0 0 240 256" xml:space="preserve">
<g>
	<defs>
		<rect id="SVGID_1_" width="240" height="256"/>
	</defs>
	<clipPath id="SVGID_2_">
		<use xlink:href="#SVGID_1_"  overflow="visible"/>
	</clipPath>
	<path clip-path="url(#SVGID_2_)" fill="#414042" d="M229.155,64h0.1l-40.721-40.721c-3.098-3.097-8.186-3.412-11.374-0.409
		c-3.3,3.108-3.359,8.303-0.177,11.485l22.732,22.734c-14.121,3.775-24.396,16.961-23.681,32.43
		c0.739,15.978,13.493,29.154,29.439,30.383c6.777,0.523,13.144-1.079,18.525-4.194v107.828c0,8.604-6.6,16.02-15.194,16.442
		C199.618,240.433,192,233.089,192,224v-80c0-8.837-7.164-16-16-16h-16V32c0-17.673-14.327-32-32-32H32C14.327,0,0,14.327,0,32v216
		c0,4.418,3.582,8,8,8h144c4.418,0,8-3.582,8-8V144h8c4.418,0,8,3.582,8,8v71.334c0,17.438,13.671,32.176,31.101,32.653
		C225.185,256.483,240,241.972,240,224V88C240,78.439,235.802,69.864,229.155,64 M128,80c0,4.418-3.582,8-8,8H40
		c-4.418,0-8-3.582-8-8V40c0-4.418,3.582-8,8-8h80c4.418,0,8,3.582,8,8V80z M208,104c-8.822,0-16-7.178-16-16
		c0-8.823,7.178-16,16-16s16,7.177,16,16C224,96.822,216.822,104,208,104"/>
</g>
</svg>
