<?xml version="1.0" encoding="utf-8"?>
<!-- Generator: Adobe Illustrator 16.0.3, SVG Export Plug-In . SVG Version: 6.00 Build 0)  -->
<!DOCTYPE svg PUBLIC "-//W3C//DTD SVG 1.1//EN" "http://www.w3.org/Graphics/SVG/1.1/DTD/svg11.dtd">
<svg version="1.1" id="Capa_1" xmlns="http://www.w3.org/2000/svg" xmlns:xlink="http://www.w3.org/1999/xlink" x="0px" y="0px"
	 width="128.868px" height="128.868px" viewBox="0 0 128.868 128.868" enable-background="new 0 0 128.868 128.868"
	 xml:space="preserve">
<g>
	<defs>
		<rect id="SVGID_1_" width="128.868" height="128.868"/>
	</defs>
	<clipPath id="SVGID_2_">
		<use xlink:href="#SVGID_1_"  overflow="visible"/>
	</clipPath>
	<path clip-path="url(#SVGID_2_)" fill="#37404F" d="M60.452,32.513c-4.407,0-7.394,0.427-8.958,0.854v28.295
		c1.849,0.427,4.124,0.568,7.252,0.568c11.517,0,18.627-5.829,18.627-15.64C77.373,37.774,71.259,32.513,60.452,32.513"/>
	<path clip-path="url(#SVGID_2_)" fill="#37404F" d="M112.574,0h-96.28C7.332,0,0,7.333,0,16.294v96.28
		c0,8.962,7.332,16.294,16.294,16.294h96.28c8.962,0,16.294-7.332,16.294-16.294v-96.28C128.868,7.333,121.536,0,112.574,0
		 M90.027,68.771c-7.394,6.967-18.342,10.095-31.139,10.095c-2.844,0-5.403-0.142-7.394-0.427v34.268H30.024V18.151
		c6.683-1.137,16.067-1.99,29.292-1.99c13.365,0,22.891,2.56,29.29,7.678c6.114,4.834,10.238,12.797,10.238,22.182
		C98.844,55.405,95.716,63.368,90.027,68.771"/>
</g>
</svg>
