<svg xmlns="http://www.w3.org/2000/svg" viewBox="0 0 47.02 47.18"><defs><style>.cls-1{fill:#3a3a41;}</style></defs><title>pictouploadpicto</title><g id="Capa_2" data-name="Capa 2"><g id="Capa_1-2" data-name="Capa 1"><path class="cls-1" d="M43.1,23.67V41.3a2,2,0,0,1-2,2H5.88a2,2,0,0,1-2-2V23.67a2,2,0,0,0-3.92,0V41.3a5.89,5.89,0,0,0,5.88,5.88H41.14A5.89,5.89,0,0,0,47,41.3V23.67a2,2,0,0,0-3.92,0Z"/><path class="cls-1" d="M22.12.58,10.36,12.5a2,2,0,1,0,2.79,2.75l8.4-8.52V29.55a2,2,0,0,0,3.92,0V6.73l8.4,8.52a2,2,0,0,0,3.36-1.38,1.92,1.92,0,0,0-.57-1.37L24.91.58a2,2,0,0,0-2.79,0Z"/></g></g></svg>