<svg xmlns="http://www.w3.org/2000/svg" viewBox="0 0 61.78 44.82"><title>pictoRecurso 118picto</title><g id="Capa_2" data-name="Capa 2"><g id="Capa_1-2" data-name="Capa 1"><path d="M61.25,17,51.56,7.32a1.81,1.81,0,0,0-1.28-.53H42.39V6.66A6.66,6.66,0,0,0,35.74,0H6.66A6.67,6.67,0,0,0,0,6.66V30.89a6.67,6.67,0,0,0,6.66,6.66H7.94a9.08,9.08,0,0,0,17.79,0H36.05a9.08,9.08,0,0,0,17.79,0H60a1.81,1.81,0,0,0,1.81-1.81V18.29A1.81,1.81,0,0,0,61.25,17Zm-11.72-6.6,6.07,6.07H42.39V10.41ZM3.62,30.89V6.66a3,3,0,0,1,3-3H35.74a3,3,0,0,1,3,3V29.08a9.08,9.08,0,0,0-2.72,4.85H25.73a9.08,9.08,0,0,0-17.79,0H6.66A3,3,0,0,1,3.62,30.89ZM16.83,41.2a5.46,5.46,0,1,1,5.46-5.46A5.47,5.47,0,0,1,16.83,41.2Zm28.11,0a5.46,5.46,0,1,1,5.46-5.46A5.47,5.47,0,0,1,44.94,41.2Zm8.9-7.27a9.09,9.09,0,0,0-8.9-7.27,9.35,9.35,0,0,0-2.55.36V20.1H58.16V33.93Z"/></g></g></svg>