<svg version="1.1" id="Capa_1" xmlns="http://www.w3.org/2000/svg" xmlns:xlink="http://www.w3.org/1999/xlink" x="0px" y="0px" width="31.703px" height="31.036px" viewBox="0 0 31.703 31.036" enable-background="new 0 0 31.703 31.036" xml:space="preserve"> <g> <defs> <rect id="SVGID_1_" y="0" width="31.703" height="31.036"/> </defs> <clipPath id="SVGID_2_"> <use xlink:href="#SVGID_1_"  overflow="visible"/> </clipPath><path clip-path="url(#SVGID_2_)" fill="none" stroke="#3A3A41" stroke-width="1.001" stroke-linecap="round" stroke-linejoin="round" stroke-miterlimit="10" d=" M21.191,0.501c0.687,5.009,2.52,9.279,10.012,10.011c-7.492,0.732-9.325,5.003-10.012,10.011c-0.688-5.008-1.854-9.28-9.345-10.011 C19.338,9.78,20.504,5.51,21.191,0.501z"/><path clip-path="url(#SVGID_2_)" fill="none" stroke="#3A3A41" stroke-width="1.001" stroke-linecap="round" stroke-linejoin="round" stroke-miterlimit="10" d=" M6.508,23.193C6.1,20.221,4.946,17.621,0.5,17.186c4.445-0.434,5.599-3.035,6.007-6.007c0.407,2.972,1.562,5.573,6.007,6.007 C8.07,17.621,6.915,20.221,6.508,23.193z"/><path clip-path="url(#SVGID_2_)" fill="none" stroke="#3A3A41" stroke-width="1.001" stroke-linecap="round" stroke-linejoin="round" stroke-miterlimit="10" d=" M15.185,30.535c-0.317-2.312-1.215-4.334-4.672-4.672c3.457-0.338,4.355-2.359,4.672-4.672c0.316,2.313,1.214,4.334,4.672,4.672 C16.398,26.2,15.5,28.223,15.185,30.535z"/></g></svg>