<svg xmlns="http://www.w3.org/2000/svg" viewBox="0 0 51.24 52.95"><defs><style>.cls-1{fill:#3a3a41;}</style></defs><title>pictoRecurso 143picto</title><g id="Capa_2" data-name="Capa 2"><g id="Capa_1-2" data-name="Capa 1"><path class="cls-1" d="M37.57,8.65a12.91,12.91,0,0,0-6.89-6.89,12.95,12.95,0,0,0-18,11.93A13,13,0,0,0,20.6,25.62a13,13,0,0,0,17-6.89,13,13,0,0,0,0-10.08ZM25.64,25A11.34,11.34,0,1,1,37,13.69,11.33,11.33,0,0,1,25.64,25Z"/><path class="cls-1" d="M25.64,27.38a13.69,13.69,0,0,1-9.68-4A13.69,13.69,0,1,1,35.32,4a13.73,13.73,0,0,1,4,9.69A13.69,13.69,0,0,1,31,26.3,13.51,13.51,0,0,1,25.64,27.38Zm0-25.9A12.25,12.25,0,0,0,17,5.05a12.2,12.2,0,0,0-3.57,8.64A12.15,12.15,0,0,0,17,22.32,12.21,12.21,0,0,0,36.89,8.93h0a12.42,12.42,0,0,0-2.62-3.88,12.2,12.2,0,0,0-8.63-3.57Zm0,24.28A12.08,12.08,0,1,1,37.72,13.69,12.09,12.09,0,0,1,25.64,25.76Zm0-22.66A10.59,10.59,0,1,0,36.23,13.69,10.6,10.6,0,0,0,25.64,3.1Z"/><path class="cls-1" d="M48.5,41.9A21.67,21.67,0,0,0,43.12,35a25.19,25.19,0,0,0-7.9-4.6,28.27,28.27,0,0,0-19.2,0A25.3,25.3,0,0,0,8.12,35,21.67,21.67,0,0,0,2.74,41.9a19.22,19.22,0,0,0-2,8.54A1.76,1.76,0,0,0,2.5,52.2H48.74a1.76,1.76,0,0,0,1.76-1.76A19.22,19.22,0,0,0,48.5,41.9Zm-46,8.54c0-11,10.35-19.95,23.12-19.95s23.12,8.94,23.12,20Z"/><path class="cls-1" d="M48.74,53H2.5A2.51,2.51,0,0,1,0,50.44a20,20,0,0,1,2.07-8.86,22.54,22.54,0,0,1,5.57-7.14,26.09,26.09,0,0,1,8.12-4.73,29.28,29.28,0,0,1,19.72,0,26.14,26.14,0,0,1,8.13,4.73,22.65,22.65,0,0,1,5.56,7.14h0a19.9,19.9,0,0,1,2.07,8.86A2.51,2.51,0,0,1,48.74,53ZM1.81,51.19a1,1,0,0,0,.69.27H48.74a1,1,0,0,0,.7-.27ZM25.62,29.48a27,27,0,0,0-9.35,1.63,24.28,24.28,0,0,0-7.66,4.46,20.85,20.85,0,0,0-5.2,6.66,18.46,18.46,0,0,0-1.92,8.21,1,1,0,0,0,.27.7v-.7c0-11.41,10.7-20.69,23.86-20.69S49.48,39,49.48,50.44v.7a1,1,0,0,0,.28-.7,18.59,18.59,0,0,0-1.92-8.21,21,21,0,0,0-5.21-6.66A24.39,24.39,0,0,0,35,31.1,27.2,27.2,0,0,0,25.62,29.48ZM3.26,49.7H48c-.45-10.25-10.31-18.46-22.36-18.46S3.72,39.45,3.26,49.7Z"/></g></g></svg>