<svg xmlns="http://www.w3.org/2000/svg" viewBox="0 0 66.98 51.98"><defs><style>.cls-1{fill:#3a3a41;stroke:#3a3a41;stroke-miterlimit:10;stroke-width:0.46px;}</style></defs><title>pictoRecurso 108picto</title><g id="Capa_2" data-name="Capa 2"><g id="Capa_1-2" data-name="Capa 1"><path class="cls-1" d="M43.16,51.75h-11L33,50.28c0-.06,3.31-5.73,3.69-11.05a9.8,9.8,0,0,0-1.39-.71c-2-.9-5.36-2.42-5.36-7.19,0-5.61,4.43-6.49,6.82-7A7,7,0,0,0,38.18,24a4.73,4.73,0,0,0,0-1.82c-.15-1.48-.34-3.32,1-4.44a4.83,4.83,0,0,1,3.62-1,3.77,3.77,0,0,0,2-.28c.6-.32.87-.89,1.26-1.79A6.65,6.65,0,0,1,48,11.86c2-1.59,4.92-1.61,8.63-.06,3.92,1.64,3.37,5.51,3.07,7.59-.05.36-.12.84-.12,1.07.18.11.73.34,1.1.5,1.48.62,3.71,1.56,3.71,3.78a5.75,5.75,0,0,1-1.62,3.71,3.46,3.46,0,0,0-.82,1.33,7.49,7.49,0,0,0,1.07.88c1.86,1.37,5.32,3.92,3,9.08s-5.85,4.48-8.42,4c-1.28-.22-2.39-.41-3.12.06a2.56,2.56,0,0,0-1.14,1.29,8,8,0,0,1-2.72,3.16,21.42,21.42,0,0,1-7.28,3.42Zm-7.68-2h7.44a19.84,19.84,0,0,0,6.45-3.06,6.15,6.15,0,0,0,2.16-2.47,4.41,4.41,0,0,1,1.84-2.08c1.36-.85,3-.59,4.48-.33,2.48.42,4.62.78,6.33-2.94s-.45-5.29-2.34-6.69c-1-.74-1.88-1.37-1.88-2.36a4.29,4.29,0,0,1,1.25-2.64,4,4,0,0,0,1.19-2.49c0-.86-1.08-1.38-2.51-2a4,4,0,0,1-2.07-1.35,3.59,3.59,0,0,1-.08-2.3c.34-2.43.44-4.53-1.89-5.5-3-1.26-5.26-1.34-6.67-.22a4.94,4.94,0,0,0-1.35,2.07,5.09,5.09,0,0,1-2.12,2.74,5.53,5.53,0,0,1-3,.51,3,3,0,0,0-2.3.51c-.54.46-.42,1.68-.31,2.76.14,1.32.28,2.68-.67,3.5a5,5,0,0,1-2.3.8c-3,.59-5.25,1.34-5.25,5,0,3.51,2.24,4.52,4.21,5.41,1.3.59,2.64,1.2,2.54,2.63A30.32,30.32,0,0,1,35.48,49.8Z"/><path class="cls-1" d="M34.48,51.37a1,1,0,0,1-.86-.51A1,1,0,0,1,34,49.54,33.58,33.58,0,0,0,48.9,28.39c-.24-.74-2.35-3-4.24-4.77A1,1,0,1,1,46,22.18c5.22,4.8,4.94,6.09,4.85,6.51A34.88,34.88,0,0,1,34.94,51.25.93.93,0,0,1,34.48,51.37Z"/><path class="cls-1" d="M49.77,29.79a1,1,0,0,1-.36-1.89c2.51-1,5.5-2.55,6-3.37a1,1,0,1,1,1.7,1c-1,1.84-6,3.84-6.94,4.23A1.15,1.15,0,0,1,49.77,29.79Z"/><path class="cls-1" d="M46.57,37.92a1,1,0,0,1-.68-.27c-1-1-4.46-4.43-4.53-6.31a1,1,0,0,1,1-1h0a1,1,0,0,1,1,.94c0,.66,1.85,3,3.93,5a1,1,0,0,1,0,1.38A1,1,0,0,1,46.57,37.92Z"/><path class="cls-1" d="M47,38a1,1,0,0,1-.18-1.94c1.76-.34,4.55-1.08,5.24-1.67a1,1,0,1,1,1.27,1.47C52,37,47.93,37.86,47.13,38Z"/><path class="cls-1" d="M33.13,51.75l-9.42,0a21.42,21.42,0,0,1-7.28-3.42,8,8,0,0,1-2.72-3.16,2.56,2.56,0,0,0-1.14-1.29c-.73-.47-1.84-.28-3.12-.06-2.57.43-6.09,1-8.42-4S2.13,32,4,30.66a7.49,7.49,0,0,0,1.07-.88,3.46,3.46,0,0,0-.82-1.33,5.75,5.75,0,0,1-1.62-3.71c0-2.22,2.23-3.16,3.71-3.78a8.21,8.21,0,0,0,1.1-.52,10,10,0,0,0-.12-1.05c-.29-2.08-.85-6,3.07-7.59,3.71-1.55,6.62-1.53,8.63.06A6.65,6.65,0,0,1,21,14.69c.39.9.66,1.47,1.26,1.79a3.77,3.77,0,0,0,2,.28,4.83,4.83,0,0,1,3.62,1c1.3,1.11,1.08,3,.91,4.45a5.52,5.52,0,0,0,0,1.75c2.63,1.41,2.6,2.85,2.52,7.11v.14c-.05,2.43,0,3.75.09,4.63a8.69,8.69,0,0,1-.38,3.72C29.41,45,33.81,50.07,33.86,50.13l1.43,1.62Zm-9.07-2h7.13C29.78,47.62,27.8,43.52,29,39a6.88,6.88,0,0,0,.32-3.08c-.05-.91-.14-2.27-.09-4.79V31c.08-4.2,0-4.54-1.56-5.42-1.25-.68-1.07-2.25-.91-3.63.13-1.09.27-2.31-.24-2.75a3,3,0,0,0-2.3-.51,5.53,5.53,0,0,1-3-.51,5.09,5.09,0,0,1-2.12-2.74,4.94,4.94,0,0,0-1.35-2.07c-1.41-1.12-3.66-1-6.67.22-2.33,1-2.23,3.07-1.89,5.5a3.59,3.59,0,0,1-.08,2.3,4,4,0,0,1-2.07,1.35c-1.43.6-2.51,1.12-2.51,2a4,4,0,0,0,1.19,2.49A4.29,4.29,0,0,1,7,29.87c0,1-.87,1.62-1.88,2.36-1.89,1.4-4,3-2.33,6.69s3.84,3.36,6.32,2.94c1.53-.26,3.12-.52,4.48.33a4.41,4.41,0,0,1,1.84,2.08,6.15,6.15,0,0,0,2.16,2.47A19.84,19.84,0,0,0,24.06,49.8Z"/><path class="cls-1" d="M32.5,51.37a.93.93,0,0,1-.46-.12A34.88,34.88,0,0,1,16.15,28.69c-.09-.43-.36-1.71,4.85-6.51a1,1,0,1,1,1.32,1.44c-2.11,1.94-4,4.09-4.24,4.77A33.47,33.47,0,0,0,33,49.54a1,1,0,0,1,.39,1.32A1,1,0,0,1,32.5,51.37Z"/><path class="cls-1" d="M17.21,29.79a1,1,0,0,1-.35-.07c-1-.39-5.91-2.39-6.95-4.22a1,1,0,1,1,1.7-1c.46.82,3.45,2.39,6,3.37a1,1,0,0,1-.36,1.89Z"/><path class="cls-1" d="M20.41,37.92a1,1,0,0,1-.7-.3,1,1,0,0,1,0-1.38c2.08-2,3.91-4.31,3.93-5a1,1,0,0,1,1-.94h0a1,1,0,0,1,.95,1c-.07,1.88-3.49,5.3-4.53,6.31A1,1,0,0,1,20.41,37.92Z"/><path class="cls-1" d="M20,38l-.18,0c-.8-.15-4.83-1-6.15-2.12A1,1,0,1,1,15,34.42c.69.59,3.48,1.33,5.24,1.67A1,1,0,0,1,20,38Z"/><path class="cls-1" d="M49.72,12.76a1,1,0,0,1-.34-.06c-4-1.45-4.4-2.2-4.54-2.45a4.79,4.79,0,0,1-.36-1.59c-.15-1.22-.4-3.28-1.45-3.9-1.56-.95-3.91,0-3.93.06a1,1,0,0,1-1.21-.37,5.53,5.53,0,0,0-4.44-2.27,5,5,0,0,0-4.17,1.89,1,1,0,0,1-1.07.41s-2.84-.73-4.37.61A6.69,6.69,0,0,0,22,8.52a6.28,6.28,0,0,1-.62,1.59c-.71,1.07-3.36,2-4.47,2.38a1,1,0,1,1-.61-1.85A11.78,11.78,0,0,0,19.79,9,6.29,6.29,0,0,0,20.15,8a8.61,8.61,0,0,1,2.4-4.35c1.78-1.55,4.34-1.35,5.52-1.16A7.16,7.16,0,0,1,33.45.23,7.49,7.49,0,0,1,39,2.77a6.4,6.4,0,0,1,5,.31c1.86,1.12,2.19,3.76,2.38,5.34,0,.3.08.67.12.85a19.12,19.12,0,0,0,3.51,1.59,1,1,0,0,1-.33,1.9Z"/></g></g></svg>