<svg xmlns="http://www.w3.org/2000/svg" viewBox="0 0 52.66 52.66"><defs><style>.cls-1{fill:#3a3a41;stroke:#3a3a41;stroke-miterlimit:10;stroke-width:0.43px;}</style></defs><title>pictoRecurso 140picto</title><g id="Capa_2" data-name="Capa 2"><g id="Capa_1-2" data-name="Capa 1"><path class="cls-1" d="M26.33.21A26.12,26.12,0,1,0,52.44,26.33,26.13,26.13,0,0,0,26.33.21ZM48.92,35.48l-7.43,1.28a38.64,38.64,0,0,0,1.36-9.56h7.83A24.3,24.3,0,0,1,48.92,35.48ZM2,27.2H9.8a39.13,39.13,0,0,0,1.37,9.56L3.74,35.48A24.07,24.07,0,0,1,2,27.2Zm1.76-10,7.43-1.28A39.13,39.13,0,0,0,9.8,25.46H2A24,24,0,0,1,3.74,17.18Zm23.46-3a59.5,59.5,0,0,1,9.33.85l3.07.53a36.86,36.86,0,0,1,1.51,9.89H27.2Zm9.63-.86a60.92,60.92,0,0,0-9.63-.88V2c5,.48,9.33,5.05,11.78,11.7Zm-11.37-.88a60.92,60.92,0,0,0-9.63.88l-2.15.37C16.13,7.05,20.47,2.48,25.46,2ZM16.13,15a59.5,59.5,0,0,1,9.33-.85V25.46H11.54a37.67,37.67,0,0,1,1.51-9.89ZM11.54,27.2H25.46V38.47a59.51,59.51,0,0,1-9.33-.86l-3.08-.53A37.54,37.54,0,0,1,11.54,27.2Zm4.29,12.13a60.92,60.92,0,0,0,9.63.88V50.66c-5-.48-9.33-5-11.78-11.7Zm11.37.88a60.92,60.92,0,0,0,9.63-.88L39,39c-2.45,6.65-6.79,11.22-11.78,11.7Zm9.33-2.6a59.51,59.51,0,0,1-9.33.86V27.2H41.11a36.73,36.73,0,0,1-1.51,9.88Zm6.32-12.15a38.64,38.64,0,0,0-1.36-9.56l7.43,1.28a24.25,24.25,0,0,1,1.76,8.28ZM48,15.26,40.92,14A24.09,24.09,0,0,0,34,3.19,24.5,24.5,0,0,1,48,15.26ZM18.67,3.19A24.09,24.09,0,0,0,11.74,14L4.62,15.26A24.55,24.55,0,0,1,18.67,3.19ZM4.62,37.4l7.12,1.22a24,24,0,0,0,6.93,10.84A24.54,24.54,0,0,1,4.62,37.4ZM34,49.46a24,24,0,0,0,6.93-10.84L48,37.4A24.49,24.49,0,0,1,34,49.46Z"/></g></g></svg>