<svg xmlns="http://www.w3.org/2000/svg" viewBox="0 0 126.39 163.83"><defs><style>.cls-1,.cls-2{fill:none;stroke:#b1b8ba;stroke-miterlimit:10;stroke-width:2.51px;}.cls-2{stroke-dasharray:10.54 10.54;}</style></defs><g id="Layer_2" data-name="Layer 2"><g id="final_cambios" data-name="final cambios"><polyline class="cls-1" points="96.33 115.53 96.74 161.66 63.29 142.81 30.29 161.66 29.88 115.42"/><circle class="cls-1" cx="63.19" cy="63.19" r="61.94"/><circle class="cls-2" cx="63.19" cy="63.19" r="50.35"/><path class="cls-1" d="M87.84,47.79q-4-4.35-11.83-4.46a29.63,29.63,0,0,0-5.31.56,32.89,32.89,0,0,0-5.16,1.39A8.33,8.33,0,0,0,62.38,47a7.14,7.14,0,0,0-1.15,2.44,28.05,28.05,0,0,0-1,3.79c-.14.8,0,1.21.41,1.25a1.31,1.31,0,0,0,.59-.21,35.18,35.18,0,0,1,5.22-2.17,13.71,13.71,0,0,1,4.19-.66,6.83,6.83,0,0,1,5.38,2.12,6.54,6.54,0,0,1,1.26,5.55,9.37,9.37,0,0,1-3.23,5.69A9.79,9.79,0,0,1,67.81,67,15.64,15.64,0,0,1,62,65.89l-1.52-.52a2,2,0,0,0-.59-.11.76.76,0,0,0-.66.29,7.4,7.4,0,0,0-.74,1.38c-.54,1.33-.94,2.37-1.21,3.11a10.92,10.92,0,0,0-.51,1.66c-.14.6.22,1.06,1.08,1.39a28.85,28.85,0,0,0,5.46,1.68,27.46,27.46,0,0,0,5.64.6,24.29,24.29,0,0,0,14.51-4.45,18.14,18.14,0,0,0,7.28-11.61q1.09-7.17-2.88-11.52"/><path class="cls-1" d="M66.81,76a1.27,1.27,0,0,0-.59.21A36.3,36.3,0,0,1,61,78.33a14.11,14.11,0,0,1-4.2.67,6.86,6.86,0,0,1-5.37-2.13,6.54,6.54,0,0,1-1.27-5.55,9.38,9.38,0,0,1,3.24-5.69,9.69,9.69,0,0,1,6.28-2.2,15.64,15.64,0,0,1,5.83,1.1c.75.27,1.26.45,1.52.52a1.67,1.67,0,0,0,.59.1.73.73,0,0,0,.66-.28A7,7,0,0,0,69,63.49c.54-1.33.95-2.37,1.22-3.11a10.93,10.93,0,0,0,.5-1.66q.22-.9-1.08-1.38a28.29,28.29,0,0,0-5.45-1.69,27.46,27.46,0,0,0-5.64-.6A24.33,24.33,0,0,0,44.05,59.5a18.06,18.06,0,0,0-7.28,11.61q-1.11,7.17,2.88,11.52t11.83,4.46a29.63,29.63,0,0,0,5.31-.56A34.85,34.85,0,0,0,62,85.15a8.49,8.49,0,0,0,3.15-1.72A7.24,7.24,0,0,0,66.26,81a28.05,28.05,0,0,0,1-3.79c.14-.8,0-1.21-.41-1.25"/></g></g></svg>