<svg xmlns="http://www.w3.org/2000/svg" viewBox="0 0 126.39 163.83"><defs><style>.cls-1,.cls-2,.cls-3{fill:none;stroke:#b1b8ba;stroke-width:2.51px;}.cls-1,.cls-2{stroke-miterlimit:10;}.cls-2{stroke-dasharray:10.64;}.cls-3{stroke-linecap:round;stroke-linejoin:round;fill-rule:evenodd;}</style></defs><g id="Layer_2" data-name="Layer 2"><g id="final_cambios" data-name="final cambios"><polyline class="cls-1" points="96.33 115.53 96.74 161.66 63.29 142.81 30.29 161.66 29.88 115.42"/><circle class="cls-1" cx="63.19" cy="63.19" r="61.94"/><circle class="cls-2" cx="63.19" cy="63.19" r="50.35"/><path class="cls-3" d="M82.18,46.57c1.49,11.76.46,12,12.08,14-11.73,2-10.59,2.2-12.08,14-1.49-11.79-.35-12-12.07-14,12-2,10.64-2.6,12.07-14ZM63.64,60c1.84,14.51.57,14.82,14.9,17.25-14.46,2.45-13.06,2.71-14.9,17.25-1.83-14.54-.43-14.8-14.89-17.25C63.55,74.71,61.87,74,63.64,60Zm-14.89-28c2,16,.62,16.3,16.38,19-15.91,2.69-14.36,3-16.38,19-2-16-.48-16.27-16.39-19,16.28-2.76,14.44-3.53,16.39-19Z"/></g></g></svg>