<svg xmlns="http://www.w3.org/2000/svg" viewBox="0 0 126.39 163.83"><defs><style>.cls-1,.cls-2{fill:none;stroke:#b1b8ba;stroke-miterlimit:10;stroke-width:2.51px;}.cls-2{stroke-dasharray:10.64;}</style></defs><g id="Layer_2" data-name="Layer 2"><g id="final_cambios" data-name="final cambios"><polyline class="cls-1" points="96.33 115.53 96.74 161.66 63.29 142.81 30.29 161.66 29.88 115.42"/><circle class="cls-1" cx="63.19" cy="63.19" r="61.94"/><circle class="cls-2" cx="63.19" cy="63.19" r="50.35"/><path class="cls-1" d="M60.91,49c.29-3.47-1.44-6.74-4-7.75a1.68,1.68,0,0,1,1.22-3.13c3.7,1.45,6.18,5.5,6.18,10.1C64.29,49.66,62.4,50.7,60.91,49Zm8.58,40.36c-3.62,0-3.82-1.1-7.18-1.1s-3.57,1.1-7.18,1.1C46.19,89.32,37.2,68.86,41.76,58A13,13,0,0,1,53.17,50.1c4.59,0,5.57,1.95,9.14,1.95s4.55-1.95,9.14-1.95A13,13,0,0,1,82.85,58C87.41,68.86,78.42,89.32,69.49,89.32Zm-2.33-43c0,.3,0,.59,0,.88.29,0,.58,0,.87,0a11,11,0,0,0,11-11c0-.3,0-.58,0-.87a8.46,8.46,0,0,0-.87-.05A11,11,0,0,0,67.16,46.34Z"/></g></g></svg>