<svg xmlns="http://www.w3.org/2000/svg" viewBox="0 0 126.39 163.83"><defs><style>.cls-1,.cls-2{fill:none;stroke:#b1b8ba;stroke-miterlimit:10;stroke-width:2.51px;}.cls-2{stroke-dasharray:10.64;}</style></defs><g id="Layer_2" data-name="Layer 2"><g id="final_cambios" data-name="final cambios"><polyline class="cls-1" points="96.33 115.53 96.74 161.66 63.29 142.81 30.29 161.66 29.88 115.42"/><circle class="cls-1" cx="63.19" cy="63.19" r="61.94"/><circle class="cls-2" cx="63.19" cy="63.19" r="50.35"/><path class="cls-1" d="M50.34,36c9-3.42,20.06,3.55,23.49,12.6,3.59,9.49,3.13,20.38,1.31,28.25L71.73,78.1a77.65,77.65,0,0,0-4.71-27C63.6,42.09,55.62,34,50.34,36c1.87-.71,7.07,8.47,10.49,17.51a206.56,206.56,0,0,1,7.81,25.79l-3.48,1.32A207.16,207.16,0,0,1,54.06,56C50.64,47,48.47,36.67,50.34,36c-5.29,2-5.89,13.37-2.46,22.41a76,76,0,0,0,14,23.45l-3.6,1.36A49.56,49.56,0,0,1,41.07,61c-3.43-9.05.22-21.57,9.27-25A23.68,23.68,0,0,0,36.57,66.47c2.66,7,11.22,13.7,19.18,17.67a43.08,43.08,0,0,0,7.65,3l4.25,6.69a1.07,1.07,0,0,0-.17,1l1.63,4.32a1.06,1.06,0,0,0,1.37.6l6.75-2.55a1.06,1.06,0,0,0,.63-1.35l-1.64-4.33a1,1,0,0,0-.83-.65l-1.23-7.72h0A46.4,46.4,0,0,0,78,75.74c3.39-8.27,5.55-19,2.89-26A23.68,23.68,0,0,0,50.34,36ZM71,92.44l-2.62,1L64.22,87l4.08-1.54Zm3.63-1.37-2.53,1L69.4,85l4-1.51Z"/></g></g></svg>