<svg xmlns="http://www.w3.org/2000/svg" viewBox="0 0 126.39 163.83"><defs><style>.cls-1,.cls-2{fill:none;stroke-width:2.51px;}.cls-1,.cls-2,.cls-3{stroke:#b1b8ba;stroke-miterlimit:10;}.cls-2{stroke-dasharray:10.64;}.cls-3{fill:#b1b8ba;stroke-width:0.89px;}</style></defs><g id="Layer_2" data-name="Layer 2"><g id="final_cambios" data-name="final cambios"><polyline class="cls-1" points="96.33 115.53 96.74 161.66 63.29 142.81 30.29 161.66 29.88 115.42"/><circle class="cls-1" cx="63.19" cy="63.19" r="61.94"/><circle class="cls-2" cx="63.19" cy="63.19" r="50.35"/><path class="cls-3" d="M62.63,78.36c-17.07,0-28-3.13-28-5.28,0-1.43,4.82-3.29,13.07-4.37a20.23,20.23,0,0,0,12.74,6.41,19.41,19.41,0,0,0,4.31,0,20.2,20.2,0,0,0,12.73-6.41c8.25,1.08,13.08,2.94,13.08,4.37,0,2.15-10.9,5.28-28,5.28M43.92,53.07a19.21,19.21,0,0,1,10.34,2.81c-.06.66-.1,1.32-.1,2a21.9,21.9,0,0,0,6.32,15.47,18.94,18.94,0,0,1-16.6-19c0-.42,0-.84,0-1.26m7.78-6.91a14.7,14.7,0,0,1,4.45,2.52A22,22,0,0,0,54.51,54a21,21,0,0,0-4.29-1.82,15.46,15.46,0,0,1,1.48-6m10.93-3.39a20.3,20.3,0,0,1,0,30.21,20.3,20.3,0,0,1,0-30.21m10.93,3.39a15.29,15.29,0,0,1,1.48,6A20.94,20.94,0,0,0,70.76,54a22,22,0,0,0-1.65-5.31,14.82,14.82,0,0,1,4.45-2.52m7.79,6.91c0,.42,0,.84,0,1.26a19,19,0,0,1-16.61,19A21.9,21.9,0,0,0,71.1,57.88c0-.68,0-1.34-.09-2a19.14,19.14,0,0,1,10-2.81h.33m-2.5,14.05a21.09,21.09,0,0,0,4.27-12.79c0-.74,0-1.48-.11-2.2a.87.87,0,0,0-.82-.79c-.39,0-.78,0-1.17,0a21.63,21.63,0,0,0-4.27.44,17.25,17.25,0,0,0-2-7.08.85.85,0,0,0-1-.42,16.58,16.58,0,0,0-5.45,2.84,21.83,21.83,0,0,0-5.12-6.15.86.86,0,0,0-1.09,0A21.83,21.83,0,0,0,57,47.08a16.78,16.78,0,0,0-5.45-2.84.86.86,0,0,0-1,.42,17.24,17.24,0,0,0-2,7.08,21.81,21.81,0,0,0-4.28-.44c-.39,0-.78,0-1.17,0a.86.86,0,0,0-.81.79,20,20,0,0,0-.11,2.2,21.14,21.14,0,0,0,4.26,12.79c-7.41,1.06-13.47,2.95-13.47,6,0,5.17,17.76,7,29.69,7s29.7-1.87,29.7-7c0-3-6.06-4.9-13.48-6"/></g></g></svg>