<svg xmlns="http://www.w3.org/2000/svg" viewBox="0 0 126.39 163.83"><defs><style>.cls-1,.cls-2{fill:none;stroke:#b1b8ba;stroke-miterlimit:10;stroke-width:2.51px;}.cls-2{stroke-dasharray:10.64;}</style></defs><g id="Layer_2" data-name="Layer 2"><g id="final_cambios" data-name="final cambios"><polyline class="cls-1" points="96.33 115.53 96.74 161.66 63.29 142.81 30.29 161.66 29.88 115.42"/><circle class="cls-1" cx="63.19" cy="63.19" r="61.94"/><circle class="cls-2" cx="63.19" cy="63.19" r="50.35"/><path class="cls-1" d="M78.41,39a11.48,11.48,0,0,0-6.19,1.81A13.29,13.29,0,0,0,68.65,44a1.35,1.35,0,0,1-1.08.53,1.34,1.34,0,0,1-.84-.29,1.36,1.36,0,0,1-.23-1.92,16.17,16.17,0,0,1,3.87-3.57,11.55,11.55,0,0,0-15.76.36A11.6,11.6,0,0,0,36.4,48.61C36.4,55,41.6,59.7,48,59.7a10.56,10.56,0,0,0,1.49-.11V79.93A1.52,1.52,0,0,0,51,81.44H75.38a1.52,1.52,0,0,0,1.51-1.51V61.51a10.88,10.88,0,0,0,1.52.11C84.81,61.62,90,57,90,50.56A11.58,11.58,0,0,0,78.41,39ZM59.49,76.35a1.49,1.49,0,0,1-3,0v-16a1.49,1.49,0,0,1,3,0v16Zm10.15,0a1.49,1.49,0,0,1-3,0v-16a1.49,1.49,0,0,1,3,0v16Zm7,13.57h-27a2.67,2.67,0,0,1,0-5.33h27a2.67,2.67,0,1,1,0,5.33Z"/></g></g></svg>