<?xml version="1.0" encoding="utf-8"?>
<!-- Generator: Adobe Illustrator 24.3.0, SVG Export Plug-In . SVG Version: 6.00 Build 0)  -->
<svg version="1.1" xmlns="http://www.w3.org/2000/svg" xmlns:xlink="http://www.w3.org/1999/xlink" x="0px" y="0px"
	 viewBox="0 0 26.5 32.5" style="enable-background:new 0 0 26.5 32.5;" xml:space="preserve">
<style type="text/css">
	.st0{fill:#FFFFFF;}
	.st1{fill:#171714;}
	.st2{fill:none;stroke:#37373F;stroke-width:1.5;stroke-miterlimit:10;}
	.st3{fill:none;stroke:#37373F;stroke-width:1.5;stroke-linecap:round;stroke-miterlimit:10;}
	.st4{fill:none;stroke:#37373F;stroke-width:1.5;stroke-linecap:round;stroke-linejoin:round;stroke-miterlimit:10;}
	.st5{fill:none;stroke:#37373F;stroke-width:1.3;stroke-linecap:round;stroke-linejoin:round;stroke-miterlimit:10;}
	.st6{fill:none;stroke:#37373F;stroke-linecap:round;stroke-linejoin:round;stroke-miterlimit:10;}
	.st7{fill:none;stroke:#37373F;stroke-width:1.4761;stroke-linecap:round;stroke-linejoin:round;stroke-miterlimit:10;}
	.st8{fill:none;stroke:#37373F;stroke-width:1.2;stroke-linecap:round;stroke-linejoin:round;stroke-miterlimit:10;}
	.st9{fill:none;stroke:#37373F;stroke-width:1.3067;stroke-linecap:round;stroke-linejoin:round;stroke-miterlimit:10;}
	.st10{fill:#37373F;}
	.st11{fill:none;stroke:#37373F;stroke-width:2.1163;stroke-linecap:round;stroke-linejoin:round;stroke-miterlimit:10;}
	.st12{fill:none;stroke:#FC5A2A;stroke-width:1.2617;stroke-linecap:round;stroke-miterlimit:10;}
	.st13{fill:#FC5A2A;}
	.st14{fill:#FC5A2A;stroke:#FC5A2A;stroke-width:1.5;stroke-miterlimit:10;}
</style>
<g id="TEXTO">
</g>
<g id="ICONOS">
	<g>
		<g>
			<circle class="st2" cx="13.23" cy="19.27" r="12.48"/>
		</g>
		<g>
			<circle class="st2" cx="13.23" cy="19.27" r="8.72"/>
		</g>
		<rect x="12.2" y="3.96" class="st2" width="2.05" height="2.67"/>
		<path class="st2" d="M17.03,3.82H9.6C9.27,3.82,9,3.54,9,3.21V1.35c0-0.33,0.27-0.6,0.6-0.6h7.43c0.33,0,0.6,0.27,0.6,0.6v1.86
			C17.63,3.54,17.36,3.82,17.03,3.82z"/>
		
			<rect x="21.58" y="8.07" transform="matrix(0.7507 0.6606 -0.6606 0.7507 11.4413 -12.4635)" class="st2" width="1.32" height="1.71"/>
		<path class="st2" d="M24.31,9.37l-2.77-2.44c-0.17-0.15-0.19-0.42-0.04-0.59l0.74-0.85c0.15-0.17,0.42-0.19,0.59-0.04l2.77,2.44
			c0.17,0.15,0.19,0.42,0.04,0.59L24.9,9.33C24.75,9.5,24.48,9.52,24.31,9.37z"/>
		<line class="st3" x1="12.95" y1="14.52" x2="12.95" y2="19.71"/>
		<g>
			<g>
				<line class="st3" x1="5.87" y1="19.58" x2="4.51" y2="19.58"/>
				<line class="st3" x1="21.48" y1="19.58" x2="20.12" y2="19.58"/>
			</g>
			<g>
				<line class="st3" x1="12.95" y1="12.25" x2="12.95" y2="10.89"/>
				<line class="st3" x1="12.95" y1="27.86" x2="12.95" y2="26.5"/>
			</g>
			<g>
				<line class="st3" x1="18.18" y1="14.34" x2="19.14" y2="13.38"/>
				<line class="st3" x1="7.14" y1="25.38" x2="8.1" y2="24.42"/>
			</g>
			<g>
				<line class="st3" x1="17.99" y1="24.6" x2="18.95" y2="25.56"/>
				<line class="st3" x1="6.95" y1="13.56" x2="7.91" y2="14.52"/>
			</g>
		</g>
	</g>
</g>
</svg>
