<?xml version="1.0" encoding="utf-8"?>
<!-- Generator: Adobe Illustrator 16.0.3, SVG Export Plug-In . SVG Version: 6.00 Build 0)  -->
<!DOCTYPE svg PUBLIC "-//W3C//DTD SVG 1.1//EN" "http://www.w3.org/Graphics/SVG/1.1/DTD/svg11.dtd">
<svg version="1.1" id="Capa_1" xmlns="http://www.w3.org/2000/svg" xmlns:xlink="http://www.w3.org/1999/xlink" x="0px" y="0px"
	 width="31.188px" height="38.861px" viewBox="0 0 31.188 38.861" enable-background="new 0 0 31.188 38.861" xml:space="preserve">
<g>
	<defs>
		<rect id="SVGID_1_" width="31.188" height="38.861"/>
	</defs>
	<clipPath id="SVGID_2_">
		<use xlink:href="#SVGID_1_"  overflow="visible"/>
	</clipPath>
	<path clip-path="url(#SVGID_2_)" fill="#3A3A41" d="M10.48,36.053h2.557c0.353,0,0.639-0.286,0.639-0.64
		c0-0.353-0.286-0.638-0.639-0.638H10.48c-0.354,0-0.64,0.285-0.64,0.638C9.84,35.767,10.126,36.053,10.48,36.053"/>
	<path clip-path="url(#SVGID_2_)" fill="none" stroke="#3A3A41" stroke-width="0.5" stroke-miterlimit="10" d="M10.48,36.053h2.557
		c0.353,0,0.639-0.286,0.639-0.64c0-0.353-0.286-0.638-0.639-0.638H10.48c-0.354,0-0.64,0.285-0.64,0.638
		C9.84,35.767,10.126,36.053,10.48,36.053z"/>
	<path clip-path="url(#SVGID_2_)" fill="#3A3A41" d="M0.889,30.177c0.353,0,0.64-0.286,0.64-0.64V5.365h20.459v3.114
		c0,0.354,0.285,0.64,0.64,0.64c0.352,0,0.638-0.286,0.638-0.64V2.807c0-1.15-1.475-2.557-3.196-2.557H3.447
		C1.682,0.252,0.252,1.682,0.25,3.447v26.09C0.25,29.891,0.536,30.177,0.889,30.177 M1.529,3.447c0-1.06,0.858-1.918,1.918-1.918
		h16.623c1.107,0,1.919,0.895,1.919,1.278v1.28H1.529V3.447z"/>
	<path clip-path="url(#SVGID_2_)" fill="none" stroke="#3A3A41" stroke-width="0.5" stroke-miterlimit="10" d="M0.889,30.177
		c0.353,0,0.64-0.286,0.64-0.64V5.365h20.459v3.114c0,0.354,0.285,0.64,0.64,0.64c0.352,0,0.638-0.286,0.638-0.64V2.807
		c0-1.15-1.475-2.557-3.196-2.557H3.447C1.682,0.252,0.252,1.682,0.25,3.447v26.09C0.25,29.891,0.536,30.177,0.889,30.177z
		 M1.529,3.447c0-1.06,0.858-1.918,1.918-1.918h16.623c1.107,0,1.919,0.895,1.919,1.278v1.28H1.529V3.447z"/>
	<path clip-path="url(#SVGID_2_)" fill="#3A3A41" d="M22.628,29.381c-0.354,0-0.64,0.286-0.64,0.639v2.197H1.529V29.66
		c0-0.352-0.286-0.64-0.64-0.64c-0.353,0-0.639,0.288-0.639,0.64v5.754c0.002,1.766,1.432,3.195,3.197,3.197h16.623
		c1.766-0.002,3.194-1.432,3.196-3.197V30.02C23.266,29.667,22.979,29.381,22.628,29.381 M21.988,35.414
		c0,1.061-0.858,1.918-1.919,1.918H3.447c-1.06,0-1.918-0.857-1.918-1.918v-1.918h20.459V35.414z"/>
	<path clip-path="url(#SVGID_2_)" fill="none" stroke="#3A3A41" stroke-width="0.5" stroke-miterlimit="10" d="M22.628,29.381
		c-0.354,0-0.64,0.286-0.64,0.639v2.197H1.529V29.66c0-0.352-0.286-0.64-0.64-0.64c-0.353,0-0.639,0.288-0.639,0.64v5.754
		c0.002,1.766,1.432,3.195,3.197,3.197h16.623c1.766-0.002,3.194-1.432,3.196-3.197V30.02
		C23.266,29.667,22.979,29.381,22.628,29.381z M21.988,35.414c0,1.061-0.858,1.918-1.919,1.918H3.447
		c-1.06,0-1.918-0.857-1.918-1.918v-1.918h20.459V35.414z"/>
	<path clip-path="url(#SVGID_2_)" fill="#3A3A41" d="M30.791,11.628L30.791,11.628c-0.121-0.147-0.301-0.231-0.492-0.231H13.518
		l-0.326-2.199c-0.145-0.938-0.949-1.633-1.898-1.637H8.561v1.279h2.733c0.317-0.001,0.586,0.231,0.633,0.546l2.234,15.079
		c0.144,0.938,0.949,1.632,1.896,1.638h1.572c0.347,0.994,1.434,1.519,2.427,1.173c0.551-0.191,0.982-0.624,1.175-1.173h2.793
		c0.352,0.999,1.447,1.521,2.446,1.169c0.999-0.354,1.523-1.449,1.169-2.448c-0.353-0.999-1.448-1.522-2.446-1.169
		c-0.547,0.194-0.978,0.623-1.169,1.169h-2.793c-0.348-0.994-1.435-1.52-2.429-1.173c-0.55,0.191-0.98,0.623-1.173,1.173h-1.572
		c-0.315-0.002-0.585-0.233-0.633-0.546l-0.203-1.372h13.159c0.309,0,0.572-0.218,0.628-0.521l1.918-10.229
		C30.962,11.969,30.913,11.774,30.791,11.628 M27.851,21.627H15.033l-1.326-8.951h15.825L27.851,21.627z"/>
	<path clip-path="url(#SVGID_2_)" fill="none" stroke="#3A3A41" stroke-width="0.5" stroke-miterlimit="10" d="M30.791,11.628
		L30.791,11.628c-0.121-0.147-0.301-0.231-0.492-0.231H13.518l-0.326-2.199c-0.145-0.938-0.949-1.633-1.898-1.637H8.561v1.279h2.733
		c0.317-0.001,0.586,0.231,0.633,0.546l2.234,15.079c0.144,0.938,0.949,1.632,1.896,1.638h1.572
		c0.347,0.994,1.434,1.519,2.427,1.173c0.551-0.191,0.982-0.624,1.175-1.173h2.793c0.352,0.999,1.447,1.521,2.446,1.169
		c0.999-0.354,1.523-1.449,1.169-2.448c-0.353-0.999-1.448-1.522-2.446-1.169c-0.547,0.194-0.978,0.623-1.169,1.169h-2.793
		c-0.348-0.994-1.435-1.52-2.429-1.173c-0.55,0.191-0.98,0.623-1.173,1.173h-1.572c-0.315-0.002-0.585-0.233-0.633-0.546
		l-0.203-1.372h13.159c0.309,0,0.572-0.218,0.628-0.521l1.918-10.229C30.962,11.969,30.913,11.774,30.791,11.628z M27.851,21.627
		H15.033l-1.326-8.951h15.825L27.851,21.627z"/>
</g>
</svg>
