<?xml version="1.0" encoding="utf-8"?>
<!-- Generator: Adobe Illustrator 16.0.3, SVG Export Plug-In . SVG Version: 6.00 Build 0)  -->
<!DOCTYPE svg PUBLIC "-//W3C//DTD SVG 1.1//EN" "http://www.w3.org/Graphics/SVG/1.1/DTD/svg11.dtd">
<svg version="1.1" id="Capa_1" xmlns="http://www.w3.org/2000/svg" xmlns:xlink="http://www.w3.org/1999/xlink" x="0px" y="0px"
	 width="31.281px" height="31.281px" viewBox="0 0 31.281 31.281" enable-background="new 0 0 31.281 31.281" xml:space="preserve">
<g>
	<defs>
		<rect id="SVGID_1_" y="0" width="31.281" height="31.281"/>
	</defs>
	<clipPath id="SVGID_2_">
		<use xlink:href="#SVGID_1_"  overflow="visible"/>
	</clipPath>
	<path clip-path="url(#SVGID_2_)" fill="#3A3A41" d="M15.641,31.281c8.639,0,15.641-7.002,15.641-15.64
		C31.281,7.002,24.279,0,15.641,0C7.001,0,0,7.003,0,15.641C0,24.278,7.001,31.281,15.641,31.281 M15.641,1.955
		c7.558,0,13.687,6.127,13.687,13.686c0,7.558-6.129,13.685-13.687,13.685c-7.559,0-13.686-6.127-13.686-13.685
		C1.955,8.082,8.082,1.955,15.641,1.955"/>
	<path clip-path="url(#SVGID_2_)" fill="#3A3A41" d="M20.169,12.185c0.455,0.455,1.192,0.455,1.646,0
		c0.456-0.454,0.456-1.191,0-1.646c-3.487-3.488-9.401-2.411-11.445,2.066H9.125c-0.643,0-1.164,0.521-1.164,1.164
		c0,0.644,0.521,1.164,1.164,1.164h0.636c-0.033,0.399-0.036,0.793,0,1.22H9.125c-0.643,0-1.164,0.521-1.164,1.164
		s0.521,1.164,1.164,1.164h1.245c2.055,4.5,7.975,5.537,11.445,2.066c0.456-0.455,0.456-1.191,0-1.646
		c-0.454-0.454-1.191-0.454-1.646,0c-1.983,1.983-5.3,1.841-7.087-0.42h1.364c0.643,0,1.164-0.521,1.164-1.164
		s-0.521-1.164-1.164-1.164h-2.343c-0.053-0.417-0.053-0.802,0-1.22h2.343c0.643,0,1.164-0.52,1.164-1.164
		c0-0.643-0.521-1.164-1.164-1.164h-1.364C14.87,10.344,18.187,10.202,20.169,12.185"/>
</g>
</svg>
