<?xml version="1.0" encoding="utf-8"?>
<!-- Generator: Adobe Illustrator 16.0.3, SVG Export Plug-In . SVG Version: 6.00 Build 0)  -->
<!DOCTYPE svg PUBLIC "-//W3C//DTD SVG 1.1//EN" "http://www.w3.org/Graphics/SVG/1.1/DTD/svg11.dtd">
<svg version="1.1" id="Capa_1" xmlns="http://www.w3.org/2000/svg" xmlns:xlink="http://www.w3.org/1999/xlink" x="0px" y="0px"
	 width="32.759px" height="28.602px" viewBox="0 0 32.759 28.602" enable-background="new 0 0 32.759 28.602" xml:space="preserve">
<g>
	<defs>
		<rect id="SVGID_1_" y="0" width="32.759" height="28.602"/>
	</defs>
	<clipPath id="SVGID_2_">
		<use xlink:href="#SVGID_1_"  overflow="visible"/>
	</clipPath>
	<path clip-path="url(#SVGID_2_)" fill="#3A3A41" d="M23.273,15.575h-4.451c-1.219,0-2.209,0.991-2.209,2.209v3.414
		c0,1.218,0.99,2.209,2.209,2.209h4.451c1.219,0,2.209-0.991,2.209-2.209v-3.414C25.482,16.566,24.492,15.575,23.273,15.575
		 M23.876,21.198c0,0.335-0.274,0.604-0.603,0.604h-4.451c-0.334,0-0.603-0.275-0.603-0.604v-3.414c0-0.335,0.274-0.602,0.603-0.602
		h4.451c0.335,0,0.603,0.273,0.603,0.602V21.198z"/>
	<path clip-path="url(#SVGID_2_)" fill="#3A3A41" d="M32.759,9.371c0-0.14-0.033-0.274-0.107-0.395l-4.873-8.567
		C27.638,0.161,27.37,0,27.083,0H5.669C5.382,0,5.114,0.153,4.974,0.409L0.106,8.976C0.04,9.097,0,9.23,0,9.371
		c0,1.922,1.158,3.568,2.811,4.298v14.13c0,0.441,0.362,0.803,0.804,0.803h4.438h0.02h6.225h0.02h14.82
		c0.442,0,0.803-0.361,0.803-0.803v-14.03c0-0.034,0-0.06-0.007-0.087C31.594,12.952,32.759,11.298,32.759,9.371 M6.139,1.612
		h20.475l3.81,6.701H2.335L6.139,1.612z M23.313,9.914c-0.254,1.446-1.519,2.543-3.039,2.543c-1.519,0-2.784-1.097-3.039-2.543
		H23.313z M15.53,9.914c-0.255,1.446-1.52,2.543-3.039,2.543c-1.52,0-2.785-1.097-3.046-2.543H15.53z M1.661,9.914h6.084
		c-0.254,1.446-1.526,2.543-3.046,2.543C3.18,12.463,1.915,11.359,1.661,9.914 M13.495,26.995H8.875v-8.669
		c0-0.629,0.509-1.144,1.145-1.144h2.336c0.629,0,1.144,0.509,1.144,1.144v8.669H13.495z M28.334,26.995H15.101v-8.669
		c0-1.512-1.231-2.75-2.751-2.75h-2.336c-1.513,0-2.751,1.232-2.751,2.75v8.675H4.417V14.063c0.094,0.006,0.187,0.006,0.281,0.006
		c1.62,0,3.052-0.823,3.896-2.075c0.843,1.252,2.276,2.075,3.896,2.075c1.619,0,3.045-0.823,3.895-2.075
		c0.844,1.252,2.275,2.075,3.889,2.075c1.62,0,3.046-0.823,3.89-2.075c0.844,1.252,2.275,2.075,3.896,2.075
		c0.094,0,0.181-0.006,0.274-0.006V26.995z M28.06,12.463c-1.52,0-2.785-1.098-3.039-2.544h6.084
		C30.845,11.359,29.58,12.463,28.06,12.463"/>
</g>
</svg>
