<?xml version="1.0" encoding="utf-8"?>
<!-- Generator: Adobe Illustrator 16.0.3, SVG Export Plug-In . SVG Version: 6.00 Build 0)  -->
<!DOCTYPE svg PUBLIC "-//W3C//DTD SVG 1.1//EN" "http://www.w3.org/Graphics/SVG/1.1/DTD/svg11.dtd">
<svg version="1.1" id="Capa_1" xmlns="http://www.w3.org/2000/svg" xmlns:xlink="http://www.w3.org/1999/xlink" x="0px" y="0px"
	 width="31.91px" height="31.203px" viewBox="0 0 31.91 31.203" enable-background="new 0 0 31.91 31.203" xml:space="preserve">
<g>
	<defs>
		<rect id="SVGID_1_" width="31.91" height="31.203"/>
	</defs>
	<clipPath id="SVGID_2_">
		<use xlink:href="#SVGID_1_"  overflow="visible"/>
	</clipPath>
	<path clip-path="url(#SVGID_2_)" fill="#3A3A41" d="M15.956,27.726c0.736,0,1.425,0.298,1.943,0.838l0.684,0.715
		c0.181,0.188,0.365,0.296,0.508,0.296c0.246,0,0.393-0.392,0.433-0.51l0.306-0.94c0.363-1.113,1.386-1.861,2.543-1.861
		c0.325,0,0.648,0.06,0.959,0.174l0.927,0.348c0.145,0.055,0.28,0.083,0.395,0.083c0.185,0,0.246-0.07,0.266-0.095
		c0.094-0.106,0.128-0.326,0.093-0.59l-0.132-0.979c-0.1-0.741,0.098-1.467,0.557-2.041c0.459-0.576,1.121-0.931,1.866-0.997
		l0.985-0.09c0.292-0.027,0.514-0.125,0.576-0.258c0.064-0.133,0.003-0.366-0.158-0.61l-0.544-0.826
		c-0.412-0.625-0.548-1.365-0.384-2.082c0.163-0.716,0.607-1.323,1.248-1.707l0.85-0.509c0.251-0.15,0.407-0.335,0.407-0.482
		c0-0.146-0.156-0.331-0.407-0.481l-0.85-0.509c-0.641-0.384-1.085-0.99-1.248-1.708c-0.164-0.717-0.028-1.456,0.384-2.081
		l0.544-0.826c0.161-0.244,0.223-0.478,0.158-0.61c-0.063-0.133-0.284-0.232-0.576-0.257l-0.985-0.09
		c-0.745-0.067-1.407-0.422-1.866-0.997C24.976,7.467,24.778,6.741,24.878,6l0.132-0.981c0.035-0.262,0.001-0.483-0.093-0.589
		c-0.02-0.023-0.082-0.094-0.266-0.094c-0.114,0-0.25,0.028-0.395,0.083L23.33,4.766C23.02,4.882,22.696,4.94,22.371,4.94
		c-1.157,0-2.18-0.747-2.543-1.86l-0.306-0.941c-0.08-0.247-0.237-0.511-0.433-0.511c-0.143,0-0.327,0.108-0.508,0.297l-0.684,0.714
		c-0.518,0.54-1.207,0.837-1.943,0.837c-0.736,0-1.427-0.297-1.944-0.837l-0.684-0.714c-0.18-0.189-0.364-0.297-0.508-0.297
		c-0.246,0-0.393,0.391-0.431,0.511L12.082,3.08c-0.363,1.113-1.385,1.86-2.542,1.86c-0.326,0-0.649-0.058-0.959-0.174L7.653,4.419
		C7.508,4.364,7.373,4.336,7.258,4.336c-0.184,0-0.246,0.071-0.266,0.094C6.899,4.536,6.864,4.757,6.9,5.019L7.032,6
		c0.099,0.741-0.099,1.467-0.558,2.042c-0.458,0.575-1.121,0.93-1.866,0.997l-0.986,0.09C3.333,9.154,3.11,9.253,3.047,9.386
		c-0.063,0.132-0.003,0.366,0.158,0.61l0.544,0.826c0.412,0.625,0.548,1.364,0.384,2.081c-0.163,0.718-0.606,1.324-1.248,1.708
		L2.037,15.12c-0.252,0.15-0.407,0.335-0.407,0.481c0,0.147,0.155,0.332,0.407,0.482l0.849,0.509
		c0.642,0.384,1.085,0.991,1.248,1.708c0.164,0.717,0.028,1.456-0.384,2.081l-0.544,0.826c-0.16,0.244-0.221,0.478-0.158,0.61
		s0.285,0.23,0.575,0.258l0.987,0.09c0.744,0.066,1.407,0.421,1.865,0.996c0.459,0.575,0.657,1.301,0.558,2.042L6.9,26.183
		c-0.035,0.264-0.001,0.483,0.092,0.59c0.02,0.024,0.082,0.095,0.266,0.095c0.114,0,0.25-0.028,0.395-0.083l0.927-0.348
		c0.31-0.114,0.633-0.174,0.959-0.174c1.157,0,2.179,0.748,2.542,1.861l0.307,0.939c0.08,0.247,0.236,0.511,0.431,0.511
		c0.144,0,0.328-0.107,0.508-0.295l0.684-0.716C14.528,28.023,15.219,27.726,15.956,27.726 M19.09,30.953
		c-0.531,0-1.052-0.249-1.503-0.722l-0.686-0.715c-0.509-0.531-1.385-0.531-1.894,0l-0.685,0.715
		c-0.451,0.473-0.971,0.722-1.503,0.722c-0.792,0-1.444-0.547-1.742-1.462l-0.306-0.94c-0.232-0.708-1.003-1.087-1.708-0.823
		l-0.927,0.348c-0.861,0.321-1.693,0.166-2.182-0.395c-0.362-0.415-0.511-1.011-0.421-1.682l0.132-0.98
		C5.714,24.653,5.62,24.3,5.397,24.02c-0.222-0.276-0.546-0.448-0.913-0.481l-0.986-0.09C2.704,23.375,2.086,23,1.805,22.416
		c-0.281-0.584-0.19-1.302,0.249-1.968l0.544-0.826C2.8,19.313,2.87,18.954,2.79,18.606c-0.078-0.348-0.296-0.644-0.612-0.833
		l-0.85-0.509C0.643,16.856,0.25,16.25,0.25,15.601c0-0.647,0.392-1.253,1.077-1.664l0.85-0.508c0.316-0.19,0.533-0.485,0.612-0.832
		c0.08-0.348,0.011-0.708-0.191-1.016l-0.544-0.826c-0.439-0.667-0.53-1.384-0.249-1.968c0.281-0.583,0.898-0.96,1.693-1.032
		l0.986-0.089c0.367-0.033,0.691-0.205,0.913-0.484C5.62,6.904,5.714,6.55,5.666,6.184l-0.132-0.98
		c-0.09-0.671,0.059-1.268,0.421-1.682c0.489-0.56,1.32-0.716,2.182-0.394l0.927,0.346c0.705,0.265,1.476-0.114,1.708-0.822
		l0.306-0.94c0.298-0.916,0.95-1.462,1.742-1.462c0.532,0,1.052,0.249,1.503,0.722l0.685,0.713c0.51,0.534,1.386,0.533,1.894,0
		l0.686-0.714c0.451-0.472,0.972-0.721,1.503-0.721c0.793,0,1.444,0.546,1.743,1.462l0.307,0.94c0.23,0.708,1.001,1.087,1.707,0.822
		l0.927-0.346c0.86-0.322,1.692-0.166,2.182,0.394c0.362,0.413,0.512,1.011,0.421,1.682l-0.132,0.98
		c-0.049,0.366,0.046,0.72,0.269,0.998c0.222,0.278,0.547,0.451,0.913,0.484l0.985,0.089c0.795,0.072,1.412,0.449,1.694,1.033
		c0.28,0.583,0.189,1.3-0.249,1.967l-0.545,0.826c-0.203,0.308-0.271,0.669-0.191,1.017c0.079,0.346,0.297,0.641,0.613,0.831
		l0.849,0.508c0.686,0.411,1.077,1.017,1.077,1.664c0,0.649-0.392,1.255-1.077,1.664l-0.849,0.509
		c-0.316,0.189-0.534,0.485-0.613,0.832c-0.08,0.349-0.012,0.708,0.191,1.017l0.545,0.826c0.438,0.666,0.529,1.384,0.249,1.968
		c-0.282,0.584-0.899,0.959-1.694,1.032l-0.985,0.09c-0.366,0.033-0.691,0.205-0.913,0.481c-0.223,0.28-0.317,0.634-0.269,0.998
		L26.376,26c0.091,0.67-0.059,1.266-0.421,1.681c-0.318,0.364-0.781,0.565-1.304,0.565c-0.281,0-0.576-0.059-0.878-0.171
		l-0.927-0.348c-0.706-0.264-1.477,0.115-1.707,0.823l-0.307,0.94C20.534,30.406,19.883,30.953,19.09,30.953"/>
	<path clip-path="url(#SVGID_2_)" fill="none" stroke="#3A3A41" stroke-width="0.5" stroke-miterlimit="10" d="M15.956,27.726
		c0.736,0,1.425,0.298,1.943,0.838l0.684,0.715c0.181,0.188,0.365,0.296,0.508,0.296c0.246,0,0.393-0.392,0.433-0.51l0.306-0.94
		c0.363-1.113,1.386-1.861,2.543-1.861c0.325,0,0.648,0.06,0.959,0.174l0.927,0.348c0.145,0.055,0.28,0.083,0.395,0.083
		c0.185,0,0.246-0.07,0.266-0.095c0.094-0.106,0.128-0.326,0.093-0.59l-0.132-0.979c-0.1-0.741,0.098-1.467,0.557-2.041
		c0.459-0.576,1.121-0.931,1.866-0.997l0.985-0.09c0.292-0.027,0.514-0.125,0.576-0.258c0.064-0.133,0.003-0.366-0.158-0.61
		l-0.544-0.826c-0.412-0.625-0.548-1.365-0.384-2.082c0.163-0.716,0.607-1.323,1.248-1.707l0.85-0.509
		c0.251-0.15,0.407-0.335,0.407-0.482c0-0.146-0.156-0.331-0.407-0.481l-0.85-0.509c-0.641-0.384-1.085-0.99-1.248-1.708
		c-0.164-0.717-0.028-1.456,0.384-2.081l0.544-0.826c0.161-0.244,0.223-0.478,0.158-0.61c-0.063-0.133-0.284-0.232-0.576-0.257
		l-0.985-0.09c-0.745-0.067-1.407-0.422-1.866-0.997C24.976,7.467,24.778,6.741,24.878,6l0.132-0.981
		c0.035-0.262,0.001-0.483-0.093-0.589c-0.02-0.023-0.082-0.094-0.266-0.094c-0.114,0-0.25,0.028-0.395,0.083L23.33,4.766
		C23.02,4.882,22.696,4.94,22.371,4.94c-1.157,0-2.18-0.747-2.543-1.86l-0.306-0.941c-0.08-0.247-0.237-0.511-0.433-0.511
		c-0.143,0-0.327,0.108-0.508,0.297l-0.684,0.714c-0.518,0.54-1.207,0.837-1.943,0.837c-0.736,0-1.427-0.297-1.944-0.837
		l-0.684-0.714c-0.18-0.189-0.364-0.297-0.508-0.297c-0.246,0-0.393,0.391-0.431,0.511L12.082,3.08
		c-0.363,1.113-1.385,1.86-2.542,1.86c-0.326,0-0.649-0.058-0.959-0.174L7.653,4.419C7.508,4.364,7.373,4.336,7.258,4.336
		c-0.184,0-0.246,0.071-0.266,0.094C6.899,4.536,6.864,4.757,6.9,5.019L7.032,6c0.099,0.741-0.099,1.467-0.558,2.042
		c-0.458,0.575-1.121,0.93-1.866,0.997l-0.986,0.09C3.333,9.154,3.11,9.253,3.047,9.386c-0.063,0.132-0.003,0.366,0.158,0.61
		l0.544,0.826c0.412,0.625,0.548,1.364,0.384,2.081c-0.163,0.718-0.606,1.324-1.248,1.708L2.037,15.12
		c-0.252,0.15-0.407,0.335-0.407,0.481c0,0.147,0.155,0.332,0.407,0.482l0.849,0.509c0.642,0.384,1.085,0.991,1.248,1.708
		c0.164,0.717,0.028,1.456-0.384,2.081l-0.544,0.826c-0.16,0.244-0.221,0.478-0.158,0.61s0.285,0.23,0.575,0.258l0.987,0.09
		c0.744,0.066,1.407,0.421,1.865,0.996c0.459,0.575,0.657,1.301,0.558,2.042L6.9,26.183c-0.035,0.264-0.001,0.483,0.092,0.59
		c0.02,0.024,0.082,0.095,0.266,0.095c0.114,0,0.25-0.028,0.395-0.083l0.927-0.348c0.31-0.114,0.633-0.174,0.959-0.174
		c1.157,0,2.179,0.748,2.542,1.861l0.307,0.939c0.08,0.247,0.236,0.511,0.431,0.511c0.144,0,0.328-0.107,0.508-0.295l0.684-0.716
		C14.528,28.023,15.219,27.726,15.956,27.726 M19.09,30.953c-0.531,0-1.052-0.249-1.503-0.722l-0.686-0.715
		c-0.509-0.531-1.385-0.531-1.894,0l-0.685,0.715c-0.451,0.473-0.971,0.722-1.503,0.722c-0.792,0-1.444-0.547-1.742-1.462
		l-0.306-0.94c-0.232-0.708-1.003-1.087-1.708-0.823l-0.927,0.348c-0.861,0.321-1.693,0.166-2.182-0.395
		c-0.362-0.415-0.511-1.011-0.421-1.682l0.132-0.98C5.714,24.653,5.62,24.3,5.397,24.02c-0.222-0.276-0.546-0.448-0.913-0.481
		l-0.986-0.09C2.704,23.375,2.086,23,1.805,22.416c-0.281-0.584-0.19-1.302,0.249-1.968l0.544-0.826
		C2.8,19.313,2.87,18.954,2.79,18.606c-0.078-0.348-0.296-0.644-0.612-0.833l-0.85-0.509C0.643,16.856,0.25,16.25,0.25,15.601
		c0-0.647,0.392-1.253,1.077-1.664l0.85-0.508c0.316-0.19,0.533-0.485,0.612-0.832c0.08-0.348,0.011-0.708-0.191-1.016l-0.544-0.826
		c-0.439-0.667-0.53-1.384-0.249-1.968c0.281-0.583,0.898-0.96,1.693-1.032l0.986-0.089c0.367-0.033,0.691-0.205,0.913-0.484
		C5.62,6.904,5.714,6.55,5.666,6.184l-0.132-0.98c-0.09-0.671,0.059-1.268,0.421-1.682c0.489-0.56,1.32-0.716,2.182-0.394
		l0.927,0.346c0.705,0.265,1.476-0.114,1.708-0.822l0.306-0.94c0.298-0.916,0.95-1.462,1.742-1.462c0.532,0,1.052,0.249,1.503,0.722
		l0.685,0.713c0.51,0.534,1.386,0.533,1.894,0l0.686-0.714c0.451-0.472,0.972-0.721,1.503-0.721c0.793,0,1.444,0.546,1.743,1.462
		l0.307,0.94c0.23,0.708,1.001,1.087,1.707,0.822l0.927-0.346c0.86-0.322,1.692-0.166,2.182,0.394
		c0.362,0.413,0.512,1.011,0.421,1.682l-0.132,0.98c-0.049,0.366,0.046,0.72,0.269,0.998c0.222,0.278,0.547,0.451,0.913,0.484
		l0.985,0.089c0.795,0.072,1.412,0.449,1.694,1.033c0.28,0.583,0.189,1.3-0.249,1.967l-0.545,0.826
		c-0.203,0.308-0.271,0.669-0.191,1.017c0.079,0.346,0.297,0.641,0.613,0.831l0.849,0.508c0.686,0.411,1.077,1.017,1.077,1.664
		c0,0.649-0.392,1.255-1.077,1.664l-0.849,0.509c-0.316,0.189-0.534,0.485-0.613,0.832c-0.08,0.349-0.012,0.708,0.191,1.017
		l0.545,0.826c0.438,0.666,0.529,1.384,0.249,1.968c-0.282,0.584-0.899,0.959-1.694,1.032l-0.985,0.09
		c-0.366,0.033-0.691,0.205-0.913,0.481c-0.223,0.28-0.317,0.634-0.269,0.998L26.376,26c0.091,0.67-0.059,1.266-0.421,1.681
		c-0.318,0.364-0.781,0.565-1.304,0.565c-0.281,0-0.576-0.059-0.878-0.171l-0.927-0.348c-0.706-0.264-1.477,0.115-1.707,0.823
		l-0.307,0.94C20.534,30.406,19.883,30.953,19.09,30.953"/>
	<path clip-path="url(#SVGID_2_)" fill="#3A3A41" d="M20.478,16.808c-0.365,0-0.673,0.054-0.914,0.161
		c-0.227,0.1-0.407,0.236-0.549,0.414c-0.149,0.188-0.262,0.42-0.334,0.686c-0.082,0.297-0.122,0.636-0.122,1.003
		c0,0.378,0.034,0.725,0.104,1.029c0.059,0.26,0.153,0.473,0.289,0.65c0.123,0.162,0.292,0.289,0.513,0.387
		c0.238,0.103,0.556,0.156,0.945,0.156c0.36,0,0.668-0.055,0.91-0.158c0.229-0.101,0.411-0.234,0.556-0.408
		c0.148-0.182,0.262-0.411,0.336-0.68c0.084-0.305,0.127-0.655,0.127-1.045c0-0.334-0.033-0.656-0.098-0.957
		c-0.055-0.261-0.146-0.477-0.281-0.665c-0.121-0.167-0.289-0.301-0.512-0.405C21.21,16.864,20.884,16.808,20.478,16.808
		 M20.409,22.673c-0.581,0-1.085-0.092-1.499-0.272c-0.436-0.191-0.788-0.465-1.056-0.812c-0.255-0.333-0.436-0.732-0.538-1.186
		c-0.091-0.402-0.137-0.852-0.137-1.332c0-0.49,0.057-0.949,0.17-1.365c0.122-0.446,0.318-0.845,0.586-1.181
		c0.28-0.352,0.641-0.626,1.071-0.818c0.418-0.185,0.913-0.279,1.471-0.279c0.61,0,1.133,0.1,1.555,0.299
		c0.436,0.203,0.786,0.489,1.046,0.848c0.245,0.344,0.418,0.742,0.511,1.183c0.085,0.394,0.128,0.813,0.128,1.244
		c0,0.514-0.061,0.987-0.177,1.41c-0.125,0.456-0.328,0.857-0.602,1.189c-0.279,0.341-0.641,0.61-1.069,0.798
		C21.451,22.582,20.96,22.673,20.409,22.673"/>
	<path clip-path="url(#SVGID_2_)" fill="#3A3A41" d="M12.07,9.238c-0.365,0-0.673,0.054-0.915,0.161
		c-0.227,0.1-0.407,0.237-0.549,0.414c-0.149,0.188-0.261,0.419-0.334,0.686c-0.082,0.297-0.123,0.635-0.123,1.004
		c0,0.377,0.035,0.724,0.104,1.027c0.059,0.26,0.154,0.474,0.289,0.652c0.124,0.162,0.292,0.288,0.514,0.386
		c0.237,0.103,0.555,0.156,0.945,0.156c0.361,0,0.667-0.053,0.91-0.158c0.23-0.1,0.412-0.234,0.555-0.408
		c0.149-0.182,0.263-0.411,0.337-0.681c0.084-0.303,0.126-0.654,0.126-1.043c0-0.335-0.032-0.657-0.096-0.959
		C13.777,10.216,13.684,10,13.55,9.812c-0.121-0.168-0.288-0.301-0.512-0.405C12.801,9.294,12.475,9.238,12.07,9.238 M12.001,15.104
		c-0.581,0-1.085-0.092-1.5-0.272c-0.434-0.192-0.788-0.464-1.054-0.812c-0.256-0.335-0.437-0.732-0.539-1.185
		c-0.091-0.403-0.137-0.851-0.137-1.331c0-0.492,0.057-0.952,0.171-1.367c0.121-0.448,0.319-0.845,0.585-1.18
		c0.279-0.351,0.639-0.626,1.07-0.818c0.42-0.185,0.915-0.279,1.473-0.279c0.609,0,1.132,0.1,1.553,0.299
		c0.436,0.203,0.788,0.489,1.047,0.849c0.246,0.343,0.416,0.74,0.511,1.181c0.084,0.395,0.127,0.814,0.127,1.246
		c0,0.513-0.059,0.987-0.176,1.409c-0.126,0.457-0.328,0.858-0.601,1.19c-0.281,0.341-0.642,0.61-1.071,0.798
		C13.042,15.011,12.552,15.104,12.001,15.104"/>
	
		<rect x="15.337" y="7.449" transform="matrix(0.8082 0.5888 -0.5888 0.8082 12.2293 -6.4557)" clip-path="url(#SVGID_2_)" fill="#3A3A41" width="1.38" height="16.201"/>
</g>
</svg>
