<?xml version="1.0" encoding="utf-8"?>
<!-- Generator: Adobe Illustrator 16.0.3, SVG Export Plug-In . SVG Version: 6.00 Build 0)  -->
<!DOCTYPE svg PUBLIC "-//W3C//DTD SVG 1.1//EN" "http://www.w3.org/Graphics/SVG/1.1/DTD/svg11.dtd">
<svg version="1.1" id="Capa_1" xmlns="http://www.w3.org/2000/svg" xmlns:xlink="http://www.w3.org/1999/xlink" x="0px" y="0px"
	 width="27.622px" height="28.54px" viewBox="0 0 27.622 28.54" enable-background="new 0 0 27.622 28.54" xml:space="preserve">
<g>
	<defs>
		<rect id="SVGID_1_" width="27.622" height="28.54"/>
	</defs>
	<clipPath id="SVGID_2_">
		<use xlink:href="#SVGID_1_"  overflow="visible"/>
	</clipPath>
	<path clip-path="url(#SVGID_2_)" fill="#3A3A41" d="M20.252,4.66c-0.352-0.831-0.854-1.577-1.496-2.218
		c-0.641-0.641-1.387-1.144-2.218-1.496c-0.861-0.364-1.775-0.549-2.718-0.549c-0.942,0-1.856,0.185-2.718,0.549
		c-0.831,0.352-1.577,0.855-2.219,1.496C8.243,3.083,7.74,3.829,7.388,4.66C7.024,5.522,6.84,6.436,6.84,7.378
		s0.184,1.856,0.548,2.717c0.352,0.831,0.855,1.578,1.495,2.219c0.642,0.64,1.388,1.144,2.219,1.495
		c0.862,0.365,1.776,0.549,2.718,0.549c0.942,0,1.856-0.184,2.718-0.549c0.831-0.351,1.577-0.855,2.218-1.495
		c0.642-0.641,1.145-1.388,1.496-2.219c0.364-0.861,0.549-1.775,0.549-2.717S20.616,5.522,20.252,4.66 M13.82,13.487
		c-3.374,0-6.109-2.735-6.109-6.109s2.735-6.109,6.109-6.109s6.109,2.735,6.109,6.109S17.194,13.487,13.82,13.487"/>
	<path clip-path="url(#SVGID_2_)" fill="#3A3A41" d="M13.82,14.757c-0.996,0-1.963-0.195-2.874-0.58
		c-0.877-0.371-1.666-0.903-2.345-1.581c-0.677-0.677-1.209-1.467-1.581-2.346C6.634,9.34,6.439,8.374,6.439,7.377
		s0.195-1.962,0.581-2.873C7.391,3.625,7.924,2.836,8.6,2.158c0.68-0.678,1.469-1.21,2.346-1.581c1.822-0.77,3.926-0.77,5.748,0
		c0.878,0.371,1.667,0.904,2.345,1.581c0.677,0.677,1.21,1.467,1.581,2.346c0.386,0.911,0.581,1.877,0.581,2.873
		S21.006,9.34,20.62,10.25c-0.372,0.88-0.904,1.669-1.582,2.346c-0.677,0.677-1.466,1.21-2.344,1.581
		C15.783,14.563,14.816,14.757,13.82,14.757 M13.82,0.796c-0.889,0-1.75,0.175-2.562,0.518c-0.783,0.331-1.486,0.805-2.092,1.41
		C8.563,3.329,8.088,4.032,7.757,4.815C7.414,5.627,7.24,6.489,7.24,7.377c0,0.889,0.174,1.75,0.517,2.562
		c0.332,0.784,0.805,1.487,1.41,2.091c0.605,0.605,1.308,1.079,2.091,1.41c1.624,0.686,3.5,0.686,5.124,0
		c0.783-0.331,1.486-0.805,2.091-1.41c0.604-0.603,1.079-1.307,1.41-2.091C20.227,9.127,20.4,8.267,20.4,7.377
		c0-0.888-0.174-1.75-0.518-2.562c-0.331-0.783-0.806-1.487-1.41-2.091c-0.604-0.605-1.308-1.079-2.091-1.41
		C15.57,0.972,14.709,0.796,13.82,0.796 M13.82,13.886c-3.589,0-6.51-2.92-6.51-6.509s2.921-6.509,6.51-6.509s6.51,2.92,6.51,6.509
		S17.409,13.886,13.82,13.886 M13.82,1.668c-3.148,0-5.709,2.561-5.709,5.709s2.561,5.709,5.709,5.709
		c3.148,0,5.709-2.561,5.709-5.709S16.969,1.668,13.82,1.668"/>
	<path clip-path="url(#SVGID_2_)" fill="#3A3A41" d="M26.146,22.588c-0.685-1.396-1.661-2.647-2.902-3.719
		c-1.232-1.063-2.665-1.896-4.256-2.478c-1.642-0.6-3.383-0.903-5.177-0.903c-1.793,0-3.535,0.304-5.176,0.903
		c-1.592,0.581-3.023,1.415-4.256,2.478c-1.241,1.071-2.218,2.322-2.902,3.719C0.763,24.046,0.4,25.594,0.4,27.191
		c0,0.251,0.099,0.493,0.277,0.67c0.179,0.179,0.42,0.279,0.671,0.279h24.925c0.523,0,0.948-0.425,0.948-0.949
		C27.222,25.594,26.859,24.046,26.146,22.588 M1.349,27.191c0-5.939,5.58-10.754,12.462-10.754c6.883,0,12.463,4.814,12.463,10.754
		H1.349z"/>
	<path clip-path="url(#SVGID_2_)" fill="#3A3A41" d="M26.273,28.541H1.349c-0.36,0-0.698-0.142-0.953-0.396
		C0.141,27.891,0,27.552,0,27.191c0-1.659,0.376-3.267,1.117-4.779c0.707-1.443,1.717-2.737,3-3.846
		c1.27-1.095,2.744-1.953,4.38-2.551c3.369-1.23,7.254-1.231,10.627,0c1.638,0.598,3.111,1.456,4.381,2.551
		c1.282,1.106,2.291,2.4,3,3.845v0.001c0.741,1.513,1.117,3.12,1.117,4.779C27.622,27.936,27.017,28.541,26.273,28.541
		 M0.974,27.592c0.102,0.096,0.235,0.148,0.375,0.148h24.925c0.145,0,0.276-0.057,0.375-0.148H0.974z M13.811,15.889
		c-1.746,0-3.442,0.296-5.039,0.879c-1.546,0.563-2.936,1.374-4.131,2.404c-1.202,1.037-2.146,2.246-2.805,3.592
		c-0.687,1.403-1.035,2.892-1.035,4.428c0,0.142,0.052,0.273,0.147,0.375v-0.375c0-6.149,5.771-11.154,12.863-11.154
		s12.863,5.005,12.863,11.154v0.375c0.092-0.098,0.146-0.229,0.146-0.375c0-1.536-0.347-3.024-1.034-4.428
		c-0.661-1.347-1.604-2.556-2.805-3.592c-1.195-1.03-2.585-1.841-4.132-2.405C17.252,16.185,15.557,15.889,13.811,15.889
		 M1.758,26.792h24.106c-0.245-5.525-5.559-9.954-12.053-9.954C7.316,16.838,2.003,21.267,1.758,26.792"/>
</g>
</svg>
