<?xml version="1.0" encoding="utf-8"?>
<!-- Generator: Adobe Illustrator 24.3.0, SVG Export Plug-In . SVG Version: 6.00 Build 0)  -->
<svg version="1.1" xmlns="http://www.w3.org/2000/svg" xmlns:xlink="http://www.w3.org/1999/xlink" x="0px" y="0px"
	 viewBox="0 0 26.5 26.5" style="enable-background:new 0 0 26.5 26.5;" xml:space="preserve">
<style type="text/css">
	.st0{fill:#FFFFFF;}
	.st1{fill:#171714;}
	.st2{fill:none;stroke:#37373F;stroke-width:1.5;stroke-miterlimit:10;}
	.st3{fill:none;stroke:#37373F;stroke-width:1.5;stroke-linecap:round;stroke-miterlimit:10;}
	.st4{fill:none;stroke:#37373F;stroke-width:1.5;stroke-linecap:round;stroke-linejoin:round;stroke-miterlimit:10;}
	.st5{fill:none;stroke:#37373F;stroke-width:1.3;stroke-linecap:round;stroke-linejoin:round;stroke-miterlimit:10;}
	.st6{fill:none;stroke:#37373F;stroke-linecap:round;stroke-linejoin:round;stroke-miterlimit:10;}
	.st7{fill:none;stroke:#37373F;stroke-width:1.4761;stroke-linecap:round;stroke-linejoin:round;stroke-miterlimit:10;}
	.st8{fill:none;stroke:#37373F;stroke-width:1.2;stroke-linecap:round;stroke-linejoin:round;stroke-miterlimit:10;}
	.st9{fill:none;stroke:#37373F;stroke-width:1.3067;stroke-linecap:round;stroke-linejoin:round;stroke-miterlimit:10;}
	.st10{fill:#37373F;}
	.st11{fill:none;stroke:#37373F;stroke-width:2.1163;stroke-linecap:round;stroke-linejoin:round;stroke-miterlimit:10;}
	.st12{fill:none;stroke:#FC5A2A;stroke-width:1.2617;stroke-linecap:round;stroke-miterlimit:10;}
	.st13{fill:#FC5A2A;}
	.st14{fill:#FC5A2A;stroke:#FC5A2A;stroke-width:1.5;stroke-miterlimit:10;}
</style>
<g id="TEXTO">
</g>
<g id="ICONOS">
	<g>
		<g>
			<path class="st4" d="M21.77,20.21c0.06-0.08,0.13-0.17,0.21-0.24c0.86-0.86,2.27-0.86,3.12,0c0.86,0.86,0.86,2.27,0,3.12
				c-0.38,0.39-0.87,0.59-1.38,0.63c-0.04,0.5-0.25,1-0.63,1.38c-0.86,0.86-2.27,0.86-3.12,0c-0.86-0.86-0.86-2.27,0-3.13
				c0.07-0.07,0.16-0.14,0.24-0.21"/>
		</g>
		<path class="st4" d="M3.02,3.02C0,6.04-0.01,10.93,3.01,13.95c1.22,1.22,2.74,1.94,4.32,2.18c2.14,0.32,4.24,0.92,5.83,1.73
			c1.4,0.71,3.89,0.8,4.69,0c0.8-0.8,0.71-3.29,0-4.69c-0.8-1.59-1.41-3.69-1.73-5.83c-0.24-1.58-0.96-3.1-2.18-4.32
			C10.93-0.01,6.04,0,3.02,3.02z"/>
		<line class="st4" x1="21.77" y1="20.21" x2="18.44" y2="16.87"/>
		<line class="st4" x1="19" y1="20.76" x2="17.07" y2="18.63"/>
	</g>
</g>
</svg>
