<?xml version="1.0" encoding="utf-8"?>
<!-- Generator: Adobe Illustrator 24.3.0, SVG Export Plug-In . SVG Version: 6.00 Build 0)  -->
<svg version="1.1" xmlns="http://www.w3.org/2000/svg" xmlns:xlink="http://www.w3.org/1999/xlink" x="0px" y="0px"
	 viewBox="0 0 13.93 30" style="enable-background:new 0 0 13.93 30;" xml:space="preserve">
<style type="text/css">
	.st0{fill:#FFFFFF;}
	.st1{fill:#171714;}
	.st2{fill:none;stroke:#37373F;stroke-width:1.5;stroke-miterlimit:10;}
	.st3{fill:none;stroke:#37373F;stroke-width:1.5;stroke-linecap:round;stroke-miterlimit:10;}
	.st4{fill:none;stroke:#37373F;stroke-width:1.5;stroke-linecap:round;stroke-linejoin:round;stroke-miterlimit:10;}
	.st5{fill:none;stroke:#37373F;stroke-width:1.3;stroke-linecap:round;stroke-linejoin:round;stroke-miterlimit:10;}
	.st6{fill:none;stroke:#37373F;stroke-linecap:round;stroke-linejoin:round;stroke-miterlimit:10;}
	.st7{fill:none;stroke:#37373F;stroke-width:1.4761;stroke-linecap:round;stroke-linejoin:round;stroke-miterlimit:10;}
	.st8{fill:none;stroke:#37373F;stroke-width:1.2;stroke-linecap:round;stroke-linejoin:round;stroke-miterlimit:10;}
	.st9{fill:none;stroke:#37373F;stroke-width:1.3067;stroke-linecap:round;stroke-linejoin:round;stroke-miterlimit:10;}
	.st10{fill:#37373F;}
	.st11{fill:none;stroke:#37373F;stroke-width:2.1163;stroke-linecap:round;stroke-linejoin:round;stroke-miterlimit:10;}
	.st12{fill:none;stroke:#FC5A2A;stroke-width:1.2617;stroke-linecap:round;stroke-miterlimit:10;}
	.st13{fill:#FC5A2A;}
	.st14{fill:#FC5A2A;stroke:#FC5A2A;stroke-width:1.5;stroke-miterlimit:10;}
</style>
<g id="TEXTO">
</g>
<g id="ICONOS">
	<g>
		<g>
			<path class="st2" d="M6.11,22.34c2.08,2.4,1.24,5.2,1.24,5.2s-3.46,0.43-5.15-1.28c-2.19-2.22-1.24-5.2-1.24-5.2
				S4.54,20.52,6.11,22.34z"/>
			<path class="st2" d="M7.54,27.59c1.15,0,3.07-0.19,4.2-1.33c2.19-2.22,1.24-5.2,1.24-5.2s-3.58-0.53-5.15,1.28
				c-0.31,0.36-0.55,0.72-0.75,1.09"/>
		</g>
		<path class="st2" d="M2.19,20.63c-2.19-2.22-1.24-5.2-1.24-5.2s3.58-0.53,5.15,1.28c2.08,2.4,1.24,5.2,1.24,5.2
			S6.64,22,5.71,21.94"/>
		<path class="st2" d="M11.63,20.73c0.03-0.03,0.07-0.07,0.1-0.1c2.19-2.22,1.24-5.2,1.24-5.2s-3.58-0.53-5.15,1.28
			c-0.31,0.36-0.55,0.72-0.75,1.09"/>
		<path class="st2" d="M2.19,15C0,12.78,0.96,9.8,0.96,9.8s3.58-0.53,5.15,1.28c2.08,2.4,1.24,5.2,1.24,5.2s-0.44,0.05-1.09,0.05"/>
		<path class="st2" d="M11.73,15c2.19-2.22,1.24-5.2,1.24-5.2s-3.58-0.53-5.15,1.28c-0.31,0.36-0.55,0.72-0.75,1.09"/>
		<path class="st2" d="M4.2,9.11C4.22,5.99,7,4.56,7,4.56s2.91,2.15,2.74,4.55"/>
		<line class="st2" x1="1.9" y1="0" x2="1.9" y2="7.38"/>
		<line class="st2" x1="5.28" y1="0" x2="5.28" y2="2.86"/>
		<line class="st2" x1="8.66" y1="0" x2="8.66" y2="2.86"/>
		<line class="st2" x1="6.97" y1="28.19" x2="6.97" y2="30"/>
		<line class="st2" x1="12.05" y1="0" x2="12.05" y2="7.38"/>
	</g>
</g>
</svg>
