<?xml version="1.0" encoding="utf-8"?>
<!-- Generator: Adobe Illustrator 24.3.0, SVG Export Plug-In . SVG Version: 6.00 Build 0)  -->
<svg version="1.1" xmlns="http://www.w3.org/2000/svg" xmlns:xlink="http://www.w3.org/1999/xlink" x="0px" y="0px"
	 viewBox="0 0 26.3 26.65" style="enable-background:new 0 0 26.3 26.65;" xml:space="preserve">
<style type="text/css">
	.st0{fill:#FFFFFF;}
	.st1{fill:#171714;}
	.st2{fill:none;stroke:#37373F;stroke-width:1.5;stroke-miterlimit:10;}
	.st3{fill:none;stroke:#37373F;stroke-width:1.5;stroke-linecap:round;stroke-miterlimit:10;}
	.st4{fill:none;stroke:#37373F;stroke-width:1.5;stroke-linecap:round;stroke-linejoin:round;stroke-miterlimit:10;}
	.st5{fill:none;stroke:#37373F;stroke-width:1.3;stroke-linecap:round;stroke-linejoin:round;stroke-miterlimit:10;}
	.st6{fill:none;stroke:#37373F;stroke-linecap:round;stroke-linejoin:round;stroke-miterlimit:10;}
	.st7{fill:none;stroke:#37373F;stroke-width:1.4761;stroke-linecap:round;stroke-linejoin:round;stroke-miterlimit:10;}
	.st8{fill:none;stroke:#37373F;stroke-width:1.2;stroke-linecap:round;stroke-linejoin:round;stroke-miterlimit:10;}
	.st9{fill:none;stroke:#37373F;stroke-width:1.3067;stroke-linecap:round;stroke-linejoin:round;stroke-miterlimit:10;}
	.st10{fill:#37373F;}
	.st11{fill:none;stroke:#37373F;stroke-width:2.1163;stroke-linecap:round;stroke-linejoin:round;stroke-miterlimit:10;}
	.st12{fill:none;stroke:#FC5A2A;stroke-width:1.2617;stroke-linecap:round;stroke-miterlimit:10;}
	.st13{fill:#FC5A2A;}
	.st14{fill:#FC5A2A;stroke:#FC5A2A;stroke-width:1.5;stroke-miterlimit:10;}
</style>
<g id="TEXTO">
</g>
<g id="ICONOS">
	<g>
		<path class="st5" d="M3.16,10.22c-0.3,0.98-0.47,2.02-0.47,3.1c0,5.77,4.68,10.45,10.45,10.45c1.69,0,3.28-0.4,4.7-1.11"/>
		<path class="st5" d="M18.64,4.43c-1.6-0.99-3.48-1.56-5.5-1.56c-1.76,0-3.41,0.43-4.86,1.2"/>
		<path class="st5" d="M23.14,16.4c0.3-0.97,0.46-2.01,0.46-3.08c0-2.24-0.71-4.32-1.91-6.02"/>
		<path class="st5" d="M3.58,5.03c-5.88,6.74-2.41,17.75,6.01,20.43c2.45,0.78,5.08,0.7,7.51-0.1"/>
		<path class="st5" d="M22.56,21.8c6.12-6.79,2.63-17.97-6-20.63c-2.43-0.75-5.03-0.67-7.43,0.14"/>
		<path class="st5" d="M1.7,8.32c0,0,1.57,1.05,3.36-0.09S6.4,5.15,6.6,3.62c0.16-1.2,0.81-2.46,0.81-2.46s-2.77,0.31-5,2.07
			C0.56,4.69,0.61,5.68,0.75,7.08"/>
		<path class="st5" d="M24.45,18.46c0,0-1.59-1.02-3.35,0.15s-1.28,3.11-1.46,4.64c-0.14,1.21-0.76,2.48-0.76,2.48
			s2.76-0.37,4.95-2.17c1.83-1.5,1.76-2.5,1.6-3.89"/>
		<polyline class="st5" points="15.66,13.56 11.83,17.34 8.37,13.8 10.24,11.93 11.83,13.58 16.05,9.46 17.91,11.33 15.66,13.56 		
			"/>
	</g>
</g>
</svg>
