<?xml version="1.0" encoding="utf-8"?>
<!-- Generator: Adobe Illustrator 24.3.0, SVG Export Plug-In . SVG Version: 6.00 Build 0)  -->
<svg version="1.1" xmlns="http://www.w3.org/2000/svg" xmlns:xlink="http://www.w3.org/1999/xlink" x="0px" y="0px"
	 viewBox="0 0 18.44 26.5" style="enable-background:new 0 0 18.44 26.5;" xml:space="preserve">
<style type="text/css">
	.st0{fill:#FFFFFF;}
	.st1{fill:#171714;}
	.st2{fill:none;stroke:#37373F;stroke-width:1.5;stroke-miterlimit:10;}
	.st3{fill:none;stroke:#37373F;stroke-width:1.5;stroke-linecap:round;stroke-miterlimit:10;}
	.st4{fill:none;stroke:#37373F;stroke-width:1.5;stroke-linecap:round;stroke-linejoin:round;stroke-miterlimit:10;}
	.st5{fill:none;stroke:#37373F;stroke-width:1.3;stroke-linecap:round;stroke-linejoin:round;stroke-miterlimit:10;}
	.st6{fill:none;stroke:#37373F;stroke-linecap:round;stroke-linejoin:round;stroke-miterlimit:10;}
	.st7{fill:none;stroke:#37373F;stroke-width:1.4761;stroke-linecap:round;stroke-linejoin:round;stroke-miterlimit:10;}
	.st8{fill:none;stroke:#37373F;stroke-width:1.2;stroke-linecap:round;stroke-linejoin:round;stroke-miterlimit:10;}
	.st9{fill:none;stroke:#37373F;stroke-width:1.3067;stroke-linecap:round;stroke-linejoin:round;stroke-miterlimit:10;}
	.st10{fill:#37373F;}
	.st11{fill:none;stroke:#37373F;stroke-width:2.1163;stroke-linecap:round;stroke-linejoin:round;stroke-miterlimit:10;}
	.st12{fill:none;stroke:#FC5A2A;stroke-width:1.2617;stroke-linecap:round;stroke-miterlimit:10;}
	.st13{fill:#FC5A2A;}
	.st14{fill:#FC5A2A;stroke:#FC5A2A;stroke-width:1.5;stroke-miterlimit:10;}
</style>
<g id="TEXTO">
</g>
<g id="ICONOS">
	<g>
		<path class="st4" d="M1.51,10.31c-1.66,2.34-0.44,7.11,2.24,10.98s4.12,4.46,5.43,4.46c1.12,0,2.83-0.59,5.51-4.46
			s3.9-8.64,2.24-10.98s-5.77-1.69-7.76-1.7C7.22,8.61,3.17,7.96,1.51,10.31z"/>
		<line class="st4" x1="4.32" y1="12.36" x2="4.32" y2="13.24"/>
		<line class="st4" x1="9.18" y1="12.36" x2="9.18" y2="13.24"/>
		<line class="st4" x1="14.04" y1="12.36" x2="14.04" y2="13.24"/>
		<line class="st4" x1="6.75" y1="17.12" x2="6.75" y2="18"/>
		<line class="st4" x1="9.18" y1="21.88" x2="9.18" y2="22.76"/>
		<line class="st4" x1="11.61" y1="17.12" x2="11.61" y2="18"/>
		<path class="st4" d="M9.18,8.61c0,0,2.32-2.86,4.99-2.98"/>
		<path class="st4" d="M9.22,8.68c0,0,1.07-3.12,0.1-5.02c-1.3-2.53-3.97-2.91-3.97-2.91s0.51,2.72,0.43,3.68
			C5.69,5.67,6.04,8.3,9.22,8.68z"/>
	</g>
</g>
</svg>
