<?xml version="1.0" encoding="utf-8"?>
<!-- Generator: Adobe Illustrator 24.3.0, SVG Export Plug-In . SVG Version: 6.00 Build 0)  -->
<svg version="1.1" xmlns="http://www.w3.org/2000/svg" xmlns:xlink="http://www.w3.org/1999/xlink" x="0px" y="0px"
	 viewBox="0 0 23.5 28.42" style="enable-background:new 0 0 23.5 28.42;" xml:space="preserve">
<style type="text/css">
	.st0{fill:#FFFFFF;}
	.st1{fill:#171714;}
	.st2{fill:none;stroke:#37373F;stroke-width:1.5;stroke-miterlimit:10;}
	.st3{fill:none;stroke:#37373F;stroke-width:1.5;stroke-linecap:round;stroke-miterlimit:10;}
	.st4{fill:none;stroke:#37373F;stroke-width:1.5;stroke-linecap:round;stroke-linejoin:round;stroke-miterlimit:10;}
	.st5{fill:none;stroke:#37373F;stroke-width:1.3;stroke-linecap:round;stroke-linejoin:round;stroke-miterlimit:10;}
	.st6{fill:none;stroke:#37373F;stroke-linecap:round;stroke-linejoin:round;stroke-miterlimit:10;}
	.st7{fill:none;stroke:#37373F;stroke-width:1.4761;stroke-linecap:round;stroke-linejoin:round;stroke-miterlimit:10;}
	.st8{fill:none;stroke:#37373F;stroke-width:1.2;stroke-linecap:round;stroke-linejoin:round;stroke-miterlimit:10;}
	.st9{fill:none;stroke:#37373F;stroke-width:1.3067;stroke-linecap:round;stroke-linejoin:round;stroke-miterlimit:10;}
	.st10{fill:#37373F;}
	.st11{fill:none;stroke:#37373F;stroke-width:2.1163;stroke-linecap:round;stroke-linejoin:round;stroke-miterlimit:10;}
	.st12{fill:none;stroke:#FC5A2A;stroke-width:1.2617;stroke-linecap:round;stroke-miterlimit:10;}
	.st13{fill:#FC5A2A;}
	.st14{fill:#FC5A2A;stroke:#FC5A2A;stroke-width:1.5;stroke-miterlimit:10;}
</style>
<g id="TEXTO">
</g>
<g id="ICONOS">
	<g>
		<path class="st4" d="M18.71,27.53c1.52,0.47,3.21-0.26,3.72-2.1c0.51-1.85,0.57-5.79-1.01-6.28c-0.79-0.25-1.76,0.44-2.6,1.42"/>
		<rect x="0.75" y="6.85" class="st4" width="12.89" height="20.21"/>
		<rect x="1.77" y="0.75" class="st4" width="12.91" height="2.4"/>
		<line class="st4" x1="13.51" y1="24.65" x2="0.92" y2="24.65"/>
		<polygon class="st4" points="14.69,3.15 1.79,3.15 0.75,6.85 13.65,6.85 		"/>
		<polygon class="st4" points="14.7,3.15 15.23,5 15.76,6.85 14.7,6.85 13.64,6.85 14.17,5 		"/>
		<line class="st4" x1="15.76" y1="6.85" x2="15.76" y2="19.44"/>
		<path class="st4" d="M16.87,27.62c1.59-0.01,2.98-1.22,2.91-3.13s-1.21-5.69-2.87-5.68c-1.66,0.01-2.83,3.8-2.92,5.72
			S15.28,27.63,16.87,27.62z"/>
	</g>
</g>
</svg>
