<?xml version="1.0" encoding="utf-8"?>
<!-- Generator: Adobe Illustrator 24.3.0, SVG Export Plug-In . SVG Version: 6.00 Build 0)  -->
<svg version="1.1" xmlns="http://www.w3.org/2000/svg" xmlns:xlink="http://www.w3.org/1999/xlink" x="0px" y="0px"
	 viewBox="0 0 31.5 24.71" style="enable-background:new 0 0 31.5 24.71;" xml:space="preserve">
<style type="text/css">
	.st0{fill:#FFFFFF;}
	.st1{fill:#171714;}
	.st2{fill:none;stroke:#37373F;stroke-width:1.5;stroke-miterlimit:10;}
	.st3{fill:none;stroke:#37373F;stroke-width:1.5;stroke-linecap:round;stroke-miterlimit:10;}
	.st4{fill:none;stroke:#37373F;stroke-width:1.5;stroke-linecap:round;stroke-linejoin:round;stroke-miterlimit:10;}
	.st5{fill:none;stroke:#37373F;stroke-width:1.3;stroke-linecap:round;stroke-linejoin:round;stroke-miterlimit:10;}
	.st6{fill:none;stroke:#37373F;stroke-linecap:round;stroke-linejoin:round;stroke-miterlimit:10;}
	.st7{fill:none;stroke:#37373F;stroke-width:1.4761;stroke-linecap:round;stroke-linejoin:round;stroke-miterlimit:10;}
	.st8{fill:none;stroke:#37373F;stroke-width:1.2;stroke-linecap:round;stroke-linejoin:round;stroke-miterlimit:10;}
	.st9{fill:none;stroke:#37373F;stroke-width:1.3067;stroke-linecap:round;stroke-linejoin:round;stroke-miterlimit:10;}
	.st10{fill:#37373F;}
	.st11{fill:none;stroke:#37373F;stroke-width:2.1163;stroke-linecap:round;stroke-linejoin:round;stroke-miterlimit:10;}
	.st12{fill:none;stroke:#FC5A2A;stroke-width:1.2617;stroke-linecap:round;stroke-miterlimit:10;}
	.st13{fill:#FC5A2A;}
	.st14{fill:#FC5A2A;stroke:#FC5A2A;stroke-width:1.5;stroke-miterlimit:10;}
</style>
<g id="TEXTO">
</g>
<g id="ICONOS">
	<g>
		
			<ellipse transform="matrix(0.9142 -0.4052 0.4052 0.9142 -7.2238 4.9447)" class="st4" cx="8.07" cy="19.54" rx="2.75" ry="2.22"/>
		
			<ellipse transform="matrix(0.9142 -0.4052 0.4052 0.9142 -5.0887 7.7808)" class="st4" cx="15.84" cy="15.91" rx="2.75" ry="2.22"/>
		
			<ellipse transform="matrix(0.9142 -0.4052 0.4052 0.9142 -2.8982 10.6968)" class="st4" cx="23.82" cy="12.19" rx="2.75" ry="2.22"/>
		<path class="st4" d="M30.75,8.89c0,0-1.39,1.54-1.58,2.22c-0.36,1.22-0.47,2.87-2.62,4.42c-2.24,1.62-3.88,0.92-5.3,1.54
			c-1.33,0.58-1.59,1.7-3.53,2.67c-1.56,0.78-3.23,0.52-4.26,0.96c-1.42,0.61-2.05,2.21-4.39,2.96c-2.36,0.76-4.5-0.11-5.35-0.7
			c-0.93-0.64-2.96-0.17-2.96-0.17s1.67-1.25,1.79-2.37c0.1-1.03,0.82-3.22,2.92-4.53c2.09-1.3,3.71-0.75,5.1-1.44
			c1.01-0.5,1.89-1.94,3.49-2.63c1.99-0.86,3.02-0.33,4.32-0.97c1.39-0.68,1.91-2.38,4.6-3.05c2.58-0.64,3.9,0.34,5.07,0.86
			C28.68,8.95,30.75,8.89,30.75,8.89z"/>
		<path class="st4" d="M2.92,18.5c0.13-1.03,0.53-2.24,1.44-3.32c1.59-1.88,3.3-1.86,4.41-2.94c0.8-0.78,1.2-2.43,2.51-3.58
			c1.63-1.43,2.77-1.24,3.82-2.25c1.12-1.08,1.09-2.86,3.44-4.31c2.26-1.4,3.82-0.87,5.09-0.74c0.7,0.08,2.65-0.62,2.65-0.62
			s-0.85,1.89-0.83,2.59c0.03,1.04,0.3,2.3-0.45,3.88"/>
	</g>
</g>
</svg>
