<?xml version="1.0" encoding="utf-8"?>
<!-- Generator: Adobe Illustrator 24.3.0, SVG Export Plug-In . SVG Version: 6.00 Build 0)  -->
<svg version="1.1" xmlns="http://www.w3.org/2000/svg" xmlns:xlink="http://www.w3.org/1999/xlink" x="0px" y="0px"
	 viewBox="0 0 23.18 26.5" style="enable-background:new 0 0 23.18 26.5;" xml:space="preserve">
<style type="text/css">
	.st0{fill:#FFFFFF;}
	.st1{fill:#171714;}
	.st2{fill:none;stroke:#37373F;stroke-width:1.5;stroke-miterlimit:10;}
	.st3{fill:none;stroke:#37373F;stroke-width:1.5;stroke-linecap:round;stroke-miterlimit:10;}
	.st4{fill:none;stroke:#37373F;stroke-width:1.5;stroke-linecap:round;stroke-linejoin:round;stroke-miterlimit:10;}
	.st5{fill:none;stroke:#37373F;stroke-width:1.3;stroke-linecap:round;stroke-linejoin:round;stroke-miterlimit:10;}
	.st6{fill:none;stroke:#37373F;stroke-linecap:round;stroke-linejoin:round;stroke-miterlimit:10;}
	.st7{fill:none;stroke:#37373F;stroke-width:1.4761;stroke-linecap:round;stroke-linejoin:round;stroke-miterlimit:10;}
	.st8{fill:none;stroke:#37373F;stroke-width:1.2;stroke-linecap:round;stroke-linejoin:round;stroke-miterlimit:10;}
	.st9{fill:none;stroke:#37373F;stroke-width:1.3067;stroke-linecap:round;stroke-linejoin:round;stroke-miterlimit:10;}
	.st10{fill:#37373F;}
	.st11{fill:none;stroke:#37373F;stroke-width:2.1163;stroke-linecap:round;stroke-linejoin:round;stroke-miterlimit:10;}
	.st12{fill:none;stroke:#FC5A2A;stroke-width:1.2617;stroke-linecap:round;stroke-miterlimit:10;}
	.st13{fill:#FC5A2A;}
	.st14{fill:#FC5A2A;stroke:#FC5A2A;stroke-width:1.5;stroke-miterlimit:10;}
</style>
<g id="TEXTO">
</g>
<g id="ICONOS">
	<g>
		<path class="st4" d="M17.84,2.25c0,0-2.75-0.12-4.72,2.35c-1.87,2.34-1.5,4.06-1.5,4.06"/>
		<path class="st4" d="M11.59,5.32c0,0-2.12,0.15-2.83,0.14C7.09,5.44,5.57,4.84,4.61,3.42C3.83,2.25,3.83,0.75,3.83,0.75
			s1.7,0,2.91,0c1.83,0,3.03,0.66,3.92,1.91C11.22,3.44,11.59,5.32,11.59,5.32z"/>
		<path class="st4" d="M11.59,9.05c1.44-0.04,2.51-2.02,4.96-1.99c1.44,0.02,4.24,0.62,5.28,3.58c1.32,3.79,0.09,7.95-0.32,9.09
			c-0.41,1.15-2.56,5.99-5.24,6.02c-2.68,0.04-2.56-1.17-4.68-1.17s-2,1.2-4.68,1.17c-2.68-0.04-4.83-4.87-5.24-6.02
			c-0.41-1.15-1.64-5.3-0.32-9.09c1.03-2.96,3.84-3.57,5.28-3.58C9.08,7.02,10.15,9.01,11.59,9.05z"/>
	</g>
</g>
</svg>
