<?xml version="1.0" encoding="utf-8"?>
<!-- Generator: Adobe Illustrator 24.3.0, SVG Export Plug-In . SVG Version: 6.00 Build 0)  -->
<svg version="1.1" xmlns="http://www.w3.org/2000/svg" xmlns:xlink="http://www.w3.org/1999/xlink" x="0px" y="0px"
	 viewBox="0 0 22.26 25.75" style="enable-background:new 0 0 22.26 25.75;" xml:space="preserve">
<style type="text/css">
	.st0{fill:#FFFFFF;}
	.st1{fill:#171714;}
	.st2{fill:none;stroke:#37373F;stroke-width:1.5;stroke-miterlimit:10;}
	.st3{fill:none;stroke:#37373F;stroke-width:1.5;stroke-linecap:round;stroke-miterlimit:10;}
	.st4{fill:none;stroke:#37373F;stroke-width:1.5;stroke-linecap:round;stroke-linejoin:round;stroke-miterlimit:10;}
	.st5{fill:none;stroke:#37373F;stroke-width:1.3;stroke-linecap:round;stroke-linejoin:round;stroke-miterlimit:10;}
	.st6{fill:none;stroke:#37373F;stroke-linecap:round;stroke-linejoin:round;stroke-miterlimit:10;}
	.st7{fill:none;stroke:#37373F;stroke-width:1.4761;stroke-linecap:round;stroke-linejoin:round;stroke-miterlimit:10;}
	.st8{fill:none;stroke:#37373F;stroke-width:1.2;stroke-linecap:round;stroke-linejoin:round;stroke-miterlimit:10;}
	.st9{fill:none;stroke:#37373F;stroke-width:1.3067;stroke-linecap:round;stroke-linejoin:round;stroke-miterlimit:10;}
	.st10{fill:#37373F;}
	.st11{fill:none;stroke:#37373F;stroke-width:2.1163;stroke-linecap:round;stroke-linejoin:round;stroke-miterlimit:10;}
	.st12{fill:none;stroke:#FC5A2A;stroke-width:1.2617;stroke-linecap:round;stroke-miterlimit:10;}
	.st13{fill:#FC5A2A;}
	.st14{fill:#FC5A2A;stroke:#FC5A2A;stroke-width:1.5;stroke-miterlimit:10;}
</style>
<g id="TEXTO">
</g>
<g id="ICONOS">
	<g>
		<path class="st12" d="M17.12,1.5c0,0-2.63-0.12-4.52,2.35c-1.79,2.34-1.44,4.06-1.44,4.06"/>
		<path class="st13" d="M11.13,4.57c0,0-2.03,0.15-2.71,0.14C6.82,4.69,5.37,4.09,4.45,2.67C3.7,1.5,3.7,0,3.7,0s1.62,0,2.79,0
			c1.75,0,2.9,0.66,3.76,1.91C10.78,2.69,11.13,4.57,11.13,4.57z"/>
		<path class="st14" d="M11.13,8.3c1.38-0.04,2.4-2.02,4.75-1.99c1.38,0.02,4.07,0.62,5.06,3.58c1.27,3.79,0.09,7.95-0.3,9.09
			c-0.39,1.15-2.45,5.99-5.02,6.02c-2.57,0.04-2.45-1.17-4.49-1.17S9.22,25.03,6.65,25c-2.57-0.04-4.63-4.87-5.02-6.02
			c-0.39-1.15-1.57-5.3-0.3-9.09C2.31,6.92,5,6.32,6.38,6.3C8.73,6.27,9.75,8.26,11.13,8.3z"/>
	</g>
</g>
</svg>
