<?xml version="1.0" encoding="utf-8"?>
<!-- Generator: Adobe Illustrator 24.3.0, SVG Export Plug-In . SVG Version: 6.00 Build 0)  -->
<svg version="1.1" xmlns="http://www.w3.org/2000/svg" xmlns:xlink="http://www.w3.org/1999/xlink" x="0px" y="0px"
	 viewBox="0 0 31.5 28.7" style="enable-background:new 0 0 31.5 28.7;" xml:space="preserve">
<style type="text/css">
	.st0{fill:#FFFFFF;}
	.st1{fill:#171714;}
	.st2{fill:none;stroke:#37373F;stroke-width:1.5;stroke-miterlimit:10;}
	.st3{fill:none;stroke:#37373F;stroke-width:1.5;stroke-linecap:round;stroke-miterlimit:10;}
	.st4{fill:none;stroke:#37373F;stroke-width:1.5;stroke-linecap:round;stroke-linejoin:round;stroke-miterlimit:10;}
	.st5{fill:none;stroke:#37373F;stroke-width:1.3;stroke-linecap:round;stroke-linejoin:round;stroke-miterlimit:10;}
	.st6{fill:none;stroke:#37373F;stroke-linecap:round;stroke-linejoin:round;stroke-miterlimit:10;}
	.st7{fill:none;stroke:#37373F;stroke-width:1.4761;stroke-linecap:round;stroke-linejoin:round;stroke-miterlimit:10;}
	.st8{fill:none;stroke:#37373F;stroke-width:1.2;stroke-linecap:round;stroke-linejoin:round;stroke-miterlimit:10;}
	.st9{fill:none;stroke:#37373F;stroke-width:1.3067;stroke-linecap:round;stroke-linejoin:round;stroke-miterlimit:10;}
	.st10{fill:#37373F;}
	.st11{fill:none;stroke:#37373F;stroke-width:2.1163;stroke-linecap:round;stroke-linejoin:round;stroke-miterlimit:10;}
	.st12{fill:none;stroke:#FC5A2A;stroke-width:1.2617;stroke-linecap:round;stroke-miterlimit:10;}
	.st13{fill:#FC5A2A;}
	.st14{fill:#FC5A2A;stroke:#FC5A2A;stroke-width:1.5;stroke-miterlimit:10;}
</style>
<g id="TEXTO">
</g>
<g id="ICONOS">
	<g>
		<g>
			<path class="st4" d="M21.4,15.89c-1.76,0.88-2.56,4.15-2.17,7.36s1.05,4.02,1.85,4.44c0.68,0.36,1.9,0.55,4.77-0.93
				c2.87-1.48,5.14-3.97,4.89-5.92s-2.94-2.88-4.14-3.52C25.4,16.7,23.16,15,21.4,15.89z"/>
			<line class="st4" x1="22.44" y1="18.03" x2="22.16" y2="18.56"/>
			<line class="st4" x1="25.38" y1="19.59" x2="25.1" y2="20.13"/>
			<line class="st4" x1="28.32" y1="21.16" x2="28.04" y2="21.69"/>
			<line class="st4" x1="22.38" y1="21.69" x2="22.1" y2="22.22"/>
			<line class="st4" x1="22.32" y1="25.35" x2="22.04" y2="25.88"/>
			<line class="st4" x1="25.32" y1="23.25" x2="25.04" y2="23.79"/>
			<path class="st4" d="M26.59,17.33c0,0,2.32-0.98,3.98-0.19"/>
			<path class="st4" d="M26.59,17.38c0,0,1.65-1.54,1.68-3c0.03-1.95-1.46-3.04-1.46-3.04s-0.57,1.81-0.92,2.37
				C25.42,14.42,24.79,16.13,26.59,17.38z"/>
		</g>
		<path class="st4" d="M25.18,14.67v-9.6c0-0.67-0.54-1.21-1.21-1.21h-22c-0.67,0-1.21,0.54-1.21,1.21v18.8
			c0,0.67,0.54,1.21,1.21,1.21h17.57"/>
		<path class="st4" d="M0.75,9.14c0.32-0.01,24.35,0,24.35,0"/>
		<line class="st4" x1="4.88" y1="0.75" x2="4.88" y2="5.84"/>
		<line class="st4" x1="20.87" y1="0.75" x2="20.87" y2="5.84"/>
		<g>
			<path class="st10" d="M10.55,17.33c0.3,0.39,0.44,0.87,0.44,1.44c0,0.81-0.27,1.45-0.82,1.92c-0.55,0.47-1.29,0.7-2.23,0.7
				c-0.57,0-1.12-0.1-1.65-0.29c-0.52-0.19-0.97-0.46-1.33-0.79c-0.14-0.13-0.21-0.28-0.21-0.45c0-0.13,0.04-0.24,0.11-0.33
				c0.07-0.09,0.15-0.13,0.25-0.13c0.12,0,0.25,0.05,0.37,0.15c0.41,0.33,0.8,0.56,1.19,0.71c0.39,0.15,0.81,0.22,1.26,0.22
				c0.65,0,1.15-0.15,1.49-0.45c0.34-0.3,0.51-0.73,0.51-1.3c0-1.14-0.71-1.71-2.14-1.71h-0.7c-0.14,0-0.25-0.05-0.34-0.14
				c-0.08-0.09-0.13-0.2-0.13-0.32c0-0.12,0.04-0.23,0.13-0.32c0.08-0.09,0.2-0.13,0.34-0.13h0.49c0.69,0,1.22-0.15,1.59-0.46
				c0.37-0.3,0.56-0.74,0.56-1.32c0-0.5-0.15-0.89-0.45-1.16c-0.3-0.27-0.72-0.4-1.27-0.4c-0.41,0-0.82,0.08-1.2,0.23
				c-0.39,0.15-0.78,0.39-1.16,0.71c-0.12,0.1-0.25,0.15-0.37,0.15c-0.1,0-0.18-0.04-0.25-0.13c-0.07-0.09-0.11-0.2-0.11-0.33
				c0-0.17,0.07-0.32,0.21-0.45c0.36-0.33,0.8-0.6,1.32-0.79c0.52-0.19,1.05-0.29,1.59-0.29c0.85,0,1.52,0.22,2.02,0.65
				c0.5,0.43,0.75,1.01,0.74,1.74c-0.01,0.53-0.15,0.99-0.42,1.39c-0.27,0.4-0.64,0.68-1.1,0.86C9.83,16.67,10.26,16.94,10.55,17.33
				z"/>
			<path class="st10" d="M18.86,20.5c0.09,0.08,0.13,0.19,0.13,0.33c0,0.15-0.04,0.26-0.13,0.34c-0.08,0.08-0.21,0.12-0.38,0.12
				h-4.37c-0.17,0-0.29-0.04-0.38-0.12c-0.08-0.08-0.13-0.19-0.13-0.34c0-0.14,0.04-0.25,0.13-0.33c0.09-0.08,0.21-0.12,0.37-0.12
				h1.64V13.3l-1.44,0.94c-0.07,0.04-0.14,0.07-0.21,0.07c-0.12,0-0.23-0.06-0.32-0.17c-0.09-0.11-0.14-0.24-0.14-0.37
				c0-0.19,0.07-0.32,0.21-0.4l2.01-1.31c0.15-0.1,0.3-0.15,0.46-0.15c0.15,0,0.27,0.05,0.37,0.15c0.1,0.1,0.15,0.23,0.15,0.41v7.92
				h1.65C18.65,20.38,18.77,20.42,18.86,20.5z"/>
		</g>
	</g>
</g>
</svg>
