<?xml version="1.0" encoding="utf-8"?>
<!-- Generator: Adobe Illustrator 24.3.0, SVG Export Plug-In . SVG Version: 6.00 Build 0)  -->
<svg version="1.1" xmlns="http://www.w3.org/2000/svg" xmlns:xlink="http://www.w3.org/1999/xlink" x="0px" y="0px"
	 viewBox="0 0 29.54 19.22" style="enable-background:new 0 0 29.54 19.22;" xml:space="preserve">
<style type="text/css">
	.st0{fill:#FFFFFF;}
	.st1{fill:#171714;}
	.st2{fill:none;stroke:#37373F;stroke-width:1.5;stroke-miterlimit:10;}
	.st3{fill:none;stroke:#37373F;stroke-width:1.5;stroke-linecap:round;stroke-miterlimit:10;}
	.st4{fill:none;stroke:#37373F;stroke-width:1.5;stroke-linecap:round;stroke-linejoin:round;stroke-miterlimit:10;}
	.st5{fill:none;stroke:#37373F;stroke-width:1.3;stroke-linecap:round;stroke-linejoin:round;stroke-miterlimit:10;}
	.st6{fill:none;stroke:#37373F;stroke-linecap:round;stroke-linejoin:round;stroke-miterlimit:10;}
	.st7{fill:none;stroke:#37373F;stroke-width:1.4761;stroke-linecap:round;stroke-linejoin:round;stroke-miterlimit:10;}
	.st8{fill:none;stroke:#37373F;stroke-width:1.2;stroke-linecap:round;stroke-linejoin:round;stroke-miterlimit:10;}
	.st9{fill:none;stroke:#37373F;stroke-width:1.3067;stroke-linecap:round;stroke-linejoin:round;stroke-miterlimit:10;}
	.st10{fill:#37373F;}
	.st11{fill:none;stroke:#37373F;stroke-width:2.1163;stroke-linecap:round;stroke-linejoin:round;stroke-miterlimit:10;}
	.st12{fill:none;stroke:#FC5A2A;stroke-width:1.2617;stroke-linecap:round;stroke-miterlimit:10;}
	.st13{fill:#FC5A2A;}
	.st14{fill:#FC5A2A;stroke:#FC5A2A;stroke-width:1.5;stroke-miterlimit:10;}
</style>
<g id="TEXTO">
</g>
<g id="ICONOS">
	<g>
		<path class="st4" d="M0.75,4.89c0,0,6.02,0.1,5.59,5.38C6.34,10.28,0.62,11.04,0.75,4.89z"/>
		<path class="st4" d="M0.75,15.66c0,0,6.02-0.1,5.59-5.38C6.34,10.28,0.62,9.51,0.75,15.66z"/>
		<path class="st4" d="M6.16,10.17c0,0,5.1,6.18,10.82,6.17c6.42,0,10-2.64,11.32-4.49c0.68-0.95,0.64-2.25-0.07-3.17
			c-1.4-1.81-5.07-4.69-11.25-4.69C11.26,3.99,6.16,10.17,6.16,10.17z"/>
		<path class="st4" d="M13.5,4.59V1.38c0-0.43,0.48-0.74,0.94-0.59c1.36,0.43,3.89,1.43,5.57,3.36"/>
		<path class="st4" d="M11.42,14.63v3.21c0,0.43,0.48,0.74,0.94,0.59c0.95-0.3,2.48-0.88,3.89-1.88"/>
		<path class="st4" d="M22.35,4.84L22.35,4.84c-3.46,3.28-3.61,6.49-0.41,9.84l0.55,0.58"/>
	</g>
</g>
</svg>
