<?xml version="1.0" encoding="utf-8"?>
<!-- Generator: Adobe Illustrator 24.3.0, SVG Export Plug-In . SVG Version: 6.00 Build 0)  -->
<svg version="1.1" xmlns="http://www.w3.org/2000/svg" xmlns:xlink="http://www.w3.org/1999/xlink" x="0px" y="0px"
	 viewBox="0 0 31.3 26.88" style="enable-background:new 0 0 31.3 26.88;" xml:space="preserve">
<style type="text/css">
	.st0{fill:#FFFFFF;}
	.st1{fill:#171714;}
	.st2{fill:none;stroke:#37373F;stroke-width:1.5;stroke-miterlimit:10;}
	.st3{fill:none;stroke:#37373F;stroke-width:1.5;stroke-linecap:round;stroke-miterlimit:10;}
	.st4{fill:none;stroke:#37373F;stroke-width:1.5;stroke-linecap:round;stroke-linejoin:round;stroke-miterlimit:10;}
	.st5{fill:none;stroke:#37373F;stroke-width:1.3;stroke-linecap:round;stroke-linejoin:round;stroke-miterlimit:10;}
	.st6{fill:none;stroke:#37373F;stroke-linecap:round;stroke-linejoin:round;stroke-miterlimit:10;}
	.st7{fill:none;stroke:#37373F;stroke-width:1.4761;stroke-linecap:round;stroke-linejoin:round;stroke-miterlimit:10;}
	.st8{fill:none;stroke:#37373F;stroke-width:1.2;stroke-linecap:round;stroke-linejoin:round;stroke-miterlimit:10;}
	.st9{fill:none;stroke:#37373F;stroke-width:1.3067;stroke-linecap:round;stroke-linejoin:round;stroke-miterlimit:10;}
	.st10{fill:#37373F;}
	.st11{fill:none;stroke:#37373F;stroke-width:2.1163;stroke-linecap:round;stroke-linejoin:round;stroke-miterlimit:10;}
	.st12{fill:none;stroke:#FC5A2A;stroke-width:1.2617;stroke-linecap:round;stroke-miterlimit:10;}
	.st13{fill:#FC5A2A;}
	.st14{fill:#FC5A2A;stroke:#FC5A2A;stroke-width:1.5;stroke-miterlimit:10;}
</style>
<g id="TEXTO">
</g>
<g id="ICONOS">
	<g>
		<path class="st5" d="M0.84,25.03L15.47,8.8c2.05-2.27,5.66-2.12,7.51,0.32l0,0c1.85,2.44,1.02,5.96-1.72,7.32L1.69,26.15
			C0.98,26.5,0.31,25.62,0.84,25.03z"/>
		<g>
			<path class="st5" d="M20.98,7.36c-1.03-1.52-0.84-3.54-0.84-3.54l1.55,0.37l0.15-2.78l1.63,1.34l1.22-2.09l0.95,1.71l1.72-0.46
				l-0.52,2.3l1.76,0.38c0,0-0.05,0.87-0.45,1.84"/>
			<path class="st5" d="M23.45,9.04c-0.23-3.64,3.91-3.91,3.91-3.91L27.25,6.5l2.39-0.24l-0.93,1.56l1.94,0.76l-1.33,1.03l0.62,1.4
				l-2.02-0.14l-0.09,1.55C27.82,12.42,23.69,12.8,23.45,9.04z"/>
		</g>
		<path class="st5" d="M15.47,8.8c0,0,0.58,3.7,3.46,5.52"/>
		<path class="st5" d="M13.43,10.95c0,0,0.48,3.08,2.88,4.6"/>
		<path class="st5" d="M12.97,14.55c0,0,0.95,2.97,3.55,4.1"/>
		<path class="st5" d="M7.22,20.11c0,0,0.52,1.64,1.96,2.27"/>
	</g>
</g>
</svg>
