<?xml version="1.0" encoding="utf-8"?>
<!-- Generator: Adobe Illustrator 24.3.0, SVG Export Plug-In . SVG Version: 6.00 Build 0)  -->
<svg version="1.1" xmlns="http://www.w3.org/2000/svg" xmlns:xlink="http://www.w3.org/1999/xlink" x="0px" y="0px"
	 viewBox="0 0 28.26 26.5" style="enable-background:new 0 0 28.26 26.5;" xml:space="preserve">
<style type="text/css">
	.st0{fill:#FFFFFF;}
	.st1{fill:#171714;}
	.st2{fill:none;stroke:#37373F;stroke-width:1.5;stroke-miterlimit:10;}
	.st3{fill:none;stroke:#37373F;stroke-width:1.5;stroke-linecap:round;stroke-miterlimit:10;}
	.st4{fill:none;stroke:#37373F;stroke-width:1.5;stroke-linecap:round;stroke-linejoin:round;stroke-miterlimit:10;}
	.st5{fill:none;stroke:#37373F;stroke-width:1.3;stroke-linecap:round;stroke-linejoin:round;stroke-miterlimit:10;}
	.st6{fill:none;stroke:#37373F;stroke-linecap:round;stroke-linejoin:round;stroke-miterlimit:10;}
	.st7{fill:none;stroke:#37373F;stroke-width:1.4761;stroke-linecap:round;stroke-linejoin:round;stroke-miterlimit:10;}
	.st8{fill:none;stroke:#37373F;stroke-width:1.2;stroke-linecap:round;stroke-linejoin:round;stroke-miterlimit:10;}
	.st9{fill:none;stroke:#37373F;stroke-width:1.3067;stroke-linecap:round;stroke-linejoin:round;stroke-miterlimit:10;}
	.st10{fill:#37373F;}
	.st11{fill:none;stroke:#37373F;stroke-width:2.1163;stroke-linecap:round;stroke-linejoin:round;stroke-miterlimit:10;}
	.st12{fill:none;stroke:#FC5A2A;stroke-width:1.2617;stroke-linecap:round;stroke-miterlimit:10;}
	.st13{fill:#FC5A2A;}
	.st14{fill:#FC5A2A;stroke:#FC5A2A;stroke-width:1.5;stroke-miterlimit:10;}
</style>
<g id="TEXTO">
</g>
<g id="ICONOS">
	<g>
		<path class="st4" d="M14.71,13.53c-3.16-0.84-7.67-0.69-10.47,0c-1.95,0.49-3.49,2.73-3.49,5.82v0.01c0,3.09,1.54,5.33,3.49,5.82
			c2.8,0.69,7.31,0.84,10.47,0"/>
		<path class="st4" d="M19.37,1.32c-3.16-0.84-7.67-0.69-10.47,0C6.94,1.81,5.4,4.05,5.4,7.14v0.01c0,2.77,1.24,5.06,2.91,5.81"/>
		<g>
			<ellipse class="st4" cx="14.71" cy="19.36" rx="3.49" ry="5.82"/>
			<path class="st6" d="M14.39,15.37c0.11-0.06,0.23-0.08,0.35-0.08c0.95,0,1.71,1.82,1.71,4.07s-0.77,4.07-1.71,4.07
				c-0.12,0-0.24-0.03-0.35-0.09"/>
			<line class="st6" x1="14.13" y1="19.94" x2="14.13" y2="21.69"/>
		</g>
		<g>
			<ellipse class="st4" cx="19.37" cy="7.14" rx="3.49" ry="5.82"/>
			<path class="st6" d="M19.05,3.15c0.11-0.06,0.23-0.08,0.35-0.08c0.95,0,1.71,1.82,1.71,4.07s-0.77,4.07-1.71,4.07
				c-0.12,0-0.24-0.03-0.35-0.09"/>
			<line class="st6" x1="18.78" y1="7.72" x2="18.78" y2="9.47"/>
		</g>
		<g>
			<ellipse class="st4" cx="24.02" cy="19.36" rx="3.49" ry="5.82"/>
			<path class="st6" d="M23.7,15.37c0.11-0.06,0.23-0.08,0.35-0.08c0.95,0,1.71,1.82,1.71,4.07s-0.77,4.07-1.71,4.07
				c-0.12,0-0.24-0.03-0.35-0.09"/>
			<line class="st6" x1="23.44" y1="19.94" x2="23.44" y2="21.69"/>
		</g>
	</g>
</g>
</svg>
