<?xml version="1.0" encoding="utf-8"?>
<!-- Generator: Adobe Illustrator 24.3.0, SVG Export Plug-In . SVG Version: 6.00 Build 0)  -->
<svg version="1.1" xmlns="http://www.w3.org/2000/svg" xmlns:xlink="http://www.w3.org/1999/xlink" x="0px" y="0px"
	 viewBox="0 0 26.5 29.01" style="enable-background:new 0 0 26.5 29.01;" xml:space="preserve">
<style type="text/css">
	.st0{fill:#FFFFFF;}
	.st1{fill:#171714;}
	.st2{fill:none;stroke:#37373F;stroke-width:1.5;stroke-miterlimit:10;}
	.st3{fill:none;stroke:#37373F;stroke-width:1.5;stroke-linecap:round;stroke-miterlimit:10;}
	.st4{fill:none;stroke:#37373F;stroke-width:1.5;stroke-linecap:round;stroke-linejoin:round;stroke-miterlimit:10;}
	.st5{fill:none;stroke:#37373F;stroke-width:1.3;stroke-linecap:round;stroke-linejoin:round;stroke-miterlimit:10;}
	.st6{fill:none;stroke:#37373F;stroke-linecap:round;stroke-linejoin:round;stroke-miterlimit:10;}
	.st7{fill:none;stroke:#37373F;stroke-width:1.4761;stroke-linecap:round;stroke-linejoin:round;stroke-miterlimit:10;}
	.st8{fill:none;stroke:#37373F;stroke-width:1.2;stroke-linecap:round;stroke-linejoin:round;stroke-miterlimit:10;}
	.st9{fill:none;stroke:#37373F;stroke-width:1.3067;stroke-linecap:round;stroke-linejoin:round;stroke-miterlimit:10;}
	.st10{fill:#37373F;}
	.st11{fill:none;stroke:#37373F;stroke-width:2.1163;stroke-linecap:round;stroke-linejoin:round;stroke-miterlimit:10;}
	.st12{fill:none;stroke:#FC5A2A;stroke-width:1.2617;stroke-linecap:round;stroke-miterlimit:10;}
	.st13{fill:#FC5A2A;}
	.st14{fill:#FC5A2A;stroke:#FC5A2A;stroke-width:1.5;stroke-miterlimit:10;}
</style>
<g id="TEXTO">
</g>
<g id="ICONOS">
	<g>
		<path class="st4" d="M24.56,26.99l-2.06-2.13c0.77-0.95,1.83-2.84,1.47-4.37c-0.35-1.45-1.69-3.5-6.16-4.97l-0.3-0.1l-4.24,4.24
			l0.1,0.3c1.73,5.18,4.18,6.27,5.93,6.27c0,0,0,0,0,0c1.03,0,2.34-0.66,3.2-1.37 M23.34,28.26l2.41-2.41"/>
		<path class="st4" d="M2.77,25.85L2.9,21.2c0.58,0.03,6.37,1.14,6.99,0.67c0.71-0.54,0.96-3.92,1-4.52l1.31,0
			c0.25,0,0.61-0.03,0.82-0.28c0.19-0.24,0.23-0.63,0.11-1.24c-0.19-0.95-1.76-4.84-2.25-6.03c-0.1-0.86-0.3-1.7-0.61-2.5
			C9.2,4.5,6.96,2.32,4.14,1.33C3.05,0.94,1.91,0.75,0.75,0.75"/>
	</g>
</g>
</svg>
