<?xml version="1.0" encoding="utf-8"?>
<!-- Generator: Adobe Illustrator 24.3.0, SVG Export Plug-In . SVG Version: 6.00 Build 0)  -->
<svg version="1.1" xmlns="http://www.w3.org/2000/svg" xmlns:xlink="http://www.w3.org/1999/xlink" x="0px" y="0px"
	 viewBox="0 0 31.5 30.23" style="enable-background:new 0 0 31.5 30.23;" xml:space="preserve">
<style type="text/css">
	.st0{fill:#FFFFFF;}
	.st1{fill:#171714;}
	.st2{fill:none;stroke:#37373F;stroke-width:1.5;stroke-miterlimit:10;}
	.st3{fill:none;stroke:#37373F;stroke-width:1.5;stroke-linecap:round;stroke-miterlimit:10;}
	.st4{fill:none;stroke:#37373F;stroke-width:1.5;stroke-linecap:round;stroke-linejoin:round;stroke-miterlimit:10;}
	.st5{fill:none;stroke:#37373F;stroke-width:1.3;stroke-linecap:round;stroke-linejoin:round;stroke-miterlimit:10;}
	.st6{fill:none;stroke:#37373F;stroke-linecap:round;stroke-linejoin:round;stroke-miterlimit:10;}
	.st7{fill:none;stroke:#37373F;stroke-width:1.4761;stroke-linecap:round;stroke-linejoin:round;stroke-miterlimit:10;}
	.st8{fill:none;stroke:#37373F;stroke-width:1.2;stroke-linecap:round;stroke-linejoin:round;stroke-miterlimit:10;}
	.st9{fill:none;stroke:#37373F;stroke-width:1.3067;stroke-linecap:round;stroke-linejoin:round;stroke-miterlimit:10;}
	.st10{fill:#37373F;}
	.st11{fill:none;stroke:#37373F;stroke-width:2.1163;stroke-linecap:round;stroke-linejoin:round;stroke-miterlimit:10;}
	.st12{fill:none;stroke:#FC5A2A;stroke-width:1.2617;stroke-linecap:round;stroke-miterlimit:10;}
	.st13{fill:#FC5A2A;}
	.st14{fill:#FC5A2A;stroke:#FC5A2A;stroke-width:1.5;stroke-miterlimit:10;}
</style>
<g id="TEXTO">
	<g>
	</g>
	<g id="Element_70_">
		<path class="st2" d="M18.34,22.98c-0.61,0.5-1.49,0.78-2.47,0.78c-0.98,0-1.85-0.28-2.47-0.78c-0.63-0.52-0.97-1.25-0.97-2.13
			v-2.69h6.87v2.69C19.3,21.73,18.97,22.46,18.34,22.98z"/>
		<path class="st2" d="M12.41,6.27c0-0.69,0-1.38,0-2.08c0-1.9,1.55-3.45,3.45-3.45c1.9,0,3.45,1.55,3.45,3.45c0,0.69,0,1.38,0,2.08
			c0,0,0.79,6.81,4.45,8.83l0.69,13.64H7.3l0.69-13.64C11.96,14.53,12.41,6.27,12.41,6.27z"/>
		<line class="st2" x1="12.41" y1="6.27" x2="19.3" y2="6.27"/>
		<path class="st3" d="M23.9,14.82c1.62-0.32,3.52,0.47,4.08,2.02c0.46,1.27-0.03,2.67-0.33,3.99c-0.35,1.56-0.44,3.21,0.03,4.74
			c0.47,1.53,1.57,2.91,3.07,3.47"/>
		<path class="st3" d="M7.6,15.26c-1.62-0.32-3.52,0.47-4.08,2.02c-0.46,1.27,0.03,2.67,0.33,3.99c0.35,1.56,0.44,3.21-0.03,4.74
			s-1.57,2.91-3.07,3.47"/>
	</g>
</g>
<g id="ICONOS">
</g>
</svg>
