<?xml version="1.0" encoding="utf-8"?>
<!-- Generator: Adobe Illustrator 24.3.0, SVG Export Plug-In . SVG Version: 6.00 Build 0)  -->
<svg version="1.1" xmlns="http://www.w3.org/2000/svg" xmlns:xlink="http://www.w3.org/1999/xlink" x="0px" y="0px"
	 viewBox="0 0 26.5 19.51" style="enable-background:new 0 0 26.5 19.51;" xml:space="preserve">
<style type="text/css">
	.st0{fill:#FFFFFF;}
	.st1{fill:#171714;}
	.st2{fill:none;stroke:#37373F;stroke-width:1.5;stroke-miterlimit:10;}
	.st3{fill:none;stroke:#37373F;stroke-width:1.5;stroke-linecap:round;stroke-miterlimit:10;}
	.st4{fill:none;stroke:#37373F;stroke-width:1.5;stroke-linecap:round;stroke-linejoin:round;stroke-miterlimit:10;}
	.st5{fill:none;stroke:#37373F;stroke-width:1.3;stroke-linecap:round;stroke-linejoin:round;stroke-miterlimit:10;}
	.st6{fill:none;stroke:#37373F;stroke-linecap:round;stroke-linejoin:round;stroke-miterlimit:10;}
	.st7{fill:none;stroke:#37373F;stroke-width:1.4761;stroke-linecap:round;stroke-linejoin:round;stroke-miterlimit:10;}
	.st8{fill:none;stroke:#37373F;stroke-width:1.2;stroke-linecap:round;stroke-linejoin:round;stroke-miterlimit:10;}
	.st9{fill:none;stroke:#37373F;stroke-width:1.3067;stroke-linecap:round;stroke-linejoin:round;stroke-miterlimit:10;}
	.st10{fill:#37373F;}
	.st11{fill:none;stroke:#37373F;stroke-width:2.1163;stroke-linecap:round;stroke-linejoin:round;stroke-miterlimit:10;}
	.st12{fill:none;stroke:#FC5A2A;stroke-width:1.2617;stroke-linecap:round;stroke-miterlimit:10;}
	.st13{fill:#FC5A2A;}
	.st14{fill:#FC5A2A;stroke:#FC5A2A;stroke-width:1.5;stroke-miterlimit:10;}
</style>
<g id="TEXTO">
	<g>
	</g>
	<g>
		<path class="st2" d="M2.26,9.12V3.29c0-1.4,1.23-2.54,2.73-2.54h16.51c1.5,0,2.73,1.14,2.73,2.54v5.83"/>
		<path class="st3" d="M0.75,18.76v-7.73c0-1.07,0.88-1.95,1.95-1.95h21.1c1.07,0,1.95,0.88,1.95,1.95v7.73"/>
		<g>
			<path class="st2" d="M5.68,9.12v-3.9c0-0.52,0.53-0.94,1.17-0.94h3.64c0.64,0,1.17,0.42,1.17,0.94v3.9"/>
			<path class="st2" d="M14.84,9.12v-3.9c0-0.52,0.53-0.94,1.17-0.94h3.64c0.64,0,1.17,0.42,1.17,0.94v3.9"/>
		</g>
		<line class="st2" x1="0.89" y1="15.57" x2="25.61" y2="15.57"/>
	</g>
</g>
<g id="ICONOS">
</g>
</svg>
