<?xml version="1.0" encoding="utf-8"?>
<!-- Generator: Adobe Illustrator 24.3.0, SVG Export Plug-In . SVG Version: 6.00 Build 0)  -->
<svg version="1.1" xmlns="http://www.w3.org/2000/svg" xmlns:xlink="http://www.w3.org/1999/xlink" x="0px" y="0px"
	 viewBox="0 0 25.45 28.5" style="enable-background:new 0 0 25.45 28.5;" xml:space="preserve">
<style type="text/css">
	.st0{fill:#FFFFFF;}
	.st1{fill:#171714;}
	.st2{fill:none;stroke:#37373F;stroke-width:1.5;stroke-miterlimit:10;}
	.st3{fill:none;stroke:#37373F;stroke-width:1.5;stroke-linecap:round;stroke-miterlimit:10;}
	.st4{fill:none;stroke:#37373F;stroke-width:1.5;stroke-linecap:round;stroke-linejoin:round;stroke-miterlimit:10;}
	.st5{fill:none;stroke:#37373F;stroke-width:1.3;stroke-linecap:round;stroke-linejoin:round;stroke-miterlimit:10;}
	.st6{fill:none;stroke:#37373F;stroke-linecap:round;stroke-linejoin:round;stroke-miterlimit:10;}
	.st7{fill:none;stroke:#37373F;stroke-width:1.4761;stroke-linecap:round;stroke-linejoin:round;stroke-miterlimit:10;}
	.st8{fill:none;stroke:#37373F;stroke-width:1.2;stroke-linecap:round;stroke-linejoin:round;stroke-miterlimit:10;}
	.st9{fill:none;stroke:#37373F;stroke-width:1.3067;stroke-linecap:round;stroke-linejoin:round;stroke-miterlimit:10;}
	.st10{fill:#37373F;}
	.st11{fill:none;stroke:#37373F;stroke-width:2.1163;stroke-linecap:round;stroke-linejoin:round;stroke-miterlimit:10;}
	.st12{fill:none;stroke:#FC5A2A;stroke-width:1.2617;stroke-linecap:round;stroke-miterlimit:10;}
	.st13{fill:#FC5A2A;}
	.st14{fill:#FC5A2A;stroke:#FC5A2A;stroke-width:1.5;stroke-miterlimit:10;}
</style>
<g id="TEXTO">
</g>
<g id="ICONOS">
	<g>
		<path class="st4" d="M22.34,27.75H3.11c-1.3,0-2.36-1.06-2.36-2.36V9.45V6.14c0-1.3,1.06-2.36,2.36-2.36h19.23
			c1.3,0,2.36,1.06,2.36,2.36v19.25C24.7,26.69,23.64,27.75,22.34,27.75z"/>
		<path class="st4" d="M7.54,17.09H3.95c-0.24,0-0.44-0.2-0.44-0.44v-2.97v-0.62c0-0.24,0.2-0.44,0.44-0.44h3.59
			c0.24,0,0.44,0.2,0.44,0.44v3.59C7.98,16.9,7.78,17.09,7.54,17.09z"/>
		<path class="st4" d="M14.45,17.09h-3.59c-0.24,0-0.44-0.2-0.44-0.44v-2.97v-0.62c0-0.24,0.2-0.44,0.44-0.44h3.59
			c0.24,0,0.44,0.2,0.44,0.44v3.59C14.89,16.9,14.7,17.09,14.45,17.09z"/>
		<path class="st4" d="M21.37,17.09h-3.59c-0.24,0-0.44-0.2-0.44-0.44v-2.97v-0.62c0-0.24,0.2-0.44,0.44-0.44h3.59
			c0.24,0,0.44,0.2,0.44,0.44v3.59C21.81,16.9,21.61,17.09,21.37,17.09z"/>
		<path class="st4" d="M7.54,23.91H3.95c-0.24,0-0.44-0.2-0.44-0.44v-2.97v-0.62c0-0.24,0.2-0.44,0.44-0.44h3.59
			c0.24,0,0.44,0.2,0.44,0.44v3.59C7.98,23.71,7.78,23.91,7.54,23.91z"/>
		<path class="st4" d="M14.45,23.91h-3.59c-0.24,0-0.44-0.2-0.44-0.44v-2.97v-0.62c0-0.24,0.2-0.44,0.44-0.44h3.59
			c0.24,0,0.44,0.2,0.44,0.44v3.59C14.89,23.71,14.7,23.91,14.45,23.91z"/>
		<path class="st4" d="M21.37,23.91h-3.59c-0.24,0-0.44-0.2-0.44-0.44v-2.97v-0.62c0-0.24,0.2-0.44,0.44-0.44h3.59
			c0.24,0,0.44,0.2,0.44,0.44v3.59C21.81,23.71,21.61,23.91,21.37,23.91z"/>
		<line class="st4" x1="6.05" y1="0.75" x2="6.05" y2="6.03"/>
		<line class="st4" x1="18.59" y1="0.75" x2="18.59" y2="6.46"/>
		<line class="st4" x1="24.67" y1="9.55" x2="0.75" y2="9.55"/>
	</g>
</g>
</svg>
