<?xml version="1.0" encoding="utf-8"?>
<!-- Generator: Adobe Illustrator 24.3.0, SVG Export Plug-In . SVG Version: 6.00 Build 0)  -->
<svg version="1.1" xmlns="http://www.w3.org/2000/svg" xmlns:xlink="http://www.w3.org/1999/xlink" x="0px" y="0px"
	 viewBox="0 0 32.29 26.5" style="enable-background:new 0 0 32.29 26.5;" xml:space="preserve">
<style type="text/css">
	.st0{fill:#FFFFFF;}
	.st1{fill:#171714;}
	.st2{fill:none;stroke:#37373F;stroke-width:1.5;stroke-miterlimit:10;}
	.st3{fill:none;stroke:#37373F;stroke-width:1.5;stroke-linecap:round;stroke-miterlimit:10;}
	.st4{fill:none;stroke:#37373F;stroke-width:1.5;stroke-linecap:round;stroke-linejoin:round;stroke-miterlimit:10;}
	.st5{fill:none;stroke:#37373F;stroke-width:1.3;stroke-linecap:round;stroke-linejoin:round;stroke-miterlimit:10;}
	.st6{fill:none;stroke:#37373F;stroke-linecap:round;stroke-linejoin:round;stroke-miterlimit:10;}
	.st7{fill:none;stroke:#37373F;stroke-width:1.4761;stroke-linecap:round;stroke-linejoin:round;stroke-miterlimit:10;}
	.st8{fill:none;stroke:#37373F;stroke-width:1.2;stroke-linecap:round;stroke-linejoin:round;stroke-miterlimit:10;}
	.st9{fill:none;stroke:#37373F;stroke-width:1.3067;stroke-linecap:round;stroke-linejoin:round;stroke-miterlimit:10;}
	.st10{fill:#37373F;}
	.st11{fill:none;stroke:#37373F;stroke-width:2.1163;stroke-linecap:round;stroke-linejoin:round;stroke-miterlimit:10;}
	.st12{fill:none;stroke:#FC5A2A;stroke-width:1.2617;stroke-linecap:round;stroke-miterlimit:10;}
	.st13{fill:#FC5A2A;}
	.st14{fill:#FC5A2A;stroke:#FC5A2A;stroke-width:1.5;stroke-miterlimit:10;}
</style>
<g id="TEXTO">
</g>
<g id="ICONOS">
	<g>
		<g>
			<path class="st4" d="M20.49,0.75c-2.35,0-4.36,1.47-5.16,3.55c1.22,1.02,1.99,2.54,1.99,4.25c0,0.7-0.14,1.37-0.37,1.99
				c0.96,0.8,2.19,1.28,3.54,1.28c3.06,0,5.53-2.48,5.53-5.53S23.55,0.75,20.49,0.75z"/>
			<path class="st4" d="M11.73,3C8.67,3,6.19,5.48,6.19,8.53c0,3.06,2.48,5.53,5.53,5.53s5.53-2.48,5.53-5.53
				C17.26,5.48,14.78,3,11.73,3z"/>
		</g>
		<path class="st4" d="M22.53,23.43h9.01c0-5.4-4.94-9.78-11.04-9.78c-2.75,0-5.26,0.89-7.19,2.37
			C17.84,16.57,21.49,19.55,22.53,23.43z"/>
		<path class="st4" d="M22.84,25.75c0-5.4-4.94-9.78-11.04-9.78S0.75,20.35,0.75,25.75H22.84z"/>
	</g>
</g>
</svg>
