<?xml version="1.0" encoding="utf-8"?>
<!-- Generator: Adobe Illustrator 24.3.0, SVG Export Plug-In . SVG Version: 6.00 Build 0)  -->
<svg version="1.1" xmlns="http://www.w3.org/2000/svg" xmlns:xlink="http://www.w3.org/1999/xlink" x="0px" y="0px"
	 viewBox="0 0 31.5 24.42" style="enable-background:new 0 0 31.5 24.42;" xml:space="preserve">
<style type="text/css">
	.st0{fill:#FFFFFF;}
	.st1{fill:#171714;}
	.st2{fill:none;stroke:#37373F;stroke-width:1.5;stroke-miterlimit:10;}
	.st3{fill:none;stroke:#37373F;stroke-width:1.5;stroke-linecap:round;stroke-miterlimit:10;}
	.st4{fill:none;stroke:#37373F;stroke-width:1.5;stroke-linecap:round;stroke-linejoin:round;stroke-miterlimit:10;}
	.st5{fill:none;stroke:#37373F;stroke-width:1.3;stroke-linecap:round;stroke-linejoin:round;stroke-miterlimit:10;}
	.st6{fill:none;stroke:#37373F;stroke-linecap:round;stroke-linejoin:round;stroke-miterlimit:10;}
	.st7{fill:none;stroke:#37373F;stroke-width:1.4761;stroke-linecap:round;stroke-linejoin:round;stroke-miterlimit:10;}
	.st8{fill:none;stroke:#37373F;stroke-width:1.2;stroke-linecap:round;stroke-linejoin:round;stroke-miterlimit:10;}
	.st9{fill:none;stroke:#37373F;stroke-width:1.3067;stroke-linecap:round;stroke-linejoin:round;stroke-miterlimit:10;}
	.st10{fill:#37373F;}
	.st11{fill:none;stroke:#37373F;stroke-width:2.1163;stroke-linecap:round;stroke-linejoin:round;stroke-miterlimit:10;}
	.st12{fill:none;stroke:#FC5A2A;stroke-width:1.2617;stroke-linecap:round;stroke-miterlimit:10;}
	.st13{fill:#FC5A2A;}
	.st14{fill:#FC5A2A;stroke:#FC5A2A;stroke-width:1.5;stroke-miterlimit:10;}
</style>
<g id="TEXTO">
	<g>
	</g>
</g>
<g id="ICONOS">
	<g>
		<ellipse class="st4" cx="20.43" cy="17.38" rx="5.15" ry="3.26"/>
		<rect x="11.05" y="8.03" class="st4" width="18.52" height="3.28"/>
		<path class="st4" d="M28.26,23.54H12.6c-1.37,0-2.49-1.11-2.49-2.49v-9.74h20.63v9.74C30.75,22.42,29.64,23.54,28.26,23.54z"/>
		<path class="st4" d="M20.32,4.11c-2.07-2.07-4.94-3.36-8.1-3.36c-6.33,0-11.46,5.13-11.46,11.46s5.13,11.46,11.46,11.46"/>
		<path class="st4" d="M12.88,8.03c0,0,1.5,0.57,5.22-2.49c2.75-2.27,6.97-2.67,6.97-2.67s-1.84,1.85-0.55,2.67
			c1.61,1.03,3.57-0.44,4.06,2.03"/>
	</g>
</g>
</svg>
