<?xml version="1.0" encoding="utf-8"?>
<!-- Generator: Adobe Illustrator 24.3.0, SVG Export Plug-In . SVG Version: 6.00 Build 0)  -->
<svg version="1.1" xmlns="http://www.w3.org/2000/svg" xmlns:xlink="http://www.w3.org/1999/xlink" x="0px" y="0px"
	 viewBox="0 0 21.5 36.38" style="enable-background:new 0 0 21.5 36.38;" xml:space="preserve">
<style type="text/css">
	.st0{fill:#FFFFFF;}
	.st1{fill:#171714;}
	.st2{fill:none;stroke:#37373F;stroke-width:1.5;stroke-miterlimit:10;}
	.st3{fill:none;stroke:#37373F;stroke-width:1.5;stroke-linecap:round;stroke-miterlimit:10;}
	.st4{fill:none;stroke:#37373F;stroke-width:1.5;stroke-linecap:round;stroke-linejoin:round;stroke-miterlimit:10;}
	.st5{fill:none;stroke:#37373F;stroke-width:1.3;stroke-linecap:round;stroke-linejoin:round;stroke-miterlimit:10;}
	.st6{fill:none;stroke:#37373F;stroke-linecap:round;stroke-linejoin:round;stroke-miterlimit:10;}
	.st7{fill:none;stroke:#37373F;stroke-width:1.4761;stroke-linecap:round;stroke-linejoin:round;stroke-miterlimit:10;}
	.st8{fill:none;stroke:#37373F;stroke-width:1.2;stroke-linecap:round;stroke-linejoin:round;stroke-miterlimit:10;}
	.st9{fill:none;stroke:#37373F;stroke-width:1.3067;stroke-linecap:round;stroke-linejoin:round;stroke-miterlimit:10;}
	.st10{fill:#37373F;}
	.st11{fill:none;stroke:#37373F;stroke-width:2.1163;stroke-linecap:round;stroke-linejoin:round;stroke-miterlimit:10;}
	.st12{fill:none;stroke:#FC5A2A;stroke-width:1.2617;stroke-linecap:round;stroke-miterlimit:10;}
	.st13{fill:#FC5A2A;}
	.st14{fill:#FC5A2A;stroke:#FC5A2A;stroke-width:1.5;stroke-miterlimit:10;}
</style>
<g id="TEXTO">
</g>
<g id="ICONOS">
	<g>
		<g>
			<polygon class="st4" points="10.75,7.91 12.81,11.48 14.88,15.06 10.75,15.06 6.61,15.06 8.68,11.48 			"/>
			<polygon class="st4" points="6.61,15.06 4.55,11.48 2.48,7.91 6.61,7.91 10.75,7.91 8.68,11.48 			"/>
			<polygon class="st4" points="14.88,15.06 12.81,11.48 10.75,7.91 14.88,7.91 19.01,7.91 16.94,11.48 			"/>
			<polygon class="st4" points="10.75,22.22 8.68,18.64 6.61,15.06 10.75,15.06 14.88,15.06 12.81,18.64 			"/>
			<polygon class="st4" points="10.75,0.75 12.81,4.33 14.88,7.91 10.75,7.91 6.61,7.91 8.68,4.33 			"/>
			<polygon class="st4" points="4.88,12.06 6.95,15.63 9.01,19.21 4.88,19.21 0.75,19.21 2.82,15.63 			"/>
			<polygon class="st4" points="16.62,12.06 18.68,15.63 20.75,19.21 16.62,19.21 12.49,19.21 14.55,15.63 			"/>
		</g>
		<line class="st4" x1="10.75" y1="22.22" x2="10.75" y2="35.63"/>
		<path class="st4" d="M20.75,21.09c0,0-1.74,9.23-10,14.54C10.75,35.63,12.25,26.52,20.75,21.09z"/>
		<path class="st4" d="M4.35,23.79c0,0,5.66,4.39,6.4,11.84C10.75,35.63,5.08,31.45,4.35,23.79z"/>
	</g>
</g>
</svg>
