<?xml version="1.0" encoding="utf-8"?>
<!-- Generator: Adobe Illustrator 24.3.0, SVG Export Plug-In . SVG Version: 6.00 Build 0)  -->
<svg version="1.1" xmlns="http://www.w3.org/2000/svg" xmlns:xlink="http://www.w3.org/1999/xlink" x="0px" y="0px"
	 viewBox="0 0 13.67 26.5" style="enable-background:new 0 0 13.67 26.5;" xml:space="preserve">
<style type="text/css">
	.st0{fill:#FFFFFF;}
	.st1{fill:#171714;}
	.st2{fill:none;stroke:#37373F;stroke-width:1.5;stroke-miterlimit:10;}
	.st3{fill:none;stroke:#37373F;stroke-width:1.5;stroke-linecap:round;stroke-miterlimit:10;}
	.st4{fill:none;stroke:#37373F;stroke-width:1.5;stroke-linecap:round;stroke-linejoin:round;stroke-miterlimit:10;}
	.st5{fill:none;stroke:#37373F;stroke-width:1.3;stroke-linecap:round;stroke-linejoin:round;stroke-miterlimit:10;}
	.st6{fill:none;stroke:#37373F;stroke-linecap:round;stroke-linejoin:round;stroke-miterlimit:10;}
	.st7{fill:none;stroke:#37373F;stroke-width:1.4761;stroke-linecap:round;stroke-linejoin:round;stroke-miterlimit:10;}
	.st8{fill:none;stroke:#37373F;stroke-width:1.2;stroke-linecap:round;stroke-linejoin:round;stroke-miterlimit:10;}
	.st9{fill:none;stroke:#37373F;stroke-width:1.3067;stroke-linecap:round;stroke-linejoin:round;stroke-miterlimit:10;}
	.st10{fill:#37373F;}
	.st11{fill:none;stroke:#37373F;stroke-width:2.1163;stroke-linecap:round;stroke-linejoin:round;stroke-miterlimit:10;}
	.st12{fill:none;stroke:#FC5A2A;stroke-width:1.2617;stroke-linecap:round;stroke-miterlimit:10;}
	.st13{fill:#FC5A2A;}
	.st14{fill:#FC5A2A;stroke:#FC5A2A;stroke-width:1.5;stroke-miterlimit:10;}
</style>
<g id="TEXTO">
</g>
<g id="ICONOS">
	<g>
		<path class="st4" d="M5.63,23.58V3h7.29V2.97c0-1.23-0.99-2.22-2.22-2.22H2.97c-1.23,0-2.22,0.99-2.22,2.22v20.56
			c0,1.23,0.99,2.22,2.22,2.22h7.73c1.21,0,2.19-0.97,2.22-2.17H5.63z"/>
		<line class="st5" x1="5.7" y1="5.05" x2="12.7" y2="5.05"/>
		<line class="st5" x1="5.7" y1="7.09" x2="12.7" y2="7.09"/>
		<line class="st5" x1="5.7" y1="9.13" x2="12.7" y2="9.13"/>
		<line class="st5" x1="5.7" y1="11.17" x2="12.7" y2="11.17"/>
		<line class="st5" x1="5.7" y1="13.21" x2="12.7" y2="13.21"/>
		<line class="st5" x1="5.7" y1="15.25" x2="12.7" y2="15.25"/>
		<line class="st5" x1="5.7" y1="17.29" x2="12.7" y2="17.29"/>
		<line class="st5" x1="5.7" y1="19.33" x2="12.7" y2="19.33"/>
		<line class="st5" x1="5.7" y1="21.37" x2="12.7" y2="21.37"/>
	</g>
</g>
</svg>
