<?xml version="1.0" encoding="utf-8"?>
<!-- Generator: Adobe Illustrator 24.3.0, SVG Export Plug-In . SVG Version: 6.00 Build 0)  -->
<svg version="1.1" xmlns="http://www.w3.org/2000/svg" xmlns:xlink="http://www.w3.org/1999/xlink" x="0px" y="0px"
	 viewBox="0 0 26.5 24.64" style="enable-background:new 0 0 26.5 24.64;" xml:space="preserve">
<style type="text/css">
	.st0{fill:#FFFFFF;}
	.st1{fill:#171714;}
	.st2{fill:none;stroke:#37373F;stroke-width:1.5;stroke-miterlimit:10;}
	.st3{fill:none;stroke:#37373F;stroke-width:1.5;stroke-linecap:round;stroke-miterlimit:10;}
	.st4{fill:none;stroke:#37373F;stroke-width:1.5;stroke-linecap:round;stroke-linejoin:round;stroke-miterlimit:10;}
	.st5{fill:none;stroke:#37373F;stroke-width:1.3;stroke-linecap:round;stroke-linejoin:round;stroke-miterlimit:10;}
	.st6{fill:none;stroke:#37373F;stroke-linecap:round;stroke-linejoin:round;stroke-miterlimit:10;}
	.st7{fill:none;stroke:#37373F;stroke-width:1.4761;stroke-linecap:round;stroke-linejoin:round;stroke-miterlimit:10;}
	.st8{fill:none;stroke:#37373F;stroke-width:1.2;stroke-linecap:round;stroke-linejoin:round;stroke-miterlimit:10;}
	.st9{fill:none;stroke:#37373F;stroke-width:1.3067;stroke-linecap:round;stroke-linejoin:round;stroke-miterlimit:10;}
	.st10{fill:#37373F;}
	.st11{fill:none;stroke:#37373F;stroke-width:2.1163;stroke-linecap:round;stroke-linejoin:round;stroke-miterlimit:10;}
	.st12{fill:none;stroke:#FC5A2A;stroke-width:1.2617;stroke-linecap:round;stroke-miterlimit:10;}
	.st13{fill:#FC5A2A;}
	.st14{fill:#FC5A2A;stroke:#FC5A2A;stroke-width:1.5;stroke-miterlimit:10;}
</style>
<g id="TEXTO">
	<g>
	</g>
</g>
<g id="ICONOS">
	<g>
		<path class="st4" d="M21.46,8.13c0,0,3.87-0.35,4.29-3.34c0,0-2.88,0.61-4.04,0"/>
		<circle class="st4" cx="18" cy="4.93" r="0.59"/>
		<path class="st4" d="M19.17,15.56c-0.2-1.09-1.33-3.15-3.57-2.82c-2.04,0.3-1.89,1.31-4.27,1.78c-1.84,0.36-3.81-1.13-3.81-1.13
			s-1.96,4.97,3.44,6.6C16.72,21.74,19.68,18.36,19.17,15.56z"/>
		<path class="st4" d="M20.21,10.53c0.14,0.98,3.63,2.79,2.28,8.28c-0.5,2.04-4.08,5.16-9.57,5.07C-0.8,23.65-0.11,9.81,1.76,9.47
			c1.25-0.23,2.29,2.27,4.72,2.14c2.39-0.13,3.34-1.35,5.78-1.83c0,0-1.91-2.76-1.2-4.99s2.55-4.04,5.5-4.04s4.98,2.61,4.9,5.13
			C21.39,8.4,20.01,9.13,20.21,10.53z"/>
	</g>
</g>
</svg>
