<?xml version="1.0" encoding="utf-8"?>
<!-- Generator: Adobe Illustrator 24.3.0, SVG Export Plug-In . SVG Version: 6.00 Build 0)  -->
<svg version="1.1" xmlns="http://www.w3.org/2000/svg" xmlns:xlink="http://www.w3.org/1999/xlink" x="0px" y="0px"
	 viewBox="0 0 28.3 20.67" style="enable-background:new 0 0 28.3 20.67;" xml:space="preserve">
<style type="text/css">
	.st0{fill:#FFFFFF;}
	.st1{fill:#171714;}
	.st2{fill:none;stroke:#37373F;stroke-width:1.5;stroke-miterlimit:10;}
	.st3{fill:none;stroke:#37373F;stroke-width:1.5;stroke-linecap:round;stroke-miterlimit:10;}
	.st4{fill:none;stroke:#37373F;stroke-width:1.5;stroke-linecap:round;stroke-linejoin:round;stroke-miterlimit:10;}
	.st5{fill:none;stroke:#37373F;stroke-width:1.3;stroke-linecap:round;stroke-linejoin:round;stroke-miterlimit:10;}
	.st6{fill:none;stroke:#37373F;stroke-linecap:round;stroke-linejoin:round;stroke-miterlimit:10;}
	.st7{fill:none;stroke:#37373F;stroke-width:1.4761;stroke-linecap:round;stroke-linejoin:round;stroke-miterlimit:10;}
	.st8{fill:none;stroke:#37373F;stroke-width:1.2;stroke-linecap:round;stroke-linejoin:round;stroke-miterlimit:10;}
	.st9{fill:none;stroke:#37373F;stroke-width:1.3067;stroke-linecap:round;stroke-linejoin:round;stroke-miterlimit:10;}
	.st10{fill:#37373F;}
	.st11{fill:none;stroke:#37373F;stroke-width:2.1163;stroke-linecap:round;stroke-linejoin:round;stroke-miterlimit:10;}
	.st12{fill:none;stroke:#FC5A2A;stroke-width:1.2617;stroke-linecap:round;stroke-miterlimit:10;}
	.st13{fill:#FC5A2A;}
	.st14{fill:#FC5A2A;stroke:#FC5A2A;stroke-width:1.5;stroke-miterlimit:10;}
</style>
<g id="TEXTO">
</g>
<g id="ICONOS">
	<g>
		<path class="st5" d="M22.24,20.02H1.6c-0.52,0-0.95-0.43-0.95-0.95V1.6c0-0.52,0.43-0.95,0.95-0.95h23.74
			c0.52,0,0.95,0.43,0.95,0.95v0.6"/>
		<path class="st5" d="M8.56,6.04c0,1.49-1.2,2.69-2.69,2.69c-1.49,0-2.69-1.2-2.69-2.69c0-1.49,1.2-2.69,2.69-2.69
			C7.35,3.35,8.56,4.56,8.56,6.04z"/>
		<path class="st5" d="M16.41,6.04c0,1.49-1.2,2.69-2.69,2.69c-1.49,0-2.69-1.2-2.69-2.69c0-1.49,1.2-2.69,2.69-2.69
			C15.2,3.35,16.41,4.56,16.41,6.04z"/>
		<path class="st5" d="M21.33,8.63c-1.46,0-2.64-1.18-2.64-2.64c0-1.46,1.18-2.64,2.64-2.64"/>
		<path class="st5" d="M8.97,14.57c0,1.72-1.39,3.11-3.11,3.11s-3.11-1.39-3.11-3.11c0-1.72,1.39-3.11,3.11-3.11
			S8.97,12.86,8.97,14.57z"/>
		<path class="st5" d="M16.82,14.57c0,1.72-1.39,3.11-3.11,3.11c-1.72,0-3.11-1.39-3.11-3.11c0-1.72,1.39-3.11,3.11-3.11
			C15.43,11.47,16.82,12.86,16.82,14.57z"/>
		<path class="st5" d="M21.57,17.68c-1.72,0-3.11-1.39-3.11-3.11c0-1.72,1.39-3.11,3.11-3.11"/>
		<g>
			<path class="st5" d="M26.18,20.02H24.5c-0.17,0-0.32-0.18-0.33-0.41L24,9.36h2.68L26.51,19.6C26.5,19.84,26.35,20.02,26.18,20.02
				z"/>
			<path class="st5" d="M26.68,9.36c2.12-4.14,0.35-4.82-1.34-4.82"/>
			<path class="st5" d="M24,9.36c-2.12-4.14-0.35-4.82,1.34-4.82"/>
		</g>
	</g>
</g>
</svg>
