<?xml version="1.0" encoding="utf-8"?>
<!-- Generator: Adobe Illustrator 24.3.0, SVG Export Plug-In . SVG Version: 6.00 Build 0)  -->
<svg version="1.1" xmlns="http://www.w3.org/2000/svg" xmlns:xlink="http://www.w3.org/1999/xlink" x="0px" y="0px"
	 viewBox="0 0 18.48 26.5" style="enable-background:new 0 0 18.48 26.5;" xml:space="preserve">
<style type="text/css">
	.st0{fill:#FFFFFF;}
	.st1{fill:#171714;}
	.st2{fill:none;stroke:#37373F;stroke-width:1.5;stroke-miterlimit:10;}
	.st3{fill:none;stroke:#37373F;stroke-width:1.5;stroke-linecap:round;stroke-miterlimit:10;}
	.st4{fill:none;stroke:#37373F;stroke-width:1.5;stroke-linecap:round;stroke-linejoin:round;stroke-miterlimit:10;}
	.st5{fill:none;stroke:#37373F;stroke-width:1.3;stroke-linecap:round;stroke-linejoin:round;stroke-miterlimit:10;}
	.st6{fill:none;stroke:#37373F;stroke-linecap:round;stroke-linejoin:round;stroke-miterlimit:10;}
	.st7{fill:none;stroke:#37373F;stroke-width:1.4761;stroke-linecap:round;stroke-linejoin:round;stroke-miterlimit:10;}
	.st8{fill:none;stroke:#37373F;stroke-width:1.2;stroke-linecap:round;stroke-linejoin:round;stroke-miterlimit:10;}
	.st9{fill:none;stroke:#37373F;stroke-width:1.3067;stroke-linecap:round;stroke-linejoin:round;stroke-miterlimit:10;}
	.st10{fill:#37373F;}
	.st11{fill:none;stroke:#37373F;stroke-width:2.1163;stroke-linecap:round;stroke-linejoin:round;stroke-miterlimit:10;}
	.st12{fill:none;stroke:#FC5A2A;stroke-width:1.2617;stroke-linecap:round;stroke-miterlimit:10;}
	.st13{fill:#FC5A2A;}
	.st14{fill:#FC5A2A;stroke:#FC5A2A;stroke-width:1.5;stroke-miterlimit:10;}
</style>
<g id="TEXTO">
</g>
<g id="ICONOS">
	<g>
		<path class="st4" d="M12.44,17.11v5.45c0,1.76-1.44,3.2-3.2,3.2h0c-1.76,0-3.2-1.44-3.2-3.2v-5.44l-0.11-0.04
			c-3.05-1.29-5.19-4.31-5.19-7.82c0-4.69,3.8-8.49,8.49-8.49s8.49,3.8,8.49,8.49C17.73,12.8,15.54,15.85,12.44,17.11L12.44,17.11z"
			/>
		<line class="st6" x1="5.08" y1="18.44" x2="13.37" y2="18.44"/>
		<line class="st6" x1="5.08" y1="20.28" x2="13.37" y2="20.28"/>
		<line class="st6" x1="5.08" y1="22.12" x2="13.37" y2="22.12"/>
		<line class="st6" x1="5.38" y1="23.96" x2="13.07" y2="23.96"/>
		<path class="st6" d="M10.06,18.32V8.21c0,0,1.09-0.37,1.09,1.47s-0.15,2.43-1.09,2.43s-0.93,0-0.93,0s0,0-0.93,0
			c-0.93,0-1.09-0.6-1.09-2.43s1.09-1.47,1.09-1.47v10.1"/>
	</g>
</g>
</svg>
