<?xml version="1.0" encoding="utf-8"?>
<!-- Generator: Adobe Illustrator 24.3.0, SVG Export Plug-In . SVG Version: 6.00 Build 0)  -->
<svg version="1.1" xmlns="http://www.w3.org/2000/svg" xmlns:xlink="http://www.w3.org/1999/xlink" x="0px" y="0px"
	 viewBox="0 0 26.5 25.15" style="enable-background:new 0 0 26.5 25.15;" xml:space="preserve">
<style type="text/css">
	.st0{fill:#FFFFFF;}
	.st1{fill:#171714;}
	.st2{fill:none;stroke:#37373F;stroke-width:1.5;stroke-miterlimit:10;}
	.st3{fill:none;stroke:#37373F;stroke-width:1.5;stroke-linecap:round;stroke-miterlimit:10;}
	.st4{fill:none;stroke:#37373F;stroke-width:1.5;stroke-linecap:round;stroke-linejoin:round;stroke-miterlimit:10;}
	.st5{fill:none;stroke:#37373F;stroke-width:1.3;stroke-linecap:round;stroke-linejoin:round;stroke-miterlimit:10;}
	.st6{fill:none;stroke:#37373F;stroke-linecap:round;stroke-linejoin:round;stroke-miterlimit:10;}
	.st7{fill:none;stroke:#37373F;stroke-width:1.4761;stroke-linecap:round;stroke-linejoin:round;stroke-miterlimit:10;}
	.st8{fill:none;stroke:#37373F;stroke-width:1.2;stroke-linecap:round;stroke-linejoin:round;stroke-miterlimit:10;}
	.st9{fill:none;stroke:#37373F;stroke-width:1.3067;stroke-linecap:round;stroke-linejoin:round;stroke-miterlimit:10;}
	.st10{fill:#37373F;}
	.st11{fill:none;stroke:#37373F;stroke-width:2.1163;stroke-linecap:round;stroke-linejoin:round;stroke-miterlimit:10;}
	.st12{fill:none;stroke:#FC5A2A;stroke-width:1.2617;stroke-linecap:round;stroke-miterlimit:10;}
	.st13{fill:#FC5A2A;}
	.st14{fill:#FC5A2A;stroke:#FC5A2A;stroke-width:1.5;stroke-miterlimit:10;}
</style>
<g id="TEXTO">
</g>
<g id="ICONOS">
	<g>
		<path class="st4" d="M20.25,12.73c0,0,0.66-0.75,1.78-1.89c0.92-0.93,2.31-1.94,3.19-1.1c1.16,1.11,0.06,2.55,0.06,2.55
			s-6.15,7.48-8.59,9.24c-1.31,0.94-6.32,0.58-8.54,0.58c-1.25,0-1.76,1.22-2.21,1.91c-0.31,0.47-0.99,0.51-1.38,0.1l-3.5-3.56
			c-0.38-0.39-0.41-1-0.07-1.43c1.42-1.73,4.43-5.51,6.42-5.51c2.52,0,10.58,0,10.58,0s1.64,0.25,1.64,1.48
			c0,1.85-2.03,1.81-2.03,1.81h-5.12"/>
		<path class="st4" d="M12.55,10.64c0,0,4.84-4.94,0-9.89C12.55,0.75,7.22,5.31,12.55,10.64z"/>
		<path class="st4" d="M12.55,10.64c0,0,6.92-0.07,6.99-6.99c0,0-2.57-0.2-4.6,1.32"/>
	</g>
</g>
</svg>
