<?xml version="1.0" encoding="utf-8"?>
<!-- Generator: Adobe Illustrator 24.3.0, SVG Export Plug-In . SVG Version: 6.00 Build 0)  -->
<svg version="1.1" xmlns="http://www.w3.org/2000/svg" xmlns:xlink="http://www.w3.org/1999/xlink" x="0px" y="0px"
	 viewBox="0 0 26.5 26.38" style="enable-background:new 0 0 26.5 26.38;" xml:space="preserve">
<style type="text/css">
	.st0{fill:#FFFFFF;}
	.st1{fill:#171714;}
	.st2{fill:none;stroke:#37373F;stroke-width:1.5;stroke-miterlimit:10;}
	.st3{fill:none;stroke:#37373F;stroke-width:1.5;stroke-linecap:round;stroke-miterlimit:10;}
	.st4{fill:none;stroke:#37373F;stroke-width:1.5;stroke-linecap:round;stroke-linejoin:round;stroke-miterlimit:10;}
	.st5{fill:none;stroke:#37373F;stroke-width:1.3;stroke-linecap:round;stroke-linejoin:round;stroke-miterlimit:10;}
	.st6{fill:none;stroke:#37373F;stroke-linecap:round;stroke-linejoin:round;stroke-miterlimit:10;}
	.st7{fill:none;stroke:#37373F;stroke-width:1.4761;stroke-linecap:round;stroke-linejoin:round;stroke-miterlimit:10;}
	.st8{fill:none;stroke:#37373F;stroke-width:1.2;stroke-linecap:round;stroke-linejoin:round;stroke-miterlimit:10;}
	.st9{fill:none;stroke:#37373F;stroke-width:1.3067;stroke-linecap:round;stroke-linejoin:round;stroke-miterlimit:10;}
	.st10{fill:#37373F;}
	.st11{fill:none;stroke:#37373F;stroke-width:2.1163;stroke-linecap:round;stroke-linejoin:round;stroke-miterlimit:10;}
	.st12{fill:none;stroke:#FC5A2A;stroke-width:1.2617;stroke-linecap:round;stroke-miterlimit:10;}
	.st13{fill:#FC5A2A;}
	.st14{fill:#FC5A2A;stroke:#FC5A2A;stroke-width:1.5;stroke-miterlimit:10;}
</style>
<g id="TEXTO">
</g>
<g id="ICONOS">
	<g>
		<circle class="st4" cx="9.27" cy="10.41" r="1.14"/>
		<circle class="st4" cx="17.23" cy="10.41" r="1.14"/>
		<path class="st4" d="M21.2,14.39v5.95c0,2.37,1.88,4.28,4.21,4.28h0.33V9.59c0-1.67-0.94-3.12-2.31-3.83
			c-1.13-0.58-4.51-2.74-5.65-3.87"/>
		<path class="st4" d="M8.7,1.89C7.57,3.02,4.19,5.17,3.06,5.76C1.69,6.46,0.75,7.91,0.75,9.59v15.03h0.33
			c2.33,0,4.21-1.91,4.21-4.28v-5.95"/>
		<path class="st4" d="M22.34,9.84c0-5.37-4.65-9.64-10.14-9.03C8.1,1.27,4.73,4.59,4.23,8.69C3.89,11.45,4.79,14,6.45,15.87
			c0.68,0.77,1.12,1.73,1.12,2.76v3.71c0,1.45,0.91,2.69,2.18,3.18c0.65,0.25,1.4,0.06,1.89-0.44l0,0c0.89-0.89,2.33-0.89,3.21,0
			l0,0c0.49,0.49,1.24,0.69,1.89,0.44c1.28-0.49,2.18-1.73,2.18-3.18V18.7c0-1.07,0.45-2.06,1.15-2.87
			C21.49,14.23,22.34,12.14,22.34,9.84z"/>
		<path class="st4" d="M15.52,20.07h-4.55v-1.14c0-1.26,1.02-2.27,2.27-2.27l0,0c1.26,0,2.27,1.02,2.27,2.27V20.07z"/>
	</g>
</g>
</svg>
