<?xml version="1.0" encoding="utf-8"?>
<!-- Generator: Adobe Illustrator 24.3.0, SVG Export Plug-In . SVG Version: 6.00 Build 0)  -->
<svg version="1.1" xmlns="http://www.w3.org/2000/svg" xmlns:xlink="http://www.w3.org/1999/xlink" x="0px" y="0px"
	 viewBox="0 0 34.77 26.48" style="enable-background:new 0 0 34.77 26.48;" xml:space="preserve">
<style type="text/css">
	.st0{fill:#FFFFFF;}
	.st1{fill:#171714;}
	.st2{fill:none;stroke:#37373F;stroke-width:1.5;stroke-miterlimit:10;}
	.st3{fill:none;stroke:#37373F;stroke-width:1.5;stroke-linecap:round;stroke-miterlimit:10;}
	.st4{fill:none;stroke:#37373F;stroke-width:1.5;stroke-linecap:round;stroke-linejoin:round;stroke-miterlimit:10;}
	.st5{fill:none;stroke:#37373F;stroke-width:1.3;stroke-linecap:round;stroke-linejoin:round;stroke-miterlimit:10;}
	.st6{fill:none;stroke:#37373F;stroke-linecap:round;stroke-linejoin:round;stroke-miterlimit:10;}
	.st7{fill:none;stroke:#37373F;stroke-width:1.4761;stroke-linecap:round;stroke-linejoin:round;stroke-miterlimit:10;}
	.st8{fill:none;stroke:#37373F;stroke-width:1.2;stroke-linecap:round;stroke-linejoin:round;stroke-miterlimit:10;}
	.st9{fill:none;stroke:#37373F;stroke-width:1.3067;stroke-linecap:round;stroke-linejoin:round;stroke-miterlimit:10;}
	.st10{fill:#37373F;}
	.st11{fill:none;stroke:#37373F;stroke-width:2.1163;stroke-linecap:round;stroke-linejoin:round;stroke-miterlimit:10;}
	.st12{fill:none;stroke:#FC5A2A;stroke-width:1.2617;stroke-linecap:round;stroke-miterlimit:10;}
	.st13{fill:#FC5A2A;}
	.st14{fill:#FC5A2A;stroke:#FC5A2A;stroke-width:1.5;stroke-miterlimit:10;}
</style>
<g id="TEXTO">
</g>
<g id="ICONOS">
	<g>
		<path class="st7" d="M23.42,7.18c-1.7-1.26-3.81-2-6.09-2c-2.28,0-4.39,0.74-6.1,2"/>
		<path class="st7" d="M13.53,5.91L9.49,0.74C6.33,8.58,7.05,15.46,7.05,15.46c0,5.68,4.6,10.28,10.28,10.28s10.28-4.6,10.28-10.28
			c0,0,0.6-7.09-2.25-14.72l-4.1,5.22"/>
		<line class="st7" x1="8.54" y1="15.2" x2="0.74" y2="15.2"/>
		<line class="st7" x1="2.95" y1="19.85" x2="8.54" y2="17.52"/>
		<line class="st7" x1="26.23" y1="15.2" x2="34.03" y2="15.2"/>
		<line class="st7" x1="31.82" y1="19.85" x2="26.23" y2="17.52"/>
		<g>
			<g>
				<circle class="st7" cx="21.85" cy="12.94" r="0.64"/>
				<circle class="st7" cx="13.12" cy="12.94" r="0.64"/>
			</g>
			<ellipse class="st7" cx="17.49" cy="17.52" rx="1.84" ry="0.47"/>
		</g>
		<path class="st7" d="M13.37,20.09c0.46,0.64,1.21,1.06,2.07,1.06c0.84,0,1.58-0.41,2.05-1.04v-0.03c0.46,0.64,1.21,1.06,2.07,1.06
			c0.84,0,1.58-0.41,2.05-1.04"/>
		<line class="st7" x1="17.49" y1="20.09" x2="17.49" y2="17.52"/>
	</g>
</g>
</svg>
