<?xml version="1.0" encoding="utf-8"?>
<!-- Generator: Adobe Illustrator 24.3.0, SVG Export Plug-In . SVG Version: 6.00 Build 0)  -->
<svg version="1.1" xmlns="http://www.w3.org/2000/svg" xmlns:xlink="http://www.w3.org/1999/xlink" x="0px" y="0px"
	 viewBox="0 0 20.3 29.42" style="enable-background:new 0 0 20.3 29.42;" xml:space="preserve">
<style type="text/css">
	.st0{fill:#FFFFFF;}
	.st1{fill:#171714;}
	.st2{fill:none;stroke:#37373F;stroke-width:1.5;stroke-miterlimit:10;}
	.st3{fill:none;stroke:#37373F;stroke-width:1.5;stroke-linecap:round;stroke-miterlimit:10;}
	.st4{fill:none;stroke:#37373F;stroke-width:1.5;stroke-linecap:round;stroke-linejoin:round;stroke-miterlimit:10;}
	.st5{fill:none;stroke:#37373F;stroke-width:1.3;stroke-linecap:round;stroke-linejoin:round;stroke-miterlimit:10;}
	.st6{fill:none;stroke:#37373F;stroke-linecap:round;stroke-linejoin:round;stroke-miterlimit:10;}
	.st7{fill:none;stroke:#37373F;stroke-width:1.4761;stroke-linecap:round;stroke-linejoin:round;stroke-miterlimit:10;}
	.st8{fill:none;stroke:#37373F;stroke-width:1.2;stroke-linecap:round;stroke-linejoin:round;stroke-miterlimit:10;}
	.st9{fill:none;stroke:#37373F;stroke-width:1.3067;stroke-linecap:round;stroke-linejoin:round;stroke-miterlimit:10;}
	.st10{fill:#37373F;}
	.st11{fill:none;stroke:#37373F;stroke-width:2.1163;stroke-linecap:round;stroke-linejoin:round;stroke-miterlimit:10;}
	.st12{fill:none;stroke:#FC5A2A;stroke-width:1.2617;stroke-linecap:round;stroke-miterlimit:10;}
	.st13{fill:#FC5A2A;}
	.st14{fill:#FC5A2A;stroke:#FC5A2A;stroke-width:1.5;stroke-miterlimit:10;}
</style>
<g id="TEXTO">
</g>
<g id="ICONOS">
	<g>
		<line class="st5" x1="10.15" y1="0.65" x2="10.15" y2="24.57"/>
		<line class="st5" x1="5.37" y1="15.02" x2="8.92" y2="24.57"/>
		<line class="st5" x1="2.19" y1="14.92" x2="7.71" y2="24.76"/>
		<line class="st5" x1="14.93" y1="15.02" x2="11.38" y2="24.57"/>
		<line class="st5" x1="18.11" y1="14.92" x2="12.59" y2="24.76"/>
		<path class="st5" d="M2.04,14.74c0.02,0.04,16.07,0,16.07,0"/>
		<path class="st5" d="M12.29,28.77H7.98c-0.19,0-0.34-0.15-0.34-0.34v-3.67h4.99v3.67C12.63,28.62,12.48,28.77,12.29,28.77z"/>
		<line class="st5" x1="7.62" y1="26.37" x2="12.66" y2="26.37"/>
		<path class="st5" d="M11.18,20.53c3.1-2.47,5.66-8.12,4.62-13.38c-1.14-5.73-5.64-6.22-5.64-6.22s-4.5,0.48-5.64,6.22
			c-1.05,5.25,1.52,10.9,4.62,13.38"/>
		<path class="st5" d="M2.68,16.03c-0.68-1.1-1.13-2.26-1.49-3.42C0.26,9.64,0.62,6.79,1.58,5.28c2.09-3.27,5.22-4.63,8.57-4.63
			s6.48,1.36,8.57,4.63c0.97,1.51,1.32,4.36,0.39,7.33c-0.36,1.14-0.8,2.29-1.46,3.37"/>
		<path class="st5" d="M17.64,15.98c-0.68,1.12-1.59,2.16-2.87,3.05c-2.69,1.87-4.62,1.71-4.62,1.71s-1.93,0.16-4.62-1.71
			c-1.27-0.88-2.17-1.91-2.84-3.01"/>
	</g>
</g>
</svg>
