<?xml version="1.0" encoding="utf-8"?>
<!-- Generator: Adobe Illustrator 24.3.0, SVG Export Plug-In . SVG Version: 6.00 Build 0)  -->
<svg version="1.1" xmlns="http://www.w3.org/2000/svg" xmlns:xlink="http://www.w3.org/1999/xlink" x="0px" y="0px"
	 viewBox="0 0 26.5 26.5" style="enable-background:new 0 0 26.5 26.5;" xml:space="preserve">
<style type="text/css">
	.st0{fill:#606060;}
	.st1{fill:none;stroke:#37373F;stroke-width:1.5;stroke-linecap:round;stroke-linejoin:round;stroke-miterlimit:10;}
	.st2{fill:none;stroke:#37373F;stroke-width:1.2693;stroke-linecap:round;stroke-linejoin:round;stroke-miterlimit:10;}
	.st3{fill:#37373F;}
	.st4{fill:none;stroke:#FF9500;stroke-width:12.7161;stroke-linecap:round;stroke-linejoin:round;stroke-miterlimit:10;}
	.st5{fill:#FFFFFF;}
	.st6{fill:none;stroke:#37373F;stroke-width:1.1842;stroke-linecap:round;stroke-linejoin:round;stroke-miterlimit:10;}
	.st7{fill:#FF9500;}
	.st8{fill:none;stroke:#FFFFFF;stroke-width:0.8462;stroke-miterlimit:10;}
	.st9{fill:none;stroke:#37373F;stroke-linecap:round;stroke-linejoin:round;stroke-miterlimit:10;}
	.st10{fill:none;stroke:#FC5A2A;stroke-width:11.4934;stroke-miterlimit:10;}
	.st11{fill:none;stroke:#FFFFFF;stroke-width:1.5673;stroke-linecap:round;stroke-linejoin:round;stroke-miterlimit:10;}
	.st12{fill:none;stroke:#FFFFFF;stroke-width:7.314;stroke-linecap:round;stroke-linejoin:round;stroke-miterlimit:10;}
	.st13{fill:none;stroke:#9A97A3;stroke-width:12.5382;stroke-linecap:round;stroke-linejoin:round;stroke-miterlimit:10;}
	.st14{fill:none;stroke:#37373F;stroke-width:1.5689;stroke-linecap:round;stroke-linejoin:round;stroke-miterlimit:10;}
	.st15{clip-path:url(#SVGID_2_);fill:#36373F;}
	.st16{fill:none;stroke:#36373F;stroke-width:1.5;stroke-miterlimit:10;}
	.st17{fill:none;stroke:#37373F;stroke-width:1.1869;stroke-linecap:round;stroke-linejoin:round;stroke-miterlimit:10;}
	.st18{fill:none;stroke:#37373F;stroke-width:1.1349;stroke-linecap:round;stroke-linejoin:round;stroke-miterlimit:10;}
	.st19{fill:none;stroke:#37373F;stroke-width:1.415;stroke-linecap:round;stroke-linejoin:round;stroke-miterlimit:10;}
	.st20{fill:none;stroke:#37373F;stroke-width:0.9006;stroke-linecap:round;stroke-linejoin:round;stroke-miterlimit:10;}
	.st21{fill-rule:evenodd;clip-rule:evenodd;fill:none;stroke:#283538;stroke-width:1.5;stroke-linecap:round;stroke-miterlimit:10;}
	.st22{fill:none;stroke:#37373F;stroke-width:1.2818;stroke-linecap:round;stroke-linejoin:round;stroke-miterlimit:10;}
	.st23{fill:none;stroke:#37373F;stroke-width:1.3149;stroke-linecap:round;stroke-linejoin:round;stroke-miterlimit:10;}
	.st24{fill:none;stroke:#37373F;stroke-width:1.5;stroke-linejoin:round;stroke-miterlimit:10;}
	.st25{fill:none;stroke:#37373F;stroke-width:1.2;stroke-linecap:round;stroke-linejoin:round;stroke-miterlimit:10;}
	.st26{fill:none;stroke:#37373F;stroke-width:1.3205;stroke-linecap:round;stroke-linejoin:round;stroke-miterlimit:10;}
	.st27{fill:none;stroke:#37373F;stroke-width:1.3127;stroke-linecap:round;stroke-linejoin:round;stroke-miterlimit:10;}
	.st28{fill:#37373F;stroke:#37373F;stroke-width:0.4;stroke-linecap:round;stroke-linejoin:round;stroke-miterlimit:10;}
	.st29{fill:none;stroke:#2D2D2D;stroke-width:1.5;stroke-linecap:round;stroke-linejoin:round;stroke-miterlimit:10;}
</style>
<g id="TEXTO">
</g>
<g id="ICONOS">
	<g>
		<path class="st1" d="M23.67,25.75H2.83c-1.15,0-2.08-0.93-2.08-2.08V2.83c0-1.15,0.93-2.08,2.08-2.08h20.84
			c1.15,0,2.08,0.93,2.08,2.08v20.84C25.75,24.82,24.82,25.75,23.67,25.75z"/>
		<g>
			<path class="st3" d="M19.99,9.57c-0.52,0.22-1.04,0.36-1.56,0.42c0.59-0.35,0.98-0.85,1.19-1.49c-0.54,0.32-1.11,0.54-1.72,0.65
				c-0.54-0.57-1.2-0.86-1.98-0.86c-0.75,0-1.39,0.26-1.92,0.79c-0.53,0.53-0.79,1.17-0.79,1.92c0,0.2,0.02,0.41,0.07,0.62
				c-1.11-0.06-2.15-0.33-3.12-0.84c-0.97-0.5-1.79-1.17-2.47-2C7.44,9.2,7.32,9.66,7.32,10.15c0,0.46,0.11,0.9,0.33,1.29
				c0.22,0.4,0.51,0.72,0.88,0.97c-0.44-0.02-0.84-0.13-1.23-0.34v0.03c0,0.65,0.21,1.23,0.62,1.72c0.41,0.5,0.93,0.81,1.56,0.94
				C9.24,14.82,9,14.85,8.76,14.85c-0.16,0-0.33-0.01-0.51-0.04c0.17,0.54,0.49,0.99,0.96,1.34c0.46,0.35,0.99,0.53,1.58,0.54
				c-0.98,0.77-2.11,1.16-3.37,1.16c-0.24,0-0.46-0.01-0.65-0.03c1.26,0.81,2.65,1.22,4.16,1.22c0.96,0,1.87-0.15,2.71-0.46
				c0.84-0.3,1.57-0.71,2.17-1.23c0.6-0.51,1.11-1.1,1.55-1.77c0.43-0.67,0.76-1.36,0.97-2.09c0.21-0.72,0.32-1.45,0.32-2.18
				c0-0.16,0-0.27-0.01-0.35C19.17,10.58,19.62,10.11,19.99,9.57z"/>
		</g>
	</g>
</g>
</svg>
