<?xml version="1.0" encoding="utf-8"?>
<!-- Generator: Adobe Illustrator 24.3.0, SVG Export Plug-In . SVG Version: 6.00 Build 0)  -->
<svg version="1.1" xmlns="http://www.w3.org/2000/svg" xmlns:xlink="http://www.w3.org/1999/xlink" x="0px" y="0px"
	 viewBox="0 0 26.5 26.5" style="enable-background:new 0 0 26.5 26.5;" xml:space="preserve">
<style type="text/css">
	.st0{fill:#606060;}
	.st1{fill:none;stroke:#37373F;stroke-width:1.5;stroke-linecap:round;stroke-linejoin:round;stroke-miterlimit:10;}
	.st2{fill:none;stroke:#37373F;stroke-width:1.2693;stroke-linecap:round;stroke-linejoin:round;stroke-miterlimit:10;}
	.st3{fill:#37373F;}
	.st4{fill:none;stroke:#FF9500;stroke-width:12.7161;stroke-linecap:round;stroke-linejoin:round;stroke-miterlimit:10;}
	.st5{fill:#FFFFFF;}
	.st6{fill:none;stroke:#37373F;stroke-width:1.1842;stroke-linecap:round;stroke-linejoin:round;stroke-miterlimit:10;}
	.st7{fill:#FF9500;}
	.st8{fill:none;stroke:#FFFFFF;stroke-width:0.8462;stroke-miterlimit:10;}
	.st9{fill:none;stroke:#37373F;stroke-linecap:round;stroke-linejoin:round;stroke-miterlimit:10;}
	.st10{fill:none;stroke:#FC5A2A;stroke-width:11.4934;stroke-miterlimit:10;}
	.st11{fill:none;stroke:#FFFFFF;stroke-width:1.5673;stroke-linecap:round;stroke-linejoin:round;stroke-miterlimit:10;}
	.st12{fill:none;stroke:#FFFFFF;stroke-width:7.314;stroke-linecap:round;stroke-linejoin:round;stroke-miterlimit:10;}
	.st13{fill:none;stroke:#9A97A3;stroke-width:12.5382;stroke-linecap:round;stroke-linejoin:round;stroke-miterlimit:10;}
	.st14{fill:none;stroke:#37373F;stroke-width:1.5689;stroke-linecap:round;stroke-linejoin:round;stroke-miterlimit:10;}
	.st15{clip-path:url(#SVGID_2_);fill:#36373F;}
	.st16{fill:none;stroke:#36373F;stroke-width:1.5;stroke-miterlimit:10;}
	.st17{fill:none;stroke:#37373F;stroke-width:1.1869;stroke-linecap:round;stroke-linejoin:round;stroke-miterlimit:10;}
	.st18{fill:none;stroke:#37373F;stroke-width:1.1349;stroke-linecap:round;stroke-linejoin:round;stroke-miterlimit:10;}
	.st19{fill:none;stroke:#37373F;stroke-width:1.415;stroke-linecap:round;stroke-linejoin:round;stroke-miterlimit:10;}
	.st20{fill:none;stroke:#37373F;stroke-width:0.9006;stroke-linecap:round;stroke-linejoin:round;stroke-miterlimit:10;}
	.st21{fill-rule:evenodd;clip-rule:evenodd;fill:none;stroke:#283538;stroke-width:1.5;stroke-linecap:round;stroke-miterlimit:10;}
	.st22{fill:none;stroke:#37373F;stroke-width:1.2818;stroke-linecap:round;stroke-linejoin:round;stroke-miterlimit:10;}
	.st23{fill:none;stroke:#37373F;stroke-width:1.3149;stroke-linecap:round;stroke-linejoin:round;stroke-miterlimit:10;}
	.st24{fill:none;stroke:#37373F;stroke-width:1.5;stroke-linejoin:round;stroke-miterlimit:10;}
	.st25{fill:none;stroke:#37373F;stroke-width:1.2;stroke-linecap:round;stroke-linejoin:round;stroke-miterlimit:10;}
	.st26{fill:none;stroke:#37373F;stroke-width:1.3205;stroke-linecap:round;stroke-linejoin:round;stroke-miterlimit:10;}
	.st27{fill:none;stroke:#37373F;stroke-width:1.3127;stroke-linecap:round;stroke-linejoin:round;stroke-miterlimit:10;}
	.st28{fill:#37373F;stroke:#37373F;stroke-width:0.4;stroke-linecap:round;stroke-linejoin:round;stroke-miterlimit:10;}
	.st29{fill:none;stroke:#2D2D2D;stroke-width:1.5;stroke-linecap:round;stroke-linejoin:round;stroke-miterlimit:10;}
</style>
<g id="TEXTO">
</g>
<g id="ICONOS">
	<g>
		<path class="st1" d="M23.67,25.75H2.83c-1.15,0-2.08-0.93-2.08-2.08V2.83c0-1.15,0.93-2.08,2.08-2.08h20.84
			c1.15,0,2.08,0.93,2.08,2.08v20.84C25.75,24.82,24.82,25.75,23.67,25.75z"/>
		<g>
			<g>
				<path class="st3" d="M19.12,12.94c-0.07-0.32-0.23-0.59-0.47-0.8c-0.24-0.22-0.52-0.34-0.83-0.38c-1-0.11-2.5-0.16-4.51-0.16
					c-2.01,0-3.51,0.05-4.5,0.16c-0.32,0.04-0.6,0.17-0.84,0.38c-0.24,0.22-0.4,0.49-0.47,0.8c-0.14,0.63-0.21,1.58-0.21,2.85
					c0,1.29,0.07,2.24,0.21,2.85c0.07,0.32,0.23,0.59,0.47,0.8c0.24,0.22,0.52,0.34,0.83,0.37c1,0.11,2.5,0.17,4.51,0.17
					c2.01,0,3.52-0.06,4.51-0.17c0.31-0.03,0.59-0.16,0.83-0.37c0.24-0.22,0.4-0.49,0.47-0.8c0.14-0.63,0.21-1.58,0.21-2.85
					C19.34,14.5,19.26,13.55,19.12,12.94z M10.73,13.76H9.86v4.63H9.04v-4.63H8.19V13h2.54L10.73,13.76L10.73,13.76z M12.92,18.39
					H12.2v-0.44c-0.29,0.33-0.57,0.5-0.83,0.5c-0.25,0-0.41-0.1-0.47-0.3c-0.04-0.13-0.07-0.33-0.07-0.59v-3.18h0.72v2.96
					c0,0.17,0,0.27,0.01,0.28c0.02,0.11,0.07,0.17,0.17,0.17c0.15,0,0.3-0.11,0.46-0.34v-3.07h0.72L12.92,18.39L12.92,18.39z
					 M15.68,17.18c0,0.4-0.02,0.67-0.07,0.81c-0.09,0.3-0.28,0.45-0.58,0.45c-0.26,0-0.51-0.15-0.76-0.45v0.39h-0.72V13h0.72v1.76
					c0.23-0.29,0.49-0.44,0.76-0.44c0.29,0,0.48,0.15,0.58,0.46c0.05,0.14,0.07,0.41,0.07,0.8V17.18z M18.43,16.52h-1.46v0.71
					c0,0.37,0.12,0.56,0.37,0.56c0.18,0,0.29-0.1,0.33-0.29c0.01-0.05,0.02-0.22,0.02-0.5h0.74v0.11c0,0.27-0.01,0.42-0.02,0.47
					c-0.02,0.15-0.07,0.29-0.17,0.44c-0.2,0.29-0.49,0.43-0.88,0.43c-0.37,0-0.67-0.14-0.88-0.41c-0.16-0.2-0.24-0.51-0.24-0.94
					v-1.41c0-0.43,0.08-0.74,0.23-0.94c0.21-0.28,0.5-0.41,0.87-0.41c0.36,0,0.65,0.14,0.86,0.41c0.15,0.2,0.22,0.51,0.22,0.94
					L18.43,16.52L18.43,16.52z"/>
				<path class="st3" d="M14.64,14.98c-0.12,0-0.25,0.06-0.37,0.18v2.45c0.12,0.12,0.24,0.18,0.37,0.18c0.21,0,0.32-0.18,0.32-0.54
					v-1.72C14.96,15.16,14.86,14.98,14.64,14.98z"/>
				<path class="st3" d="M17.34,14.98c-0.24,0-0.37,0.18-0.37,0.55v0.37h0.73v-0.37C17.71,15.17,17.59,14.98,17.34,14.98z"/>
				<path class="st3" d="M10.25,8.66v2.2h0.81v-2.2l0.98-3.24h-0.83l-0.55,2.14l-0.58-2.14H9.23c0.15,0.46,0.33,0.96,0.53,1.52
					C10.01,7.68,10.18,8.25,10.25,8.66z"/>
				<path class="st3" d="M13.14,10.92c0.37,0,0.66-0.14,0.86-0.41c0.15-0.2,0.23-0.52,0.23-0.96V8.12c0-0.43-0.08-0.75-0.23-0.95
					c-0.2-0.28-0.49-0.41-0.86-0.41c-0.36,0-0.65,0.14-0.85,0.41c-0.15,0.2-0.23,0.52-0.23,0.95v1.42c0,0.43,0.08,0.75,0.23,0.96
					C12.49,10.78,12.78,10.92,13.14,10.92z M12.79,7.97c0-0.37,0.12-0.56,0.35-0.56c0.23,0,0.35,0.19,0.35,0.56v1.71
					c0,0.38-0.12,0.57-0.35,0.57c-0.23,0-0.35-0.19-0.35-0.57V7.97z"/>
				<path class="st3" d="M15.38,10.92c0.27,0,0.55-0.17,0.84-0.5v0.45h0.74V6.8h-0.74v3.1c-0.16,0.23-0.32,0.35-0.46,0.35
					c-0.1,0-0.15-0.06-0.17-0.18c-0.01-0.01-0.01-0.11-0.01-0.28V6.8h-0.74v3.2c0,0.28,0.02,0.48,0.07,0.61
					C14.97,10.82,15.13,10.92,15.38,10.92z"/>
			</g>
		</g>
	</g>
</g>
</svg>
