<?xml version="1.0" encoding="UTF-8"?>
<svg width="20px" height="20px" viewBox="0 0 20 20" version="1.1" xmlns="http://www.w3.org/2000/svg" xmlns:xlink="http://www.w3.org/1999/xlink">
    <!-- Generator: sketchtool 51.3 (57544) - http://www.bohemiancoding.com/sketch -->
    <title>0E77309D-771B-42D7-9FF8-028DB28E1FCC</title>
    <desc>Created with sketchtool.</desc>
    <defs></defs>
    <g id="Page-1" stroke="none" stroke-width="1" fill="none" fill-rule="evenodd">
        <g id="copied" transform="translate(-786.000000, -40.000000)" fill="#FFFFFF">
            <g id="link_grey" transform="translate(778.000000, 32.000000)">
                <g id="link" transform="translate(8.000000, 8.000000)">
                    <path d="M1.24590438,18.8300516 C2.90711021,20.3899828 5.6006154,20.3899828 7.26182124,18.8300516 L11.9495014,14.4285731 C10.2936762,14.6089652 9.29524353,14.0850257 8.96148312,14.0064199 L5.54301043,17.2161811 C4.83212768,17.8836617 3.67559793,17.8836617 2.96471518,17.2161811 C2.25383235,16.5488492 2.25383235,15.4627816 2.96471518,14.7954497 C3.09590881,14.6721173 8.49510475,9.60256387 8.32450552,9.76289592 C9.01798025,9.11161202 10.191285,9.09496958 10.9026426,9.76289592 C10.9602475,9.81698384 11.0036095,9.87835281 11.0517191,9.93734429 C11.3080927,9.91431238 11.5527553,9.95948471 11.7621271,9.76289592 L13,8.60060007 C12.8800425,8.44680612 12.7697386,8.28825723 12.6214533,8.14902543 C10.9736992,6.60172464 8.22084833,6.63233485 6.60553651,8.14902543 L1.24590438,13.1814306 C-0.415301459,14.7412131 -0.415301459,17.2702691 1.24590438,18.8300516 Z" id="Shape"></path>
                    <path d="M18.8316726,1.1872634 C17.2739027,-0.395754465 14.7481102,-0.395754465 13.1903403,1.1872634 L8.98508876,5.46067268 C10.537813,5.27759338 11.4740777,5.8094886 11.7870563,5.88911453 L14.8022767,2.82517493 C15.468896,2.14775122 16.5532653,2.14775122 17.2198845,2.82517493 C17.8865038,3.50259856 17.8865038,4.60469392 17.2198845,5.28211756 L13.3114359,9.25391349 L12.3843721,10.1958521 C11.734077,10.8569886 10.6338288,10.873879 9.96676429,10.1958521 C9.91274616,10.1411093 9.87208415,10.0788261 9.82697011,10.0189558 C9.58655978,10.0423309 9.35713118,9.99633486 9.16079607,10.1958521 L8,11.3754621 C8.11248831,11.531547 8.2159241,11.6926086 8.35497624,11.8339144 C9.90013205,13.4042645 12.481575,13.3730475 13.9963085,11.8339144 L18.8316726,6.92002909 C20.3894425,5.33701123 20.3894425,2.77028126 18.8316726,1.1872634 Z" id="Shape"></path>
                </g>
            </g>
        </g>
    </g>
</svg>