<?xml version="1.0" standalone="no"?>
<!DOCTYPE svg PUBLIC "-//W3C//DTD SVG 20010904//EN"
 "http://www.w3.org/TR/2001/REC-SVG-20010904/DTD/svg10.dtd">
<svg version="1.0" xmlns="http://www.w3.org/2000/svg"
 width="1280.000000pt" height="1058.000000pt" viewBox="0 0 1280.000000 1058.000000"
 preserveAspectRatio="xMidYMid meet">
<g transform="translate(0.000000,1058.000000) scale(0.100000,-0.100000)"
fill="#000000" stroke="none">
<path d="M10770 10577 c-3 -3 -67 -12 -144 -21 -76 -9 -193 -27 -261 -41 -991
-200 -1992 -980 -2640 -2055 -101 -167 -273 -515 -335 -675 -133 -344 -219
-693 -250 -1010 -8 -78 -17 -126 -27 -137 -10 -11 -22 -82 -39 -220 -52 -441
-129 -942 -189 -1229 -79 -380 -169 -634 -370 -1044 -109 -221 -131 -259 -147
-249 -14 9 -160 311 -226 469 -140 332 -200 559 -287 1072 -52 311 -119 798
-141 1021 -5 55 -11 75 -24 82 -14 8 -20 28 -25 87 -55 641 -310 1322 -726
1945 -345 515 -820 998 -1294 1315 -910 608 -1883 747 -2619 374 -484 -244
-813 -673 -952 -1236 -29 -118 -74 -460 -74 -562 0 -91 34 -395 61 -538 132
-714 505 -1430 1074 -2065 581 -647 1333 -1131 2045 -1316 36 -9 73 -25 82
-36 11 -12 85 -39 200 -74 445 -133 912 -292 1218 -414 294 -117 440 -196 740
-396 223 -148 415 -295 415 -316 0 -8 -419 -514 -931 -1125 l-932 -1109 -107
-19 -107 -18 -89 -106 c-49 -58 -89 -109 -89 -112 0 -9 830 -704 845 -707 7
-2 46 37 87 85 124 146 117 129 105 265 -9 108 -8 118 10 141 111 142 1719
2047 1726 2044 4 -1 422 -495 927 -1097 l920 -1095 0 -100 c0 -68 5 -109 15
-128 17 -32 164 -207 175 -207 8 0 844 699 848 709 2 6 -96 127 -168 208 -28
30 -32 31 -141 39 -112 7 -113 7 -150 43 -50 48 -1929 2289 -1929 2301 0 17
344 279 540 410 328 219 557 331 1025 500 223 80 639 217 895 293 169 51 216
69 223 85 7 15 29 25 81 38 39 9 125 35 191 56 793 260 1573 845 2150 1613
520 693 800 1425 842 2200 6 109 -23 384 -57 550 -75 363 -237 682 -474 932
-347 367 -789 554 -1371 580 -66 3 -122 3 -125 0z m400 -332 c166 -28 347 -85
357 -111 5 -14 -331 -424 -348 -424 -11 0 -429 350 -429 359 0 4 37 51 82 105
l83 98 85 -6 c47 -4 123 -13 170 -21z m-430 6 c0 -13 -62 -89 -79 -96 -16 -7
-104 62 -98 79 2 6 17 14 33 17 45 10 144 10 144 0z m-260 -111 c47 -39 86
-77 88 -85 4 -16 -343 -435 -360 -435 -11 0 -413 333 -424 351 -16 26 61 68
246 136 113 41 317 102 345 103 11 0 59 -32 105 -70z m-8582 -91 c51 -61 92
-119 91 -128 -1 -22 -392 -346 -418 -346 -15 0 -72 62 -196 209 -97 115 -174
214 -172 220 9 28 250 106 417 136 186 33 171 38 278 -91z m279 102 c29 -4 56
-11 60 -15 10 -11 -117 -126 -139 -126 -16 0 -128 122 -128 141 0 11 131 11
207 0z m412 -88 c63 -19 150 -48 193 -64 70 -27 83 -37 132 -96 33 -39 52 -71
48 -78 -9 -16 -413 -355 -422 -355 -12 0 -360 419 -360 434 0 13 112 114 203
183 34 26 43 25 206 -24z m9164 -37 c47 -30 112 -74 144 -99 68 -52 193 -180
193 -197 0 -11 -353 -437 -375 -452 -5 -4 -14 -7 -18 -5 -22 7 -416 344 -417
356 0 12 339 426 365 443 16 12 17 11 108 -46z m-859 -234 c114 -95 206 -176
206 -180 0 -16 -357 -432 -370 -432 -4 0 -100 77 -212 171 -128 107 -203 177
-203 189 0 24 343 432 360 428 8 -2 106 -81 219 -176z m-9614 -72 c102 -121
186 -226 188 -233 1 -7 -92 -93 -209 -190 -171 -144 -214 -175 -225 -166 -34
28 -364 429 -364 442 0 55 346 364 410 366 9 1 99 -98 200 -219z m8640 -16
c116 -97 209 -181 208 -185 -9 -27 -346 -418 -360 -419 -16 0 -405 319 -421
346 -5 9 49 81 168 224 97 115 180 210 185 210 5 0 104 -79 220 -176z m-430
120 c0 -15 -233 -284 -246 -284 -20 0 -84 52 -84 67 0 14 67 65 208 158 88 59
122 75 122 59z m-7223 -214 c95 -113 173 -210 173 -217 0 -6 -82 -81 -182
-165 -256 -215 -237 -202 -259 -182 -42 38 -344 406 -344 419 0 20 404 357
423 353 9 -2 94 -95 189 -208z m1038 132 c166 -100 335 -220 335 -237 0 -14
-119 -115 -136 -115 -12 0 -354 404 -354 420 0 21 29 8 155 -68z m-80 -209
c92 -109 171 -206 176 -215 8 -14 -26 -46 -197 -190 -113 -95 -213 -173 -222
-173 -15 0 -361 400 -362 417 0 16 408 358 426 358 7 0 88 -89 179 -197z
m9008 10 c25 -43 64 -117 86 -164 38 -81 111 -283 111 -307 0 -15 -190 -242
-202 -242 -19 0 -429 353 -424 365 11 30 352 425 367 425 8 0 36 -34 62 -77z
m-3122 -54 c27 -22 49 -46 49 -53 0 -7 -66 -91 -146 -187 -177 -210 -202 -239
-213 -239 -14 0 -161 130 -161 143 0 22 388 377 412 377 6 0 32 -18 59 -41z
m2300 -130 c112 -94 205 -177 207 -184 4 -16 -345 -435 -362 -435 -17 0 -421
344 -421 359 0 17 347 431 361 431 6 0 103 -77 215 -171z m-10632 -107 c93
-112 168 -208 165 -215 -9 -19 -400 -342 -420 -346 -10 -2 -27 7 -39 22 -11
14 -46 57 -78 95 l-59 71 22 88 c51 205 186 500 225 491 8 -2 90 -94 184 -206z
m9659 17 c112 -94 206 -177 209 -184 7 -20 -337 -427 -359 -423 -10 2 -108 79
-219 172 -149 125 -200 173 -196 186 6 22 339 420 352 420 6 0 101 -77 213
-171z m-6578 70 c119 -100 301 -282 298 -295 -2 -7 -50 -51 -107 -99 l-104
-87 -23 24 c-72 73 -334 396 -332 409 2 9 36 44 76 78 58 47 77 59 91 52 9 -5
55 -42 101 -82z m-2115 -172 c115 -138 172 -213 167 -222 -8 -16 -413 -355
-422 -355 -12 0 -360 421 -360 435 0 21 402 355 422 352 10 -1 97 -96 193
-210z m7736 13 c108 -91 200 -171 203 -177 5 -13 -340 -433 -356 -433 -16 0
-429 352 -425 363 2 6 79 102 173 214 122 146 174 202 188 200 10 -1 108 -76
217 -167z m-6776 -92 c93 -111 169 -209 169 -219 1 -17 -397 -359 -418 -359
-17 0 -358 409 -354 426 4 19 398 353 418 353 8 1 91 -90 185 -201z m968 -88
c97 -116 174 -216 171 -223 -3 -7 -98 -89 -212 -184 -178 -148 -209 -171 -224
-160 -22 16 -348 406 -348 417 0 10 416 360 428 360 5 0 88 -95 185 -210z
m8272 -88 c113 -96 205 -178 203 -183 -7 -20 -354 -428 -365 -429 -22 0 -418
340 -418 360 0 25 342 432 360 428 7 -2 106 -81 220 -176z m-3302 76 c40 -34
73 -67 75 -74 4 -17 -337 -424 -356 -424 -14 0 -141 103 -155 126 -16 27 312
434 351 434 7 0 45 -28 85 -62z m2327 -165 c110 -92 200 -174 200 -183 0 -22
-330 -414 -351 -418 -20 -4 -424 333 -424 353 0 24 346 427 361 421 8 -3 104
-81 214 -173z m-6631 34 c87 -99 261 -324 261 -338 0 -12 -199 -174 -215 -174
-16 0 -355 400 -355 420 0 15 198 185 216 185 6 0 48 -42 93 -93z m-3122 -127
c95 -113 173 -210 173 -217 0 -6 -82 -81 -182 -165 -243 -204 -238 -200 -254
-187 -7 6 -91 103 -186 216 -124 149 -169 209 -162 218 23 34 408 346 423 343
8 -2 93 -95 188 -208z m8788 9 c113 -95 205 -177 205 -183 0 -13 -340 -418
-356 -423 -17 -6 -419 338 -419 358 0 23 332 419 351 419 8 0 107 -77 219
-171z m2475 17 c7 -73 8 -122 2 -128 -10 -10 -145 95 -150 118 -3 14 71 112
107 142 23 18 28 3 41 -132z m-10293 -116 c95 -113 171 -209 169 -215 -6 -21
-416 -357 -429 -352 -8 3 -91 98 -187 211 -152 182 -171 208 -159 223 34 40
406 343 419 341 8 -2 92 -95 187 -208z m6853 15 c132 -110 207 -180 204 -189
-10 -25 -340 -411 -355 -414 -8 -1 -93 63 -189 144 -220 184 -242 204 -238
214 7 19 349 420 359 420 5 0 104 -79 219 -175z m-5892 -96 c94 -112 172 -209
172 -216 0 -6 -95 -91 -211 -188 l-211 -177 -24 23 c-62 64 -334 396 -333 409
0 17 409 361 424 357 6 -2 88 -95 183 -208z m-2764 97 c20 -23 36 -48 36 -54
0 -6 -20 -27 -45 -48 -61 -49 -69 -40 -60 65 8 96 18 101 69 37z m3733 -186
c95 -113 173 -208 173 -212 0 -12 -422 -359 -433 -355 -6 2 -89 96 -185 210
-123 146 -171 210 -165 220 17 29 407 348 422 345 8 -2 93 -95 188 -208z
m8248 89 c61 -50 113 -96 116 -103 9 -15 -7 -186 -32 -336 l-21 -125 -55 -67
c-30 -38 -60 -68 -67 -68 -19 0 -421 346 -420 361 1 19 345 429 359 429 6 0
60 -41 120 -91z m-882 -166 c218 -183 222 -186 210 -206 -25 -45 -340 -407
-353 -407 -8 0 -107 77 -218 171 -153 129 -203 176 -199 189 7 28 340 421 354
418 7 -2 99 -76 206 -165z m-3269 61 c36 -30 66 -61 66 -67 0 -11 -282 -353
-335 -406 l-23 -24 -41 32 c-23 18 -41 38 -41 45 0 16 108 209 198 353 49 78
83 123 94 123 9 0 46 -25 82 -56z m-7526 -159 c95 -113 175 -211 178 -218 3
-8 -74 -79 -197 -182 -112 -94 -208 -173 -214 -177 -26 -16 -46 19 -70 122
-39 166 -74 432 -66 507 1 17 163 152 182 153 8 0 93 -92 187 -205z m9833 12
c106 -90 200 -171 207 -179 11 -13 -13 -46 -163 -224 -96 -115 -181 -209 -189
-209 -24 0 -428 345 -422 361 12 31 342 414 357 414 8 0 103 -74 210 -163z
m-8862 -103 c95 -113 171 -212 169 -219 -4 -20 -408 -356 -424 -353 -20 5
-355 409 -352 425 4 19 399 351 419 352 8 1 93 -92 188 -205z m3059 149 c50
-75 158 -257 208 -351 l39 -73 -60 -54 c-33 -30 -67 -55 -77 -55 -21 0 -361
404 -356 425 4 17 177 164 195 165 7 0 30 -26 51 -57z m4843 -134 c112 -95
205 -177 207 -184 4 -15 -333 -419 -353 -423 -18 -4 -425 335 -425 354 0 17
341 424 355 424 6 0 103 -77 216 -171z m-7070 59 c255 -303 309 -370 302 -382
-18 -30 -417 -355 -429 -348 -16 9 -354 412 -354 422 0 10 417 360 429 360 4
0 28 -23 52 -52z m6100 -139 c112 -94 207 -177 211 -184 9 -15 -337 -431 -357
-429 -25 3 -426 346 -421 361 7 18 348 423 356 423 3 0 98 -77 211 -171z
m-5003 -103 c95 -113 172 -211 172 -218 -1 -17 -404 -353 -423 -353 -20 0
-359 404 -355 422 4 20 399 352 419 353 9 0 93 -92 187 -204z m966 -87 c152
-181 175 -213 164 -227 -35 -42 -405 -342 -419 -340 -16 3 -359 404 -359 419
0 12 413 358 427 359 6 0 90 -95 187 -211z m7458 1 c112 -94 204 -178 206
-188 3 -21 -332 -422 -353 -422 -20 0 -420 337 -420 355 0 16 341 425 355 425
5 0 100 -77 212 -170z m-957 -92 c113 -94 205 -177 205 -182 0 -14 -341 -418
-356 -423 -15 -5 -418 335 -422 355 -3 21 333 422 354 422 8 0 107 -77 219
-172z m-9918 -98 c95 -113 172 -209 170 -215 -5 -15 -410 -354 -424 -355 -10
0 -274 305 -341 394 l-22 30 27 27 c76 74 390 329 403 326 8 -1 92 -94 187
-207z m8953 14 c172 -144 208 -179 201 -192 -21 -38 -343 -412 -355 -412 -15
0 -420 337 -424 353 -3 17 341 427 359 427 5 0 104 -79 219 -176z m-2272 120
c12 -8 22 -21 22 -28 0 -19 -131 -176 -147 -176 -15 0 -10 15 44 138 20 45 41
82 47 82 7 0 22 -7 34 -16z m-5845 -66 c131 -150 297 -354 297 -365 0 -16
-403 -353 -423 -353 -18 0 -357 401 -356 421 0 13 406 359 421 359 4 0 31 -28
61 -62z m7148 -134 c115 -97 209 -182 207 -189 -5 -21 -349 -426 -359 -423
-25 8 -418 345 -419 358 0 15 72 105 267 333 46 53 86 97 89 97 2 0 99 -79
215 -176z m-4093 104 c17 -23 162 -375 162 -396 0 -2 -7 -2 -15 0 -18 4 -265
296 -265 314 0 12 88 94 101 94 4 0 11 -6 17 -12z m-1963 -203 c93 -111 171
-207 173 -213 3 -10 -411 -362 -427 -362 -17 0 -361 419 -355 432 9 22 407
348 423 347 9 0 92 -92 186 -204z m5100 7 c157 -132 204 -176 197 -188 -20
-36 -345 -414 -355 -414 -12 0 -390 312 -416 344 -12 14 -12 19 1 34 8 9 75
89 148 177 165 198 191 226 207 223 6 -2 105 -81 218 -176z m-4136 -91 c94
-113 171 -210 171 -216 0 -16 -405 -355 -423 -355 -20 0 -359 406 -355 424 4
19 409 357 424 354 6 -2 89 -95 183 -207z m8301 156 c0 -63 -201 -527 -228
-527 -20 0 -132 99 -132 116 0 16 339 424 352 424 4 0 8 -6 8 -13z m-7335
-241 c93 -112 171 -208 172 -213 4 -10 -394 -349 -420 -359 -15 -5 -371 410
-365 427 6 19 421 357 431 353 7 -3 88 -97 182 -208z m6580 -4 c110 -92 201
-175 203 -184 4 -19 -333 -423 -353 -423 -24 0 -427 345 -421 361 12 30 342
414 356 414 8 0 105 -76 215 -168z m-1060 -4 c212 -178 305 -259 305 -267 0
-15 -340 -416 -356 -419 -18 -4 -424 335 -424 354 0 19 340 424 355 424 6 0
60 -41 120 -92z m-8941 -178 c120 -143 174 -215 169 -224 -16 -27 -405 -346
-421 -345 -15 0 -351 390 -359 416 -4 10 412 363 427 363 4 0 87 -95 184 -210z
m8066 19 c113 -95 208 -177 212 -184 7 -12 -317 -410 -348 -428 -9 -5 -80 49
-224 169 -115 97 -210 180 -210 185 0 12 350 429 359 429 4 0 99 -77 211 -171z
m-8977 2 c64 -77 117 -146 117 -154 0 -13 -38 -48 -77 -71 -14 -8 -79 115
-137 259 -59 145 -51 143 97 -34z m1873 -102 c93 -111 169 -209 169 -219 0
-16 -399 -360 -417 -360 -18 0 -359 410 -356 428 4 19 399 351 419 351 9 1 90
-87 185 -200z m6145 10 c112 -94 205 -176 207 -183 3 -14 -335 -420 -354 -424
-17 -4 -424 337 -424 355 0 19 340 423 355 423 7 0 104 -77 216 -171z m-5177
-99 c99 -118 173 -215 170 -222 -9 -22 -401 -343 -420 -345 -14 -2 -68 57
-189 201 -93 112 -171 208 -173 214 -4 12 407 361 425 362 7 0 91 -94 187
-210z m4226 4 c102 -85 188 -161 192 -168 4 -8 -53 -84 -156 -207 -89 -107
-170 -200 -179 -208 -20 -16 -33 -9 -111 61 l-50 44 3 60 c3 93 29 276 58 408
28 132 38 166 50 166 5 0 91 -70 193 -156z m-3260 -89 c103 -123 170 -211 167
-219 -3 -8 -90 -85 -194 -172 -103 -86 -196 -164 -205 -172 -15 -13 -20 -13
-34 -1 -33 27 -344 403 -344 415 0 7 82 82 183 166 223 188 237 199 247 193 5
-3 86 -97 180 -210z m7500 108 c39 -33 69 -66 69 -77 2 -36 -251 -434 -290
-459 -13 -8 -37 6 -118 73 -55 47 -101 91 -101 100 0 14 54 81 266 333 41 48
82 87 90 87 9 0 47 -26 84 -57z m-6697 -1 c40 -44 119 -558 93 -601 -4 -7 -48
-46 -98 -87 -72 -60 -93 -73 -104 -63 -30 24 -339 400 -339 411 0 14 405 358
421 358 6 0 18 -8 27 -18z m5862 -194 c113 -94 205 -178 205 -186 0 -20 -338
-422 -355 -422 -18 0 -420 340 -420 356 0 21 337 424 356 424 5 0 102 -77 214
-172z m-10086 -97 c94 -112 171 -210 171 -217 0 -18 -139 -134 -160 -134 -27
0 -300 420 -300 461 0 20 89 100 107 97 6 -2 88 -95 182 -207z m9129 6 c112
-94 202 -176 200 -183 -4 -16 -346 -424 -357 -424 -15 0 -416 343 -419 359 -2
9 60 92 144 191 193 232 203 242 217 234 7 -4 103 -84 215 -177z m-8159 -96
c94 -113 171 -208 171 -212 0 -10 -408 -353 -424 -357 -10 -2 -334 371 -359
414 -9 15 -5 19 233 218 99 83 182 146 191 144 9 -2 93 -95 188 -207z m7187
18 c112 -94 204 -178 204 -186 0 -20 -338 -423 -354 -423 -7 0 -90 66 -186
146 -226 189 -242 203 -238 216 8 24 344 417 357 418 7 0 105 -77 217 -171z
m-6227 -97 c94 -112 171 -209 171 -217 0 -16 -403 -355 -422 -355 -19 0 -360
407 -356 424 4 19 410 357 424 354 6 -2 89 -94 183 -206z m5258 16 c113 -94
207 -177 210 -184 5 -14 -334 -424 -351 -424 -20 1 -421 346 -420 362 1 8 75
102 165 209 149 178 177 208 188 209 2 0 96 -77 208 -172z m-4288 -107 c94
-112 171 -207 171 -211 0 -10 -418 -360 -429 -360 -4 0 -28 23 -52 52 -255
303 -309 370 -302 382 5 8 100 91 212 185 130 108 208 168 216 163 7 -4 90
-99 184 -211z m961 -79 c113 -136 168 -208 163 -217 -9 -15 -413 -355 -423
-355 -14 0 -351 412 -348 426 4 20 408 356 424 352 7 -2 90 -94 184 -206z
m6648 82 c56 -47 102 -92 102 -99 0 -32 -327 -407 -360 -413 -20 -4 -210 155
-210 175 0 18 338 423 354 423 6 0 57 -39 114 -86z m-863 -169 c146 -122 204
-175 202 -189 -2 -20 -323 -411 -345 -420 -13 -6 -432 338 -432 355 0 15 351
430 361 427 5 -2 101 -80 214 -173z m-9208 -96 c92 -110 168 -208 168 -218 0
-24 -141 -142 -160 -135 -17 7 -211 221 -295 326 -34 43 -60 84 -58 92 4 21
139 135 160 135 11 1 83 -78 185 -200z m8244 10 c112 -94 205 -176 207 -183 3
-14 -335 -420 -354 -424 -18 -4 -424 336 -424 355 0 20 338 423 354 423 7 0
104 -77 217 -171z m-2264 119 c29 -27 29 -39 -3 -68 -21 -21 -27 -22 -34 -10
-11 17 -13 83 -3 93 10 11 15 9 40 -15z m-5010 -219 c104 -125 171 -212 167
-220 -10 -24 -401 -344 -420 -344 -20 0 -366 403 -361 419 6 19 412 355 426
353 8 -1 92 -95 188 -208z m6304 20 c112 -94 205 -178 207 -188 3 -17 -321
-411 -344 -418 -19 -6 -419 336 -419 358 0 19 328 419 344 419 5 0 100 -77
212 -171z m-5341 -103 c93 -112 170 -210 170 -217 -1 -16 -403 -354 -422 -354
-15 0 -358 404 -358 422 0 17 419 365 430 358 5 -3 86 -97 180 -209z m1954
186 c0 -12 -1 -51 -2 -87 -2 -84 -19 -93 -67 -39 -54 61 -54 72 -4 116 48 41
74 45 73 10z m2436 -168 c110 -92 200 -174 200 -183 0 -21 -329 -413 -344
-409 -18 6 -114 206 -147 308 -32 99 -68 250 -69 285 0 27 128 178 146 171 7
-3 103 -80 214 -172z m-3428 -99 c92 -110 168 -205 168 -212 0 -6 -82 -81
-182 -165 -241 -202 -238 -200 -253 -188 -29 24 -340 402 -340 413 0 17 407
357 425 354 8 -1 90 -92 182 -202z m872 28 l79 -95 -6 -49 c-16 -137 -188
-534 -232 -534 -11 0 -81 75 -193 208 -154 183 -173 209 -161 224 31 37 405
343 419 342 8 0 50 -43 94 -96z m5860 -31 c47 -40 86 -79 86 -87 0 -27 -388
-365 -420 -365 -21 0 -130 94 -130 112 0 14 317 402 344 420 14 9 21 4 120
-80z m-858 -173 c112 -94 204 -178 204 -186 0 -18 -339 -423 -355 -423 -19 0
-420 341 -420 357 0 20 336 422 353 423 7 0 105 -77 218 -171z m-8328 -94 c94
-113 172 -211 172 -219 0 -8 -16 -28 -37 -45 -43 -36 -40 -37 -158 58 -140
112 -304 265 -305 283 0 17 125 128 145 128 6 0 88 -92 183 -205z m7359 13
c113 -95 207 -178 210 -184 5 -14 -335 -424 -351 -424 -20 0 -421 346 -420
362 1 17 334 418 348 418 4 0 100 -77 213 -172z m-6383 -111 c91 -109 166
-202 166 -207 0 -12 -420 -362 -431 -358 -5 2 -87 97 -184 211 -114 136 -172
213 -167 222 4 7 99 89 211 184 178 149 207 169 222 158 10 -6 92 -101 183
-210z m5425 30 c113 -94 206 -177 208 -183 5 -16 -359 -448 -380 -452 -48 -9
-319 216 -391 325 -24 37 -26 44 -14 61 46 64 353 422 362 422 6 0 103 -78
215 -173z m-4469 -106 c94 -112 170 -207 168 -212 -2 -5 -97 -87 -212 -184
-133 -112 -213 -172 -221 -167 -26 15 -346 405 -343 418 5 20 409 355 424 352
8 -2 90 -95 184 -207z m971 -90 c101 -121 185 -224 187 -229 5 -15 -143 -166
-216 -220 -37 -28 -102 -69 -145 -92 -67 -36 -81 -41 -92 -29 -72 75 -355 425
-353 436 4 19 399 352 419 352 9 1 97 -96 200 -218z m2518 -23 c200 -398 536
-686 951 -817 69 -22 137 -42 153 -46 15 -3 27 -10 27 -15 0 -13 -3 -14 -225
-96 -221 -81 -440 -172 -560 -232 -261 -130 -570 -332 -897 -586 -76 -58 -144
-106 -152 -106 -8 0 -24 11 -35 25 l-19 26 137 272 c291 575 398 894 501 1487
36 209 36 210 48 210 5 0 37 -55 71 -122z m3277 69 c28 -25 45 -48 40 -55 -8
-13 -140 -101 -251 -167 -112 -66 -113 -66 -120 -56 -7 12 252 321 270 321 7
0 35 -19 61 -43z m-5066 -177 c109 -643 215 -970 494 -1529 l87 -173 -39 -47
c-22 -25 -46 -47 -55 -49 -9 -2 -69 37 -134 86 -490 369 -791 536 -1323 732
-227 84 -253 94 -257 106 -2 6 27 19 64 29 466 122 853 438 1063 866 58 119
60 123 71 112 4 -4 17 -64 29 -133z m4251 -31 c112 -94 206 -178 207 -186 2
-8 -4 -23 -14 -34 -20 -22 -230 -106 -387 -153 -187 -57 -168 -59 -272 29 -49
42 -91 83 -93 93 -2 17 330 422 347 422 4 0 99 -77 212 -171z m-7535 10 c48
-59 65 -89 48 -89 -14 0 -194 126 -194 137 0 6 12 21 27 32 31 25 34 24 119
-80z m6576 -89 c132 -111 203 -177 203 -190 0 -27 -144 -199 -173 -207 -35 -8
-276 24 -378 51 -125 34 -219 71 -222 87 -3 18 340 429 358 429 5 0 100 -77
212 -170z m-5520 -104 c93 -110 168 -205 168 -212 0 -18 -127 -124 -149 -124
-85 0 -596 187 -589 215 5 20 372 325 388 322 8 -1 90 -92 182 -201z m961 -79
c134 -160 165 -203 155 -213 -17 -16 -160 -59 -268 -79 -47 -9 -148 -19 -225
-22 l-141 -6 -67 83 -68 83 28 28 c67 66 389 329 403 328 8 0 90 -91 183 -202z
m4932 -131 c28 -24 47 -47 42 -52 -18 -19 -197 -31 -197 -13 0 15 81 109 94
109 7 0 34 -20 61 -44z m-5606 -132 c28 -35 18 -47 -33 -39 -54 9 -64 20 -41
45 25 27 49 25 74 -6z"/>
</g>
</svg>
