<?xml version="1.0" standalone="no"?>
<!DOCTYPE svg PUBLIC "-//W3C//DTD SVG 20010904//EN"
 "http://www.w3.org/TR/2001/REC-SVG-20010904/DTD/svg10.dtd">
<svg version="1.0" xmlns="http://www.w3.org/2000/svg"
 width="1280.000000pt" height="1280.000000pt" viewBox="0 0 1280.000000 1280.000000"
 preserveAspectRatio="xMidYMid meet">
<g transform="translate(0.000000,1280.000000) scale(0.100000,-0.100000)"
fill="#000000" stroke="none">
<path d="M7755 12790 c-170 -4 -865 -11 -1544 -15 -679 -4 -1246 -11 -1259
-14 -20 -6 -12 -11 50 -35 467 -180 852 -513 1205 -1041 131 -196 177 -278
774 -1376 553 -1017 571 -1052 553 -1069 -11 -10 -179 -120 -374 -245 -195
-125 -361 -233 -368 -240 -11 -10 52 -14 330 -19 613 -11 2523 -24 2530 -17
14 13 1528 2515 1524 2518 -2 2 -198 -97 -435 -221 -237 -124 -437 -226 -444
-226 -10 0 -577 1027 -667 1210 -187 377 -609 688 -1053 776 -99 20 -367 25
-822 14z"/>
<path d="M4228 12644 c-181 -33 -375 -132 -540 -276 -25 -22 -1493 -2277
-1486 -2283 22 -21 2744 -1623 2748 -1618 26 30 1450 2365 1450 2377 0 43
-194 389 -345 616 -567 850 -1245 1290 -1827 1184z"/>
<path d="M10165 7794 c-784 -479 -1349 -830 -1349 -838 2 -17 1301 -2426 1318
-2444 18 -19 481 -17 694 3 462 44 841 144 1177 310 196 98 324 185 445 305
188 185 283 367 330 635 23 130 23 173 -5 345 l-17 105 -525 1035 c-289 569
-564 1110 -611 1203 -47 92 -90 167 -96 167 -6 -1 -618 -372 -1361 -826z"/>
<path d="M1590 8588 c-591 -4 -1167 -11 -1279 -15 l-204 -8 403 -315 c222
-173 407 -322 413 -331 7 -11 -92 -210 -413 -824 -232 -444 -432 -836 -445
-869 -28 -75 -65 -246 -65 -301 0 -59 44 -259 74 -340 131 -344 485 -713 850
-886 221 -104 482 -166 841 -199 168 -16 660 -31 747 -24 l77 7 562 918 c309
506 568 919 574 919 7 0 191 -97 410 -215 219 -119 401 -214 405 -213 4 2
-109 219 -252 483 -143 264 -471 873 -730 1353 l-471 872 -211 -2 c-116 -1
-695 -5 -1286 -10z"/>
<path d="M7446 3915 l-708 -1277 305 -556 c167 -307 486 -890 708 -1296 l404
-739 7 44 c3 24 11 224 17 444 7 220 14 428 17 463 l6 62 743 0 c690 0 751 1
857 19 328 57 642 225 863 463 37 40 86 100 108 133 33 49 1706 3166 1725
3214 3 8 -39 -23 -94 -68 -408 -338 -899 -514 -1569 -561 -81 -6 -663 -10
-1377 -10 l-1238 0 -4 23 c-3 12 -15 216 -26 452 -12 237 -25 438 -29 448 -5
14 -196 -323 -715 -1258z"/>
<path d="M260 4910 c14 -28 1461 -2701 1659 -3067 142 -261 189 -323 327 -426
252 -190 525 -285 989 -344 100 -13 315 -16 1318 -20 l1197 -4 0 1599 0 1599
-567 7 c-313 3 -1011 9 -1553 12 -2188 13 -1980 8 -2203 49 -205 38 -369 92
-564 185 -208 100 -352 197 -532 359 -51 46 -79 66 -71 51z"/>
</g>
</svg>
