<?xml version="1.0" encoding="utf-8"?>
<!-- Generator: Adobe Illustrator 24.3.0, SVG Export Plug-In . SVG Version: 6.00 Build 0)  -->
<svg version="1.1" xmlns="http://www.w3.org/2000/svg" xmlns:xlink="http://www.w3.org/1999/xlink" x="0px" y="0px"
	 viewBox="0 0 24.66 27.5" style="enable-background:new 0 0 24.66 27.5;" xml:space="preserve">
<style type="text/css">
	.st0{fill:#FFFFFF;}
	.st1{fill:#171714;}
	.st2{fill:none;stroke:#37373F;stroke-width:1.5;stroke-miterlimit:10;}
	.st3{fill:none;stroke:#37373F;stroke-width:1.5;stroke-linecap:round;stroke-miterlimit:10;}
	.st4{fill:none;stroke:#37373F;stroke-width:1.5;stroke-linecap:round;stroke-linejoin:round;stroke-miterlimit:10;}
	.st5{fill:none;stroke:#37373F;stroke-width:1.3;stroke-linecap:round;stroke-linejoin:round;stroke-miterlimit:10;}
	.st6{fill:none;stroke:#37373F;stroke-linecap:round;stroke-linejoin:round;stroke-miterlimit:10;}
	.st7{fill:none;stroke:#37373F;stroke-width:1.4761;stroke-linecap:round;stroke-linejoin:round;stroke-miterlimit:10;}
	.st8{fill:none;stroke:#37373F;stroke-width:1.2;stroke-linecap:round;stroke-linejoin:round;stroke-miterlimit:10;}
	.st9{fill:none;stroke:#37373F;stroke-width:1.3067;stroke-linecap:round;stroke-linejoin:round;stroke-miterlimit:10;}
	.st10{fill:#37373F;}
	.st11{fill:none;stroke:#37373F;stroke-width:2.1163;stroke-linecap:round;stroke-linejoin:round;stroke-miterlimit:10;}
	.st12{fill:none;stroke:#FC5A2A;stroke-width:1.2617;stroke-linecap:round;stroke-miterlimit:10;}
	.st13{fill:#FC5A2A;}
	.st14{fill:#FC5A2A;stroke:#FC5A2A;stroke-width:1.5;stroke-miterlimit:10;}
</style>
<g id="TEXTO">
</g>
<g id="ICONOS">
	<g>
		<path class="st4" d="M5.17,5.18c0,0-2.99-1.14-4.21,2.19c-0.95,2.61,1.66,4.09,1.66,4.09l-0.07,5.65c0,0.47,0.19,0.92,0.52,1.25
			l0.12,0.12c0.69,0.69,1.81,0.69,2.5,0l0,0c0.33-0.33,0.52-0.78,0.52-1.25l0.02-5.8c0-1.63,1.32-2.96,2.96-2.96h9.28
			c0,0,1.36-0.54,1.51-2.76c0.14-2.07-1.07-3.36-2.41-3.49c-1.26-0.12-2.44,0.16-2.91,1.42"/>
		<path class="st4" d="M3.79,5c0,0-0.48-2.83,1.99-3.91c2.72-1.18,4.3,1.08,4.5,1.34c0,0,0.89-1.19,2.58-1.1
			c1.69,0.09,2.5,1.33,2.5,1.33"/>
		<line class="st4" x1="9.09" y1="13.15" x2="9.09" y2="20.68"/>
		<line class="st4" x1="16.7" y1="24.28" x2="6.1" y2="24.28"/>
		<line class="st4" x1="12.03" y1="13.15" x2="12.03" y2="20.68"/>
		<line class="st4" x1="14.97" y1="13.15" x2="14.97" y2="20.68"/>
		<path class="st4" d="M4.45,19l0.01,3.93L3.7,24.53c-0.19,0.33-0.53,1.05,0.29,1.63l0.66,0.59h13.58l0.66-0.59
			c0.81-0.58,0.47-1.3,0.29-1.63l-0.76-1.61l0.01-1.09h1.58l2.28-1.98c1.04-1.04,1.62-2.44,1.62-3.9l-0.23-3.32
			c0-1.13-0.91-2.04-2.04-2.04h-3.17V8.47"/>
		<path class="st4" d="M21.5,17.19l-0.02-4.04l-2.95,0l0.02,6.62c0,0.19,0.23,0.28,0.35,0.14L21.5,17.19z"/>
	</g>
</g>
</svg>
