<?xml version="1.0" encoding="utf-8"?>
<!-- Generator: Adobe Illustrator 24.3.0, SVG Export Plug-In . SVG Version: 6.00 Build 0)  -->
<svg version="1.1" xmlns="http://www.w3.org/2000/svg" xmlns:xlink="http://www.w3.org/1999/xlink" x="0px" y="0px"
	 viewBox="0 0 20.22 31.88" style="enable-background:new 0 0 20.22 31.88;" xml:space="preserve">
<style type="text/css">
	.st0{fill:#FFFFFF;}
	.st1{fill:#171714;}
	.st2{fill:none;stroke:#37373F;stroke-width:1.5;stroke-miterlimit:10;}
	.st3{fill:none;stroke:#37373F;stroke-width:1.5;stroke-linecap:round;stroke-miterlimit:10;}
	.st4{fill:none;stroke:#37373F;stroke-width:1.5;stroke-linecap:round;stroke-linejoin:round;stroke-miterlimit:10;}
	.st5{fill:none;stroke:#37373F;stroke-width:1.3;stroke-linecap:round;stroke-linejoin:round;stroke-miterlimit:10;}
	.st6{fill:none;stroke:#37373F;stroke-linecap:round;stroke-linejoin:round;stroke-miterlimit:10;}
	.st7{fill:none;stroke:#37373F;stroke-width:1.4761;stroke-linecap:round;stroke-linejoin:round;stroke-miterlimit:10;}
	.st8{fill:none;stroke:#37373F;stroke-width:1.2;stroke-linecap:round;stroke-linejoin:round;stroke-miterlimit:10;}
	.st9{fill:none;stroke:#37373F;stroke-width:1.3067;stroke-linecap:round;stroke-linejoin:round;stroke-miterlimit:10;}
	.st10{fill:#37373F;}
	.st11{fill:none;stroke:#37373F;stroke-width:2.1163;stroke-linecap:round;stroke-linejoin:round;stroke-miterlimit:10;}
	.st12{fill:none;stroke:#FC5A2A;stroke-width:1.2617;stroke-linecap:round;stroke-miterlimit:10;}
	.st13{fill:#FC5A2A;}
	.st14{fill:#FC5A2A;stroke:#FC5A2A;stroke-width:1.5;stroke-miterlimit:10;}
</style>
<g id="TEXTO">
</g>
<g id="ICONOS">
	<g>
		<path class="st5" d="M5.41,16.02H2.39L1.72,29.67c0,0.85,0.68,1.55,1.51,1.55H3.9c0.83,0,1.51-0.7,1.51-1.55V16.02z"/>
		<path class="st5" d="M3.52,16.02h1.89V1.73c0-0.29-0.28-0.52-0.56-0.42c-1.33,0.48-4.2,3.63-4.2,8.17v3.67
			C0.65,14.74,1.93,16.02,3.52,16.02z"/>
		<path class="st5" d="M10.38,8.3c0,2.54,2.06,4.59,4.59,4.59s4.59-2.06,4.59-4.59h0l0-6.67c0-0.54-0.41-0.99-0.92-0.99h0
			c-0.51,0-0.92,0.44-0.92,0.99v5.13c0,0.54-0.41,0.99-0.92,0.99h0c-0.51,0-0.92-0.44-0.92-0.99l0-5.13c0-0.54-0.41-0.99-0.92-0.99
			h0c-0.51,0-0.92,0.44-0.92,0.99v5.13c0,0.54-0.41,0.99-0.92,0.99h0c-0.51,0-0.92-0.44-0.92-0.99l0-5.13
			c0-0.54-0.41-0.99-0.92-0.99h0c-0.51,0-0.92,0.44-0.92,0.99L10.38,8.3L10.38,8.3z"/>
		<path class="st5" d="M16.39,12.9h-2.74l-0.79,16.8c0,0.84,0.69,1.53,1.53,1.53h1.27c0.84,0,1.53-0.69,1.53-1.53L16.39,12.9z"/>
	</g>
</g>
</svg>
