<?xml version="1.0" encoding="utf-8"?>
<!-- Generator: Adobe Illustrator 24.3.0, SVG Export Plug-In . SVG Version: 6.00 Build 0)  -->
<svg version="1.1" xmlns="http://www.w3.org/2000/svg" xmlns:xlink="http://www.w3.org/1999/xlink" x="0px" y="0px"
	 viewBox="0 0 26.5 25.96" style="enable-background:new 0 0 26.5 25.96;" xml:space="preserve">
<style type="text/css">
	.st0{fill:#FFFFFF;}
	.st1{fill:#171714;}
	.st2{fill:none;stroke:#37373F;stroke-width:1.5;stroke-miterlimit:10;}
	.st3{fill:none;stroke:#37373F;stroke-width:1.5;stroke-linecap:round;stroke-miterlimit:10;}
	.st4{fill:none;stroke:#37373F;stroke-width:1.5;stroke-linecap:round;stroke-linejoin:round;stroke-miterlimit:10;}
	.st5{fill:none;stroke:#37373F;stroke-width:1.3;stroke-linecap:round;stroke-linejoin:round;stroke-miterlimit:10;}
	.st6{fill:none;stroke:#37373F;stroke-linecap:round;stroke-linejoin:round;stroke-miterlimit:10;}
	.st7{fill:none;stroke:#37373F;stroke-width:1.4761;stroke-linecap:round;stroke-linejoin:round;stroke-miterlimit:10;}
	.st8{fill:none;stroke:#37373F;stroke-width:1.2;stroke-linecap:round;stroke-linejoin:round;stroke-miterlimit:10;}
	.st9{fill:none;stroke:#37373F;stroke-width:1.3067;stroke-linecap:round;stroke-linejoin:round;stroke-miterlimit:10;}
	.st10{fill:#37373F;}
	.st11{fill:none;stroke:#37373F;stroke-width:2.1163;stroke-linecap:round;stroke-linejoin:round;stroke-miterlimit:10;}
	.st12{fill:none;stroke:#FC5A2A;stroke-width:1.2617;stroke-linecap:round;stroke-miterlimit:10;}
	.st13{fill:#FC5A2A;}
	.st14{fill:#FC5A2A;stroke:#FC5A2A;stroke-width:1.5;stroke-miterlimit:10;}
</style>
<g id="TEXTO">
</g>
<g id="ICONOS">
	<g>
		<path class="st4" d="M19.66,7.16c0-3.54-2.87-6.41-6.41-6.41S6.84,3.62,6.84,7.16"/>
		<path class="st4" d="M18.19,3.32c3.03-0.97,6.27,0.69,7.25,3.72c0.97,3.03-0.36,6.27-3.47,7.25l0,9.21c0,0.95-0.77,1.72-1.72,1.72
			H6.26c-0.95,0-1.72-0.77-1.72-1.72l0-9.21c-3.12-0.97-4.45-4.22-3.47-7.25s4.22-4.69,7.25-3.72"/>
		<line class="st4" x1="4.54" y1="20.4" x2="21.96" y2="20.4"/>
		<path class="st4" d="M6.87,12.34c0,0,0.08,2.14,1.74,3.45"/>
		<path class="st4" d="M19.66,12.34c0,0-0.08,2.14-1.74,3.45"/>
		<line class="st4" x1="13.26" y1="12.29" x2="13.26" y2="15.81"/>
	</g>
</g>
</svg>
