<?xml version="1.0" encoding="utf-8"?>
<!-- Generator: Adobe Illustrator 24.3.0, SVG Export Plug-In . SVG Version: 6.00 Build 0)  -->
<svg version="1.1" xmlns="http://www.w3.org/2000/svg" xmlns:xlink="http://www.w3.org/1999/xlink" x="0px" y="0px"
	 viewBox="0 0 31.5 24.84" style="enable-background:new 0 0 31.5 24.84;" xml:space="preserve">
<style type="text/css">
	.st0{fill:#FFFFFF;}
	.st1{fill:#171714;}
	.st2{fill:none;stroke:#37373F;stroke-width:1.5;stroke-miterlimit:10;}
	.st3{fill:none;stroke:#37373F;stroke-width:1.5;stroke-linecap:round;stroke-miterlimit:10;}
	.st4{fill:none;stroke:#37373F;stroke-width:1.5;stroke-linecap:round;stroke-linejoin:round;stroke-miterlimit:10;}
	.st5{fill:none;stroke:#37373F;stroke-width:1.3;stroke-linecap:round;stroke-linejoin:round;stroke-miterlimit:10;}
	.st6{fill:none;stroke:#37373F;stroke-linecap:round;stroke-linejoin:round;stroke-miterlimit:10;}
	.st7{fill:none;stroke:#37373F;stroke-width:1.4761;stroke-linecap:round;stroke-linejoin:round;stroke-miterlimit:10;}
	.st8{fill:none;stroke:#37373F;stroke-width:1.2;stroke-linecap:round;stroke-linejoin:round;stroke-miterlimit:10;}
	.st9{fill:none;stroke:#37373F;stroke-width:1.3067;stroke-linecap:round;stroke-linejoin:round;stroke-miterlimit:10;}
	.st10{fill:#37373F;}
	.st11{fill:none;stroke:#37373F;stroke-width:2.1163;stroke-linecap:round;stroke-linejoin:round;stroke-miterlimit:10;}
	.st12{fill:none;stroke:#FC5A2A;stroke-width:1.2617;stroke-linecap:round;stroke-miterlimit:10;}
	.st13{fill:#FC5A2A;}
	.st14{fill:#FC5A2A;stroke:#FC5A2A;stroke-width:1.5;stroke-miterlimit:10;}
</style>
<g id="TEXTO">
</g>
<g id="ICONOS">
	<g>
		<path class="st4" d="M15.75,24.09c0.44-0.37,2.25-5.39,1.84-5.77c-0.89-0.81-3.08-0.93-3.08-3.06c0-2.71,1.43-3.01,3.05-3.13
			c0.51-0.04,0.89-0.49,0.82-0.99c-0.1-0.71-0.36-1.6,0.3-2.28c0.44-0.46,1.31-0.25,1.89-0.32c0.4-0.05,0.86-0.11,1.13-0.65
			c0.44-0.93,1.09-2.69,3.14-2.23l0.94,0.24c2.01,0.62,1.89,2.58,1.71,3.59c-0.07,0.37,0.16,0.73,0.51,0.85
			c0.55,0.2,1.46,0.45,1.62,1.06c0.23,0.92-0.45,1.58-0.88,2.14c-0.31,0.4-0.2,0.99,0.22,1.27c1.36,0.91,2.49,1.69,1.31,4.39
			c-0.89,2.03-3.64,0.59-4.76,1.02s-1.07,1.65-2.52,2.72s-2.89,1.13-2.89,1.13L15.75,24.09z"/>
		<path class="st4" d="M14.16,12.86c-0.02-0.71-1.16-0.95-1.22-1.45c-0.11-0.88,0.55-1.87-0.11-2.55c-0.44-0.46-1.31-0.25-1.89-0.32
			c-0.4-0.05-0.86-0.11-1.13-0.65C9.36,6.95,8.72,5.19,6.67,5.65L5.73,5.9C3.72,6.52,3.83,8.48,4.02,9.49
			c0.07,0.37-0.16,0.73-0.51,0.85c-0.55,0.2-1.46,0.45-1.62,1.06c-0.23,0.92,0.45,1.58,0.88,2.14c0.31,0.4,0.2,0.99-0.22,1.27
			C1.2,15.73,0.06,16.5,1.24,19.2c0.89,2.03,3.64,0.59,4.76,1.02s1.07,1.65,2.52,2.72s2.89,1.13,2.89,1.13l4.33,0.02
			c-0.44-0.3-2.55-1.88-1.53-6.18C14.4,17.11,14.22,13.93,14.16,12.86z"/>
		<g>
			<path class="st4" d="M15.75,24.09c0.1-0.05,5.26-2.01,7.89-10.84"/>
			<path class="st4" d="M24.7,16.76c0,0-1.88,0.89-2.7,0.66c-0.9-0.25-2.3-2.59-2.3-2.59"/>
			<path class="st4" d="M26.31,11.87c0,0-1.88,1.68-2.71,1.53c-0.84-0.15-2.33-2.43-2.33-2.43"/>
		</g>
		<g>
			<path class="st4" d="M15.75,24.09c-0.1-0.05-5.26-2.01-7.89-10.84"/>
			<path class="st4" d="M6.8,16.76c0,0,1.88,0.89,2.7,0.66c0.9-0.25,2.3-2.59,2.3-2.59"/>
			<path class="st4" d="M5.19,11.87c0,0,1.88,1.68,2.71,1.53c0.84-0.15,2.33-2.43,2.33-2.43"/>
		</g>
		<path class="st4" d="M7.33,5.58c0,0,1.81-0.19,2.29-0.82c0.7-0.91-0.07-1.5,1.24-2.49c1.12-0.85,2.44-0.39,2.44-0.39
			s0.72-1.18,2.39-1.14s2.62,1.22,2.62,1.22s1.65-0.37,2.29,0.24c0.67,0.64,0.9,2.54,0.9,2.54s0.43,0.72,1.8,1.02"/>
	</g>
</g>
</svg>
