<?xml version="1.0" encoding="utf-8"?>
<!-- Generator: Adobe Illustrator 24.3.0, SVG Export Plug-In . SVG Version: 6.00 Build 0)  -->
<svg version="1.1" xmlns="http://www.w3.org/2000/svg" xmlns:xlink="http://www.w3.org/1999/xlink" x="0px" y="0px"
	 viewBox="0 0 34.09 26.5" style="enable-background:new 0 0 34.09 26.5;" xml:space="preserve">
<style type="text/css">
	.st0{fill:#FFFFFF;}
	.st1{fill:#171714;}
	.st2{fill:none;stroke:#37373F;stroke-width:1.5;stroke-miterlimit:10;}
	.st3{fill:none;stroke:#37373F;stroke-width:1.5;stroke-linecap:round;stroke-miterlimit:10;}
	.st4{fill:none;stroke:#37373F;stroke-width:1.5;stroke-linecap:round;stroke-linejoin:round;stroke-miterlimit:10;}
	.st5{fill:none;stroke:#37373F;stroke-width:1.3;stroke-linecap:round;stroke-linejoin:round;stroke-miterlimit:10;}
	.st6{fill:none;stroke:#37373F;stroke-linecap:round;stroke-linejoin:round;stroke-miterlimit:10;}
	.st7{fill:none;stroke:#37373F;stroke-width:1.4761;stroke-linecap:round;stroke-linejoin:round;stroke-miterlimit:10;}
	.st8{fill:none;stroke:#37373F;stroke-width:1.2;stroke-linecap:round;stroke-linejoin:round;stroke-miterlimit:10;}
	.st9{fill:none;stroke:#37373F;stroke-width:1.3067;stroke-linecap:round;stroke-linejoin:round;stroke-miterlimit:10;}
	.st10{fill:#37373F;}
	.st11{fill:none;stroke:#37373F;stroke-width:2.1163;stroke-linecap:round;stroke-linejoin:round;stroke-miterlimit:10;}
	.st12{fill:none;stroke:#FC5A2A;stroke-width:1.2617;stroke-linecap:round;stroke-miterlimit:10;}
	.st13{fill:#FC5A2A;}
	.st14{fill:#FC5A2A;stroke:#FC5A2A;stroke-width:1.5;stroke-miterlimit:10;}
</style>
<g id="TEXTO">
</g>
<g id="ICONOS">
	<g>
		<circle class="st4" cx="17.12" cy="14.41" r="3.38"/>
		<circle class="st4" cx="12.26" cy="9.59" r="3.38"/>
		<path class="st4" d="M8.74,13.11c-0.77,0.73-1.23,1.4-1.23,2.61c0,1.87,1.53,3.46,3.39,3.46c1.21,0,1.94-0.39,2.68-1.31"/>
		<path class="st4" d="M1.53,20.14c-0.56,0.71-0.81,1.34-0.78,2.29c0.07,1.9,1.66,3.38,3.56,3.32c0.84-0.03,1.43-0.18,2.17-0.92"/>
		<path class="st4" d="M2.71,14.55c-0.55,0.78-0.55,1.2-0.55,2.02c0,1.87,1.51,3.38,3.38,3.38c0.86,0,1.15-0.09,1.97-0.62"/>
		<path class="st4" d="M4.35,8.66c-0.64,0.58-0.74,0.8-1.02,1.57c-0.64,1.76,0.27,3.69,2.03,4.33"/>
		<path class="st4" d="M17.99,22.35c-0.58,0.68-1.2,1.11-2.06,1.15c-1.86,0.09-3.34-0.69-3.83-2.49"/>
		<path class="st4" d="M12.14,23.71c-0.49,0.33-0.97,0.58-1.64,0.67c-1.85,0.25-3.62-0.92-3.86-2.77"/>
		<path class="st4" d="M11.45,4.25C10.91,3.1,9.74,2.31,8.39,2.31c-1.87,0-3.38,1.51-3.38,3.38c0,1.4,0.85,2.77,2.06,3.11"/>
		<path class="st4" d="M17.82,19.68c0.88,1.49,1.81,2.12,3.17,2.12c1.87,0,3.38-1.51,3.38-3.38c0-1.4-0.5-2.45-2.02-3.22"/>
		<path class="st4" d="M17.64,9.11c0,0-1.45-1.49-1.57-2.58c0,0-0.26-1.42,1.77-3.98l1.27,0.73c0,0,2.06-1.57,2.82-1.91
			c1.16-0.51,3.25-0.64,4.17-0.62c0.03,0.54-0.16,2.56-1.86,4.42c-0.18,0.19-0.13,0.32,0.1,0.19c0.53-0.3,1.37-0.88,4.21,0.36
			c2.69,1.17,4.79,2.16,4.79,2.16s-5.8,5.61-8.01,4.59c0,0,3.19,3.75,2.45,4.09l-1.74,0.4"/>
	</g>
</g>
</svg>
