<?xml version="1.0" encoding="utf-8"?>
<!-- Generator: Adobe Illustrator 24.3.0, SVG Export Plug-In . SVG Version: 6.00 Build 0)  -->
<svg version="1.1" xmlns="http://www.w3.org/2000/svg" xmlns:xlink="http://www.w3.org/1999/xlink" x="0px" y="0px"
	 viewBox="0 0 29.36 31.5" style="enable-background:new 0 0 29.36 31.5;" xml:space="preserve">
<style type="text/css">
	.st0{fill:#FFFFFF;}
	.st1{fill:#171714;}
	.st2{fill:none;stroke:#37373F;stroke-width:1.5;stroke-miterlimit:10;}
	.st3{fill:none;stroke:#37373F;stroke-width:1.5;stroke-linecap:round;stroke-miterlimit:10;}
	.st4{fill:none;stroke:#37373F;stroke-width:1.5;stroke-linecap:round;stroke-linejoin:round;stroke-miterlimit:10;}
	.st5{fill:none;stroke:#37373F;stroke-width:1.3;stroke-linecap:round;stroke-linejoin:round;stroke-miterlimit:10;}
	.st6{fill:none;stroke:#37373F;stroke-linecap:round;stroke-linejoin:round;stroke-miterlimit:10;}
	.st7{fill:none;stroke:#37373F;stroke-width:1.4761;stroke-linecap:round;stroke-linejoin:round;stroke-miterlimit:10;}
	.st8{fill:none;stroke:#37373F;stroke-width:1.2;stroke-linecap:round;stroke-linejoin:round;stroke-miterlimit:10;}
	.st9{fill:none;stroke:#37373F;stroke-width:1.3067;stroke-linecap:round;stroke-linejoin:round;stroke-miterlimit:10;}
	.st10{fill:#37373F;}
	.st11{fill:none;stroke:#37373F;stroke-width:2.1163;stroke-linecap:round;stroke-linejoin:round;stroke-miterlimit:10;}
	.st12{fill:none;stroke:#FC5A2A;stroke-width:1.2617;stroke-linecap:round;stroke-miterlimit:10;}
	.st13{fill:#FC5A2A;}
	.st14{fill:#FC5A2A;stroke:#FC5A2A;stroke-width:1.5;stroke-miterlimit:10;}
</style>
<g id="TEXTO">
</g>
<g id="ICONOS">
	<g>
		<path class="st4" d="M16.53,14.07v-1.45c0-0.73-0.64-1.32-1.44-1.32h-0.88c-0.79,0-1.44,0.59-1.44,1.32v1.45"/>
		<path class="st4" d="M3.53,19.65H2.07c-0.73,0-1.32,0.64-1.32,1.44v0.88c0,0.79,0.59,1.44,1.32,1.44h1.45"/>
		<path class="st4" d="M25.83,23.4h1.45c0.73,0,1.32-0.64,1.32-1.44v-0.88c0-0.79-0.59-1.44-1.32-1.44h-1.45"/>
		<line class="st4" x1="3.56" y1="14.07" x2="25.74" y2="14.07"/>
		<path class="st4" d="M23.46,30.75H5.9c-1.28,0-2.31-1.03-2.31-2.31V16.67h22.18v11.77C25.77,29.72,24.73,30.75,23.46,30.75z"/>
		<path class="st4" d="M13.33,0.75c0,1.17,0.7,2.1,0.7,3.45c0,1.66-0.71,2.61-0.7,3.51"/>
		<path class="st4" d="M16.18,0.75c0,1.17,0.7,2.1,0.7,3.45c0,1.66-0.71,2.61-0.7,3.51"/>
	</g>
</g>
</svg>
